<svg width="179" height="69" viewBox="0 0 179 69" fill="none" xmlns="http://www.w3.org/2000/svg">
<rect y="-0.000488281" width="35" height="68.75" rx="6.35" fill="#363636"/>
<path d="M2.5 6.35523C2.5 4.22578 4.22627 2.49951 6.35572 2.49951H11.6161C12.1821 2.49951 12.7248 2.72433 13.125 3.12451V3.12451C13.5252 3.52469 14.0679 3.74951 14.6339 3.74951H20.3661C20.9321 3.74951 21.4748 3.52469 21.875 3.12451V3.12451C22.2752 2.72433 22.8179 2.49951 23.3839 2.49951H28.6443C30.7737 2.49951 32.5 4.22578 32.5 6.35523V62.3938C32.5 64.5232 30.7737 66.2495 28.6443 66.2495H6.35572C4.22626 66.2495 2.5 64.5232 2.5 62.3938V6.35523Z" fill="white"/>
<rect x="51" y="5.99951" width="40.0418" height="44.046" fill="white"/>
<rect x="51" y="5.99951" width="40.0418" height="50.1393" fill="white"/>
<rect x="54.0371" y="9.72729" width="22.1227" height="1.18352" rx="0.591759" fill="#DEDEDE"/>
<rect x="54.0371" y="11.8215" width="22.1227" height="1.18352" rx="0.591759" fill="#DEDEDE"/>
<rect x="54.0371" y="18.5344" width="34.3807" height="1.24268" rx="0.621338" fill="#DEDEDE"/>
<rect x="54.0371" y="20.7437" width="34.3807" height="1.1046" rx="0.552301" fill="#DEDEDE"/>
<rect x="54.0371" y="22.8147" width="34.3807" height="1.24268" rx="0.621338" fill="#DEDEDE"/>
<rect x="54.0371" y="25.0239" width="34.3807" height="1.1046" rx="0.552301" fill="#DEDEDE"/>
<rect x="54.0371" y="27.095" width="34.3807" height="1.24268" rx="0.621338" fill="#DEDEDE"/>
<rect x="54.0371" y="29.3042" width="34.3807" height="1.1046" rx="0.552301" fill="#DEDEDE"/>
<rect x="54.0371" y="31.3755" width="34.3807" height="1.24268" rx="0.621338" fill="#DEDEDE"/>
<rect x="54.0371" y="33.5847" width="34.3807" height="1.24268" rx="0.621338" fill="#DEDEDE"/>
<rect x="54.0371" y="35.7937" width="34.3807" height="1.1046" rx="0.552301" fill="#DEDEDE"/>
<rect x="54.0371" y="37.865" width="34.3807" height="1.24268" rx="0.621338" fill="#DEDEDE"/>
<rect x="54.0371" y="40.0742" width="34.3807" height="1.1046" rx="0.552301" fill="#DEDEDE"/>
<rect x="54.0371" y="42.1453" width="34.3807" height="1.24268" rx="0.621338" fill="#DEDEDE"/>
<mask id="mask0_603_347" style="mask-type:alpha" maskUnits="userSpaceOnUse" x="80" y="7" width="8" height="8">
<rect x="80.2715" y="7.51831" width="6.88023" height="6.88023" fill="#D9D9D9"/>
</mask>
<g mask="url(#mask0_603_347)">
<path d="M83.3101 12.2773L85.3312 10.2562L84.9299 9.85486L83.3101 11.4746L82.4931 10.6575L82.0918 11.0589L83.3101 12.2773ZM83.7115 13.8253C83.3149 13.8253 82.9422 13.7501 82.5935 13.5996C82.2447 13.4491 81.9413 13.2448 81.6833 12.9868C81.4252 12.7288 81.221 12.4254 81.0705 12.0766C80.92 11.7278 80.8447 11.3551 80.8447 10.9586C80.8447 10.562 80.92 10.1893 81.0705 9.84052C81.221 9.49173 81.4252 9.18833 81.6833 8.93032C81.9413 8.67232 82.2447 8.46806 82.5935 8.31755C82.9422 8.16705 83.3149 8.0918 83.7115 8.0918C84.1081 8.0918 84.4807 8.16705 84.8295 8.31755C85.1783 8.46806 85.4817 8.67232 85.7397 8.93032C85.9977 9.18833 86.202 9.49173 86.3525 9.84052C86.503 10.1893 86.5782 10.562 86.5782 10.9586C86.5782 11.3551 86.503 11.7278 86.3525 12.0766C86.202 12.4254 85.9977 12.7288 85.7397 12.9868C85.4817 13.2448 85.1783 13.4491 84.8295 13.5996C84.4807 13.7501 84.1081 13.8253 83.7115 13.8253ZM83.7115 13.252C84.3517 13.252 84.894 13.0298 85.3384 12.5854C85.7827 12.1411 86.0049 11.5988 86.0049 10.9586C86.0049 10.3183 85.7827 9.77602 85.3384 9.33167C84.894 8.88732 84.3517 8.66515 83.7115 8.66515C83.0712 8.66515 82.5289 8.88732 82.0846 9.33167C81.6403 9.77602 81.4181 10.3183 81.4181 10.9586C81.4181 11.5988 81.6403 12.1411 82.0846 12.5854C82.5289 13.0298 83.0712 13.252 83.7115 13.252Z" fill="#17A672"/>
</g>
<rect x="78.1582" y="47.0859" width="10.0975" height="1.39276" rx="0.696379" fill="#DEDEDE"/>
<rect x="78.1582" y="49.4453" width="10.0975" height="1.39276" rx="0.696379" fill="#DEDEDE"/>
<rect x="78.1582" y="51.8044" width="10.0975" height="1.39276" rx="0.696379" fill="#DEDEDE"/>
<rect x="94.8721" y="5.99951" width="40.0418" height="44.046" fill="white"/>
<rect x="94.8721" y="5.99951" width="40.0418" height="50.1393" fill="white"/>
<rect x="97.9092" y="9.72729" width="22.1227" height="1.18352" rx="0.591759" fill="#DEDEDE"/>
<rect x="97.9092" y="11.8215" width="22.1227" height="1.18352" rx="0.591759" fill="#DEDEDE"/>
<rect x="97.9092" y="18.5344" width="34.3807" height="1.24268" rx="0.621338" fill="#DEDEDE"/>
<rect x="97.9092" y="20.7437" width="34.3807" height="1.1046" rx="0.552301" fill="#DEDEDE"/>
<rect x="97.9092" y="22.8147" width="34.3807" height="1.24268" rx="0.621338" fill="#DEDEDE"/>
<rect x="97.9092" y="25.0239" width="34.3807" height="1.1046" rx="0.552301" fill="#DEDEDE"/>
<rect x="97.9092" y="27.095" width="34.3807" height="1.24268" rx="0.621338" fill="#DEDEDE"/>
<rect x="97.9092" y="29.3042" width="34.3807" height="1.1046" rx="0.552301" fill="#DEDEDE"/>
<rect x="97.9092" y="31.3755" width="34.3807" height="1.24268" rx="0.621338" fill="#DEDEDE"/>
<rect x="97.9092" y="33.5847" width="34.3807" height="1.24268" rx="0.621338" fill="#DEDEDE"/>
<rect x="97.9092" y="35.7937" width="34.3807" height="1.1046" rx="0.552301" fill="#DEDEDE"/>
<rect x="97.9092" y="37.865" width="34.3807" height="1.24268" rx="0.621338" fill="#DEDEDE"/>
<rect x="97.9092" y="40.0742" width="34.3807" height="1.1046" rx="0.552301" fill="#DEDEDE"/>
<rect x="97.9092" y="42.1453" width="34.3807" height="1.24268" rx="0.621338" fill="#DEDEDE"/>
<mask id="mask1_603_347" style="mask-type:alpha" maskUnits="userSpaceOnUse" x="124" y="7" width="8" height="8">
<rect x="124.144" y="7.51831" width="6.88023" height="6.88023" fill="#D9D9D9"/>
</mask>
<g mask="url(#mask1_603_347)">
<path d="M127.183 12.2773L129.204 10.2562L128.803 9.85486L127.183 11.4746L126.366 10.6575L125.965 11.0589L127.183 12.2773ZM127.585 13.8253C127.188 13.8253 126.815 13.7501 126.466 13.5996C126.118 13.4491 125.814 13.2448 125.556 12.9868C125.298 12.7288 125.094 12.4254 124.944 12.0766C124.793 11.7278 124.718 11.3551 124.718 10.9586C124.718 10.562 124.793 10.1893 124.944 9.84052C125.094 9.49173 125.298 9.18833 125.556 8.93032C125.814 8.67232 126.118 8.46806 126.466 8.31755C126.815 8.16705 127.188 8.0918 127.585 8.0918C127.981 8.0918 128.354 8.16705 128.703 8.31755C129.051 8.46806 129.355 8.67232 129.613 8.93032C129.871 9.18833 130.075 9.49173 130.226 9.84052C130.376 10.1893 130.451 10.562 130.451 10.9586C130.451 11.3551 130.376 11.7278 130.226 12.0766C130.075 12.4254 129.871 12.7288 129.613 12.9868C129.355 13.2448 129.051 13.4491 128.703 13.5996C128.354 13.7501 127.981 13.8253 127.585 13.8253ZM127.585 13.252C128.225 13.252 128.767 13.0298 129.211 12.5854C129.656 12.1411 129.878 11.5988 129.878 10.9586C129.878 10.3183 129.656 9.77602 129.211 9.33167C128.767 8.88732 128.225 8.66515 127.585 8.66515C126.944 8.66515 126.402 8.88732 125.958 9.33167C125.513 9.77602 125.291 10.3183 125.291 10.9586C125.291 11.5988 125.513 12.1411 125.958 12.5854C126.402 13.0298 126.944 13.252 127.585 13.252Z" fill="#17A672"/>
</g>
<rect x="122.03" y="47.0859" width="10.0975" height="1.39276" rx="0.696379" fill="#DEDEDE"/>
<rect x="122.03" y="49.4453" width="10.0975" height="1.39276" rx="0.696379" fill="#DEDEDE"/>
<rect x="122.03" y="51.8044" width="10.0975" height="1.39276" rx="0.696379" fill="#DEDEDE"/>
<rect x="138.743" y="5.99951" width="40.0418" height="44.046" fill="white"/>
<rect x="138.743" y="5.99951" width="40.0418" height="50.1393" fill="white"/>
<rect x="141.78" y="9.72729" width="22.1227" height="1.18352" rx="0.591759" fill="#DEDEDE"/>
<rect x="141.78" y="11.8215" width="22.1227" height="1.18352" rx="0.591759" fill="#DEDEDE"/>
<rect x="141.78" y="18.5344" width="34.3807" height="1.24268" rx="0.621338" fill="#DEDEDE"/>
<rect x="141.78" y="20.7437" width="34.3807" height="1.1046" rx="0.552301" fill="#DEDEDE"/>
<rect x="141.78" y="22.8147" width="34.3807" height="1.24268" rx="0.621338" fill="#DEDEDE"/>
<rect x="141.78" y="25.0239" width="34.3807" height="1.1046" rx="0.552301" fill="#DEDEDE"/>
<rect x="141.78" y="27.095" width="34.3807" height="1.24268" rx="0.621338" fill="#DEDEDE"/>
<rect x="141.78" y="29.3042" width="34.3807" height="1.1046" rx="0.552301" fill="#DEDEDE"/>
<rect x="141.78" y="31.3755" width="34.3807" height="1.24268" rx="0.621338" fill="#DEDEDE"/>
<rect x="141.78" y="33.5847" width="34.3807" height="1.24268" rx="0.621338" fill="#DEDEDE"/>
<rect x="141.78" y="35.7937" width="34.3807" height="1.1046" rx="0.552301" fill="#DEDEDE"/>
<rect x="141.78" y="37.865" width="34.3807" height="1.24268" rx="0.621338" fill="#DEDEDE"/>
<rect x="141.78" y="40.0742" width="34.3807" height="1.1046" rx="0.552301" fill="#DEDEDE"/>
<rect x="141.78" y="42.1453" width="34.3807" height="1.24268" rx="0.621338" fill="#DEDEDE"/>
<mask id="mask2_603_347" style="mask-type:alpha" maskUnits="userSpaceOnUse" x="167" y="7" width="8" height="8">
<rect x="167.991" y="7.39233" width="6.88022" height="6.88022" fill="#D9D9D9"/>
</mask>
<g mask="url(#mask2_603_347)">
<path d="M170.356 13.4126L168.851 11.9076V9.75749L170.356 8.25244H172.506L174.011 9.75749V11.9076L172.506 13.4126H170.356ZM170.599 12.8393H172.262L173.437 11.6639V10.0012L172.262 8.82579H170.599L169.424 10.0012V11.6639L170.599 12.8393ZM170.614 12.0509L171.431 11.2339L172.248 12.0509L172.649 11.6496L171.832 10.8325L172.649 10.0155L172.248 9.61415L171.431 10.4312L170.614 9.61415L170.212 10.0155L171.029 10.8325L170.212 11.6496L170.614 12.0509Z" fill="#FF7272"/>
</g>
<rect x="165.901" y="47.0859" width="10.0975" height="1.39276" rx="0.696379" fill="#DEDEDE"/>
<rect x="165.901" y="49.4453" width="10.0975" height="1.39276" rx="0.696379" fill="#DEDEDE"/>
<rect x="165.901" y="51.8044" width="10.0975" height="1.39276" rx="0.696379" fill="#DEDEDE"/>
</svg>
