<svg width="252" height="275" viewBox="0 0 252 275" fill="none" xmlns="http://www.w3.org/2000/svg">
<g clip-path="url(#clip0_738_371)">
<path d="M15.7698 256.46H41.7898V271.84C41.7898 273.15 40.7298 274.21 39.4198 274.21H18.1298C16.8198 274.21 15.7598 273.15 15.7598 271.84V256.46H15.7698Z" fill="#858CA7"/>
<path d="M209.78 256.46H235.8V271.84C235.8 273.15 234.74 274.21 233.43 274.21H212.14C210.83 274.21 209.77 273.15 209.77 271.84V256.46H209.78Z" fill="#858CA7"/>
<path d="M243.68 0H7.89C3.53247 0 0 3.53247 0 7.89V256.3C0 260.658 3.53247 264.19 7.89 264.19H243.68C248.038 264.19 251.57 260.658 251.57 256.3V7.89C251.57 3.53247 248.038 0 243.68 0Z" fill="#B8BCCC"/>
<path d="M221.86 24.45H29.7098C26.1586 24.45 23.2798 27.3288 23.2798 30.8799V233.31C23.2798 236.861 26.1586 239.74 29.7098 239.74H221.86C225.411 239.74 228.29 236.861 228.29 233.31V30.8799C228.29 27.3288 225.411 24.45 221.86 24.45Z" fill="#858CA7"/>
<path d="M224.35 30.8799V233.32C224.35 234.69 223.24 235.8 221.87 235.8H29.7096C28.3396 235.8 27.2296 234.69 27.2296 233.32V30.8799C27.2296 29.5099 28.3396 28.3999 29.7096 28.3999L221.86 28.3999C223.23 28.3999 224.34 29.5099 224.34 30.8799H224.35Z" fill="#B8BCCC"/>
<path opacity="0.1" d="M224.35 30.87C224.35 30.1 223.99 29.42 223.44 28.97L27.2202 225.19V233.31C27.2202 234.68 28.3302 235.79 29.7002 235.79H62.7402L224.35 74.2V30.87Z" fill="white"/>
<path opacity="0.1" d="M27.2202 115.24L114.08 28.3899H63.8902L27.2202 65.0599V115.24Z" fill="white"/>
<path d="M83.2681 164.957C101.415 160.674 112.653 142.492 108.37 124.345C104.087 106.198 85.9047 94.9598 67.7581 99.2428C49.6116 103.526 38.3729 121.708 42.6559 139.855C46.9389 158.002 65.1216 169.24 83.2681 164.957Z" fill="#D5DCF2"/>
<path d="M75.5203 156.25C88.8635 156.25 99.6804 145.433 99.6804 132.09C99.6804 118.747 88.8635 107.93 75.5203 107.93C62.1771 107.93 51.3604 118.747 51.3604 132.09C51.3604 145.433 62.1771 156.25 75.5203 156.25Z" fill="#4A3A4F"/>
<path d="M78.8668 146.31C86.7146 144.457 91.5749 136.594 89.7226 128.746C87.8704 120.898 80.007 116.038 72.1593 117.89C64.3116 119.743 59.4512 127.606 61.3035 135.454C63.1557 143.301 71.0191 148.162 78.8668 146.31Z" fill="white"/>
<path d="M75.5205 111.95C75.0805 111.95 74.7305 111.6 74.7305 111.16V107.22C74.7305 106.78 75.0805 106.43 75.5205 106.43C75.9605 106.43 76.3105 106.78 76.3105 107.22V111.16C76.3105 111.6 75.9605 111.95 75.5205 111.95Z" fill="white"/>
<path d="M61.2704 117.76C60.9604 118.07 60.4604 118.07 60.1504 117.76L57.3604 114.97C57.0504 114.66 57.0504 114.16 57.3604 113.85C57.6704 113.54 58.1704 113.54 58.4804 113.85L61.2704 116.64C61.5804 116.95 61.5804 117.45 61.2704 117.76Z" fill="white"/>
<path d="M55.3003 131.95C55.3003 132.39 54.9503 132.74 54.5103 132.74H50.5703C50.1303 132.74 49.7803 132.39 49.7803 131.95C49.7803 131.51 50.1303 131.16 50.5703 131.16H54.5103C54.9503 131.16 55.3003 131.51 55.3003 131.95Z" fill="white"/>
<path d="M61.1103 146.2C61.4203 146.51 61.4203 147.01 61.1103 147.32L58.3203 150.11C58.0103 150.42 57.5103 150.42 57.2003 150.11C56.8903 149.8 56.8903 149.3 57.2003 148.99L59.9903 146.2C60.3003 145.89 60.8003 145.89 61.1103 146.2Z" fill="white"/>
<path d="M75.3003 152.17C75.7403 152.17 76.0902 152.52 76.0902 152.96V156.9C76.0902 157.34 75.7403 157.69 75.3003 157.69C74.8603 157.69 74.5103 157.34 74.5103 156.9V152.96C74.5103 152.52 74.8603 152.17 75.3003 152.17Z" fill="white"/>
<path d="M89.5499 146.36C89.8599 146.05 90.3599 146.05 90.6699 146.36L93.4599 149.15C93.7699 149.46 93.7699 149.96 93.4599 150.27C93.1499 150.58 92.6499 150.58 92.3399 150.27L89.5499 147.48C89.2399 147.17 89.2399 146.67 89.5499 146.36Z" fill="white"/>
<path d="M95.5205 132.17C95.5205 131.73 95.8705 131.38 96.3105 131.38H100.251C100.691 131.38 101.041 131.73 101.041 132.17C101.041 132.61 100.691 132.96 100.251 132.96H96.3105C95.8705 132.96 95.5205 132.61 95.5205 132.17Z" fill="white"/>
<path d="M89.71 117.92C89.4 117.61 89.4 117.11 89.71 116.8L92.5 114.01C92.81 113.7 93.31 113.7 93.62 114.01C93.93 114.32 93.93 114.82 93.62 115.13L90.83 117.92C90.52 118.23 90.02 118.23 89.71 117.92Z" fill="white"/>
<path d="M180.249 148.84C189.494 146.658 195.22 137.394 193.038 128.149C190.855 118.904 181.592 113.178 172.346 115.36C163.101 117.542 157.375 126.806 159.557 136.051C161.74 145.296 171.003 151.022 180.249 148.84Z" fill="#F1F4FF"/>
<path d="M183.717 140.35C187.813 136.254 187.813 129.612 183.717 125.515C179.62 121.419 172.978 121.419 168.881 125.515C164.785 129.612 164.785 136.254 168.881 140.35C172.978 144.447 179.62 144.447 183.717 140.35Z" fill="#9DA5C4"/>
<path d="M176.3 173.79C172.53 173.79 169.47 170.73 169.47 166.96V134.1C169.47 130.33 172.53 127.27 176.3 127.27C180.07 127.27 183.13 130.33 183.13 134.1V166.96C183.13 170.73 180.07 173.79 176.3 173.79Z" fill="white"/>
<path d="M23.2798 66.77H41.6798C45.7398 66.77 49.0398 70.07 49.0398 74.13C49.0398 78.2 45.7398 81.49 41.6798 81.49H23.2798V66.77Z" fill="#F1F4FF"/>
<path d="M31.6898 44.1599H23.2798V81.4899H31.6898V44.1599Z" fill="#D5DCF2"/>
<path d="M23.2798 182.7H41.6798C45.7398 182.7 49.0398 186 49.0398 190.06C49.0398 194.13 45.7398 197.42 41.6798 197.42H23.2798V182.7Z" fill="#F1F4FF"/>
<path d="M31.6898 182.7H23.2798V220.03H31.6898V182.7Z" fill="#D5DCF2"/>
</g>
<defs>
<clipPath id="clip0_738_371">
<rect width="251.57" height="274.21" fill="white"/>
</clipPath>
</defs>
</svg>
