<svg width="222" height="222" viewBox="0 0 222 222" fill="none" xmlns="http://www.w3.org/2000/svg">
<path d="M222 111C222 172.304 172.304 222 111 222C49.6964 222 0 172.304 0 111C0 49.6964 49.6964 0 111 0C172.304 0 222 49.6964 222 111ZM26.4779 111C26.4779 157.68 64.3197 195.522 111 195.522C157.68 195.522 195.522 157.68 195.522 111C195.522 64.3197 157.68 26.4779 111 26.4779C64.3197 26.4779 26.4779 64.3197 26.4779 111Z" fill="white" fill-opacity="0.4"/>
<path d="M111 13.2389C111 5.92727 116.948 -0.0814829 124.208 0.788529C141.484 2.85897 158.098 8.9713 172.668 18.7069C190.922 30.9037 205.149 48.2395 213.551 68.5221C221.952 88.8047 224.15 111.123 219.867 132.655C215.584 154.187 205.012 173.965 189.489 189.489C173.965 205.012 154.187 215.584 132.655 219.867C111.123 224.15 88.8047 221.952 68.5221 213.551C48.2395 205.149 30.9037 190.922 18.7069 172.668C8.9713 158.098 2.85896 141.484 0.788528 124.208C-0.0814833 116.948 5.92727 111 13.2389 111C20.5506 111 26.3719 116.963 27.5126 124.185C29.4124 136.215 33.8986 147.745 40.7224 157.958C50.0098 171.858 63.2104 182.691 78.6548 189.088C94.0992 195.486 111.094 197.159 127.489 193.898C143.885 190.637 158.946 182.587 170.766 170.766C182.587 158.946 190.637 143.885 193.898 127.489C197.159 111.094 195.486 94.0992 189.088 78.6548C182.691 63.2104 171.858 50.0098 157.958 40.7224C147.745 33.8986 136.215 29.4124 124.185 27.5126C116.963 26.3719 111 20.5506 111 13.2389Z" fill="white"/>
</svg>
