<?xml version="1.0" standalone="no"?>
<!DOCTYPE svg PUBLIC "-//W3C//DTD SVG 20010904//EN"
 "http://www.w3.org/TR/2001/REC-SVG-20010904/DTD/svg10.dtd">
<svg version="1.0" xmlns="http://www.w3.org/2000/svg"
 width="688.000000pt" height="688.000000pt" viewBox="0 0 688.000000 688.000000"
 preserveAspectRatio="xMidYMid meet">
<metadata>
Created by potrace 1.14, written by Peter Selinger 2001-2017
</metadata>
<g transform="translate(0.000000,688.000000) scale(0.100000,-0.100000)"
fill="#000000" stroke="none">
<path d="M2412 6577 c-5 -7 -40 -65 -78 -130 -38 -65 -82 -139 -97 -165 -15
-26 -32 -57 -37 -69 -5 -13 -14 -23 -20 -23 -5 0 -10 -5 -10 -11 0 -6 -56
-106 -125 -221 -69 -115 -125 -214 -125 -219 0 -5 -4 -9 -8 -9 -4 0 -18 -20
-30 -45 -26 -53 -36 -59 -162 -85 -143 -30 -140 -30 -210 -46 -36 -9 -74 -17
-85 -20 -11 -2 -72 -15 -135 -29 -63 -14 -126 -28 -139 -31 -12 -2 -51 -11
-85 -19 -33 -8 -72 -16 -86 -19 -21 -3 -94 -20 -188 -41 -21 -5 -22 -9 -17
-63 3 -31 8 -75 11 -97 2 -22 7 -67 9 -100 2 -33 6 -80 9 -105 5 -42 8 -75 21
-235 3 -33 8 -73 10 -90 2 -16 7 -68 11 -114 3 -47 8 -96 10 -110 1 -14 6 -62
9 -106 4 -44 9 -82 11 -84 3 -4 -70 -93 -116 -142 -14 -15 -34 -38 -45 -52
-18 -22 -81 -94 -155 -177 -14 -15 -45 -52 -70 -81 -25 -28 -56 -64 -70 -80
-14 -15 -45 -51 -70 -80 -42 -48 -73 -83 -119 -134 -11 -12 -36 -40 -55 -64
-35 -42 -36 -45 -19 -61 10 -10 38 -41 63 -71 25 -29 54 -63 65 -75 12 -12 39
-44 60 -69 22 -26 56 -64 75 -85 19 -21 44 -49 55 -63 22 -27 118 -136 240
-273 11 -12 40 -46 65 -75 25 -30 56 -65 69 -78 24 -25 27 -45 16 -141 -2 -19
-7 -66 -10 -105 -4 -38 -8 -83 -10 -100 -1 -16 -6 -66 -10 -110 -4 -44 -9 -91
-10 -105 -2 -14 -6 -56 -9 -95 -4 -38 -9 -92 -11 -120 -3 -27 -7 -72 -10 -100
-2 -27 -7 -72 -10 -100 -18 -176 -21 -167 45 -179 14 -2 68 -14 120 -26 52
-12 106 -24 120 -26 14 -3 43 -10 65 -15 22 -5 49 -11 60 -13 37 -7 259 -57
315 -71 30 -7 69 -16 85 -19 39 -6 71 -13 120 -25 22 -6 64 -15 93 -21 28 -7
52 -16 52 -21 0 -4 25 -49 55 -99 30 -50 55 -95 55 -100 0 -6 5 -10 10 -10 6
0 10 -5 10 -10 0 -6 12 -29 27 -53 15 -23 33 -51 39 -62 29 -53 55 -96 94
-160 24 -38 51 -83 60 -100 9 -16 54 -91 99 -167 44 -75 81 -139 81 -143 0 -3
8 -14 18 -25 17 -18 24 -16 272 91 140 60 257 110 260 110 3 1 30 13 60 26 30
14 66 30 80 35 14 6 37 17 52 24 14 8 30 14 36 14 5 0 36 12 68 27 33 15 61
28 64 28 8 1 103 44 120 53 13 8 51 -5 180 -60 14 -6 27 -12 30 -13 6 -2 75
-32 115 -50 17 -7 64 -27 105 -44 41 -18 84 -36 95 -41 79 -36 140 -60 151
-60 8 0 14 -4 14 -9 0 -5 10 -11 23 -15 13 -3 45 -15 73 -28 27 -12 52 -21 57
-20 4 1 7 -2 7 -6 0 -5 6 -9 13 -9 11 0 69 -24 141 -59 16 -8 30 -14 31 -14 4
0 85 130 85 136 0 2 23 41 50 87 59 96 46 74 157 260 48 82 96 161 105 175 10
15 25 44 35 65 10 20 21 37 25 37 5 0 8 7 8 15 0 8 5 15 10 15 6 0 10 4 10 10
0 20 92 159 108 164 20 5 416 93 452 100 14 3 66 14 115 26 50 11 101 23 115
26 14 2 52 11 85 18 33 8 96 22 140 31 44 10 97 22 119 27 l38 9 -6 47 c-8 60
-19 190 -20 220 0 12 -2 22 -5 22 -4 0 -6 21 -7 48 0 48 -12 188 -18 233 -3
13 -7 62 -11 109 -3 47 -8 99 -10 115 -3 17 -7 62 -10 100 -3 39 -8 97 -11
130 -2 33 -6 65 -9 72 -2 6 13 29 33 52 20 22 55 61 77 87 35 40 75 86 150
170 11 12 36 41 55 64 19 24 42 50 51 59 16 15 37 40 159 180 85 99 88 102
143 165 29 32 55 63 59 70 3 6 -12 31 -34 56 -22 25 -54 61 -72 80 -17 19 -80
91 -140 160 -60 69 -125 144 -145 166 -20 23 -61 70 -91 105 -30 34 -73 83
-96 108 -23 25 -50 56 -60 69 -10 13 -34 39 -51 59 -29 30 -36 43 -35 63 1 14
14 160 17 190 7 72 17 176 20 210 1 19 6 67 10 105 4 39 8 88 10 110 2 22 6
67 10 100 4 33 8 80 10 105 1 25 6 81 10 125 12 127 12 148 -5 150 -8 2 -35 8
-59 14 -23 7 -46 10 -49 7 -3 -3 -11 -1 -19 5 -7 6 -13 9 -13 5 0 -3 -11 -1
-26 4 -14 6 -39 12 -57 15 -31 6 -109 23 -299 66 -51 12 -101 23 -111 25 -10
2 -28 6 -39 10 -11 3 -30 7 -41 9 -28 4 -109 21 -280 60 -66 15 -78 22 -83 42
-4 12 -10 23 -15 23 -5 0 -9 4 -9 10 0 5 -53 99 -118 207 -65 109 -140 235
-168 281 -27 45 -53 90 -59 100 -5 10 -43 72 -82 139 -40 67 -73 124 -73 127
0 4 -8 15 -17 26 -17 18 -24 16 -218 -67 -110 -46 -224 -96 -253 -109 -29 -13
-56 -24 -60 -24 -4 0 -20 -7 -37 -16 -16 -9 -61 -28 -100 -44 -38 -15 -95 -39
-125 -52 -107 -48 -215 -93 -222 -93 -3 0 -9 -3 -13 -7 -4 -3 -23 2 -43 12
-35 18 -282 124 -292 126 -3 0 -18 6 -35 14 -31 13 -45 19 -158 70 -38 16 -71
30 -73 30 -5 0 -157 65 -259 110 -120 54 -164 68 -173 57z m2104 -2192 c61
-64 155 -160 208 -215 l97 -99 -846 -846 c-464 -465 -847 -845 -850 -845 -3 0
-243 238 -535 530 l-530 530 205 205 c112 113 209 205 215 205 6 0 68 -56 138
-124 70 -69 213 -208 317 -310 l190 -186 635 635 c349 349 637 635 640 635 3
0 55 -52 116 -115z"/>
</g>
</svg>
