<svg width="206" height="236" viewBox="0 0 206 236" fill="none" xmlns="http://www.w3.org/2000/svg">
<g clip-path="url(#clip0_738_403)">
<path d="M115.216 15.3181H90.7959V36.3697H115.216V15.3181Z" fill="#56F1B9"/>
<path d="M124.073 17.9449H81.9403C76.9881 17.9449 72.958 13.9291 72.958 8.96611C72.958 4.01577 76.9754 -0.0126953 81.9403 -0.0126953H124.073C129.025 -0.0126953 133.055 4.00314 133.055 8.96611C133.055 13.9165 129.038 17.9449 124.073 17.9449Z" fill="#27C189"/>
<path d="M187.367 58.9484L178.621 50.2063L171.073 57.7518L179.818 66.494L187.367 58.9484Z" fill="#17A672"/>
<path d="M189.589 63.0662L174.492 47.9752C172.711 46.1946 172.711 43.328 174.492 41.5474C176.274 39.7668 179.141 39.7668 180.923 41.5474L196.02 56.6383C197.801 58.4189 197.801 61.2856 196.02 63.0662C194.238 64.8468 191.37 64.8468 189.589 63.0662Z" fill="#27C189"/>
<path d="M26.189 66.5026L34.9346 57.7605L27.3861 50.2149L18.6405 58.9571L26.189 66.5026Z" fill="#27C189"/>
<path d="M16.4109 63.0662L31.5078 47.9752C33.2891 46.1946 33.2891 43.328 31.5078 41.5474C29.7265 39.7668 26.8587 39.7668 25.0774 41.5474L9.98051 56.6383C8.1992 58.4189 8.1992 61.2856 9.98051 63.0662C11.7618 64.8468 14.6296 64.8468 16.4109 63.0662Z" fill="#27C189"/>
<path d="M102.999 227.791C155.349 227.791 197.788 185.37 197.788 133.04C197.788 80.7108 155.349 38.2893 102.999 38.2893C50.6491 38.2893 8.21094 80.7108 8.21094 133.04C8.21094 185.37 50.6491 227.791 102.999 227.791Z" fill="white"/>
<path opacity="0.3" d="M103 38.2893V133.04L187.189 84.4714C187.189 84.4714 148.063 34.4503 103 38.2893Z" fill="#32DFA0"/>
<path opacity="0.22" d="M151.929 218.623L103 133.04H8.21138C8.21138 133.04 2.23579 254.122 151.929 218.623Z" fill="#47DAA4" fill-opacity="0.7"/>
<path d="M102.999 227.791C155.349 227.791 197.788 185.37 197.788 133.04C197.788 80.7108 155.349 38.2893 102.999 38.2893C50.6491 38.2893 8.21094 80.7108 8.21094 133.04C8.21094 185.37 50.6491 227.791 102.999 227.791Z" stroke="#E7EFFF" stroke-width="13" stroke-miterlimit="10"/>
<path d="M103 56.4744V72.2599" stroke="#17A672" stroke-width="3" stroke-miterlimit="10" stroke-linecap="round"/>
<path d="M64.708 66.7288L72.6039 80.4053" stroke="#17A672" stroke-width="3" stroke-miterlimit="10" stroke-linecap="round"/>
<path d="M36.6621 94.7512L50.3441 102.644" stroke="#17A672" stroke-width="3" stroke-miterlimit="10" stroke-linecap="round"/>
<path d="M26.4033 133.041H42.2077" stroke="#17A672" stroke-width="3" stroke-miterlimit="10" stroke-linecap="round"/>
<path d="M36.6621 171.317L50.3441 163.425" stroke="#17A672" stroke-width="3" stroke-miterlimit="10" stroke-linecap="round"/>
<path d="M64.708 199.352L72.6039 185.676" stroke="#17A672" stroke-width="3" stroke-miterlimit="10" stroke-linecap="round"/>
<path d="M103 209.607V193.809" stroke="#17A672" stroke-width="3" stroke-miterlimit="10" stroke-linecap="round"/>
<path d="M141.304 199.352L133.396 185.676" stroke="#17A672" stroke-width="3" stroke-miterlimit="10" stroke-linecap="round"/>
<path d="M169.337 171.317L155.655 163.425" stroke="#17A672" stroke-width="3" stroke-miterlimit="10" stroke-linecap="round"/>
<path d="M179.595 133.041H163.804" stroke="#17A672" stroke-width="3" stroke-miterlimit="10" stroke-linecap="round"/>
<path d="M169.337 94.7512L155.655 102.644" stroke="#17A672" stroke-width="3" stroke-miterlimit="10" stroke-linecap="round"/>
<path d="M141.304 66.7288L133.396 80.4053" stroke="#17A672" stroke-width="3" stroke-miterlimit="10" stroke-linecap="round"/>
<path d="M99.21 133.04L102.469 80.7083C102.482 80.4178 102.735 80.1905 103.038 80.2158C103.303 80.2284 103.518 80.4557 103.531 80.7083L106.79 133.04C106.916 135.137 105.325 136.93 103.24 137.069C101.143 137.195 99.3489 135.604 99.21 133.52C99.21 133.369 99.21 133.192 99.21 133.053V133.04Z" fill="#17A672"/>
<path d="M110.226 133.041C110.226 137.031 106.992 140.264 103 140.264C99.0076 140.264 95.7734 137.031 95.7734 133.041C95.7734 129.05 99.0076 125.817 103 125.817C106.992 125.817 110.226 129.05 110.226 133.041Z" fill="#17A672"/>
</g>
<defs>
<clipPath id="clip0_738_403">
<rect width="206" height="236" fill="white"/>
</clipPath>
</defs>
</svg>
