<svg width="560" height="217" viewBox="0 0 560 217" fill="none" xmlns="http://www.w3.org/2000/svg">
<rect y="11" width="251.562" height="167.987" rx="8.35756" fill="#363636"/>
<rect x="6.68652" y="17.686" width="238.19" height="133.721" rx="8.35756" fill="white"/>
<rect x="106.977" y="178.987" width="37.609" height="37.609" fill="#363636"/>
<g filter="url(#filter0_d_601_346)">
<rect width="80.7577" height="101.123" transform="translate(268.277 26.8794)" fill="white"/>
<rect x="268.277" y="26.8794" width="80.7577" height="88.8335" fill="white"/>
<rect x="268.277" y="26.8794" width="80.7577" height="101.123" fill="white"/>
<rect x="274.403" y="34.3979" width="44.6178" height="2.38696" rx="1.19348" fill="#DEDEDE"/>
<rect x="274.403" y="38.6213" width="44.6178" height="2.38696" rx="1.19348" fill="#DEDEDE"/>
<rect x="274.403" y="52.1602" width="69.3402" height="2.50627" rx="1.25314" fill="#DEDEDE"/>
<rect x="274.403" y="56.6157" width="69.3402" height="2.2278" rx="1.1139" fill="#DEDEDE"/>
<rect x="274.403" y="60.793" width="69.3402" height="2.50627" rx="1.25314" fill="#DEDEDE"/>
<rect x="274.403" y="65.2485" width="69.3402" height="2.2278" rx="1.1139" fill="#DEDEDE"/>
<rect x="274.403" y="69.4255" width="69.3402" height="2.50627" rx="1.25314" fill="#DEDEDE"/>
<rect x="274.403" y="73.8811" width="69.3402" height="2.2278" rx="1.1139" fill="#DEDEDE"/>
<rect x="274.403" y="78.0583" width="69.3402" height="2.50627" rx="1.25314" fill="#DEDEDE"/>
<rect x="274.403" y="82.5139" width="69.3402" height="2.50627" rx="1.25314" fill="#DEDEDE"/>
<rect x="274.403" y="86.9695" width="69.3402" height="2.2278" rx="1.1139" fill="#DEDEDE"/>
<rect x="274.403" y="91.1467" width="69.3402" height="2.50627" rx="1.25314" fill="#DEDEDE"/>
<rect x="274.403" y="95.6023" width="69.3402" height="2.2278" rx="1.1139" fill="#DEDEDE"/>
<rect x="274.403" y="99.7793" width="69.3402" height="2.50627" rx="1.25314" fill="#DEDEDE"/>
<mask id="mask0_601_346" style="mask-type:alpha" maskUnits="userSpaceOnUse" x="327" y="29" width="15" height="15">
<rect x="327.313" y="29.9429" width="13.8763" height="13.8763" fill="#D9D9D9"/>
</mask>
<g mask="url(#mask0_601_346)">
<path d="M333.442 39.5408L337.518 35.4646L336.709 34.6552L333.442 37.9219L331.794 36.2741L330.985 37.0835L333.442 39.5408ZM334.252 42.6629C333.452 42.6629 332.7 42.5112 331.997 42.2076C331.293 41.9041 330.681 41.4921 330.161 40.9718C329.641 40.4514 329.229 39.8395 328.925 39.136C328.621 38.4326 328.47 37.681 328.47 36.8812C328.47 36.0813 328.621 35.3297 328.925 34.6263C329.229 33.9228 329.641 33.3109 330.161 32.7905C330.681 32.2702 331.293 31.8582 331.997 31.5547C332.7 31.2511 333.452 31.0994 334.252 31.0994C335.051 31.0994 335.803 31.2511 336.506 31.5547C337.21 31.8582 337.822 32.2702 338.342 32.7905C338.862 33.3109 339.274 33.9228 339.578 34.6263C339.882 35.3297 340.033 36.0813 340.033 36.8812C340.033 37.681 339.882 38.4326 339.578 39.136C339.274 39.8395 338.862 40.4514 338.342 40.9718C337.822 41.4921 337.21 41.9041 336.506 42.2076C335.803 42.5112 335.051 42.6629 334.252 42.6629ZM334.252 41.5066C335.543 41.5066 336.636 41.0585 337.533 40.1623C338.429 39.2661 338.877 38.1724 338.877 36.8812C338.877 35.5899 338.429 34.4962 337.533 33.6C336.636 32.7038 335.543 32.2557 334.252 32.2557C332.96 32.2557 331.867 32.7038 330.97 33.6C330.074 34.4962 329.626 35.5899 329.626 36.8812C329.626 38.1724 330.074 39.2661 330.97 40.1623C331.867 41.0585 332.96 41.5066 334.252 41.5066Z" fill="#17A672"/>
</g>
<rect x="323.052" y="109.744" width="20.365" height="2.80896" rx="1.40448" fill="#DEDEDE"/>
<rect x="323.052" y="114.502" width="20.365" height="2.80896" rx="1.40448" fill="#DEDEDE"/>
<rect x="323.052" y="119.26" width="20.365" height="2.80896" rx="1.40448" fill="#DEDEDE"/>
</g>
<g filter="url(#filter1_d_601_346)">
<rect width="80.7577" height="101.123" transform="translate(356.76 26.8794)" fill="white"/>
<rect x="356.76" y="26.8794" width="80.7577" height="88.8335" fill="white"/>
<rect x="356.76" y="26.8794" width="80.7577" height="101.123" fill="white"/>
<rect x="362.886" y="34.3979" width="44.6178" height="2.38696" rx="1.19348" fill="#DEDEDE"/>
<rect x="362.886" y="38.6213" width="44.6178" height="2.38696" rx="1.19348" fill="#DEDEDE"/>
<rect x="362.886" y="52.1602" width="69.3402" height="2.50627" rx="1.25314" fill="#DEDEDE"/>
<rect x="362.886" y="56.6157" width="69.3402" height="2.2278" rx="1.1139" fill="#DEDEDE"/>
<rect x="362.886" y="60.793" width="69.3402" height="2.50627" rx="1.25314" fill="#DEDEDE"/>
<rect x="362.886" y="65.2485" width="69.3402" height="2.2278" rx="1.1139" fill="#DEDEDE"/>
<rect x="362.886" y="69.4255" width="69.3402" height="2.50627" rx="1.25314" fill="#DEDEDE"/>
<rect x="362.886" y="73.8811" width="69.3402" height="2.2278" rx="1.1139" fill="#DEDEDE"/>
<rect x="362.886" y="78.0583" width="69.3402" height="2.50627" rx="1.25314" fill="#DEDEDE"/>
<rect x="362.886" y="82.5139" width="69.3402" height="2.50627" rx="1.25314" fill="#DEDEDE"/>
<rect x="362.886" y="86.9695" width="69.3402" height="2.2278" rx="1.1139" fill="#DEDEDE"/>
<rect x="362.886" y="91.1467" width="69.3402" height="2.50627" rx="1.25314" fill="#DEDEDE"/>
<rect x="362.886" y="95.6023" width="69.3402" height="2.2278" rx="1.1139" fill="#DEDEDE"/>
<rect x="362.886" y="99.7793" width="69.3402" height="2.50627" rx="1.25314" fill="#DEDEDE"/>
<mask id="mask1_601_346" style="mask-type:alpha" maskUnits="userSpaceOnUse" x="415" y="29" width="15" height="15">
<rect x="415.796" y="29.9429" width="13.8763" height="13.8763" fill="#D9D9D9"/>
</mask>
<g mask="url(#mask1_601_346)">
<path d="M421.924 39.5408L426.001 35.4646L425.191 34.6552L421.924 37.9219L420.277 36.2741L419.467 37.0835L421.924 39.5408ZM422.734 42.6629C421.934 42.6629 421.182 42.5112 420.479 42.2076C419.776 41.9041 419.164 41.4921 418.643 40.9718C418.123 40.4514 417.711 39.8395 417.407 39.136C417.104 38.4326 416.952 37.681 416.952 36.8812C416.952 36.0813 417.104 35.3297 417.407 34.6263C417.711 33.9228 418.123 33.3109 418.643 32.7905C419.164 32.2702 419.776 31.8582 420.479 31.5547C421.182 31.2511 421.934 31.0994 422.734 31.0994C423.534 31.0994 424.285 31.2511 424.989 31.5547C425.692 31.8582 426.304 32.2702 426.825 32.7905C427.345 33.3109 427.757 33.9228 428.06 34.6263C428.364 35.3297 428.516 36.0813 428.516 36.8812C428.516 37.681 428.364 38.4326 428.06 39.136C427.757 39.8395 427.345 40.4514 426.825 40.9718C426.304 41.4921 425.692 41.9041 424.989 42.2076C424.285 42.5112 423.534 42.6629 422.734 42.6629ZM422.734 41.5066C424.025 41.5066 425.119 41.0585 426.015 40.1623C426.911 39.2661 427.359 38.1724 427.359 36.8812C427.359 35.5899 426.911 34.4962 426.015 33.6C425.119 32.7038 424.025 32.2557 422.734 32.2557C421.443 32.2557 420.349 32.7038 419.453 33.6C418.557 34.4962 418.109 35.5899 418.109 36.8812C418.109 38.1724 418.557 39.2661 419.453 40.1623C420.349 41.0585 421.443 41.5066 422.734 41.5066Z" fill="#17A672"/>
</g>
<rect x="411.534" y="109.744" width="20.365" height="2.80896" rx="1.40448" fill="#DEDEDE"/>
<rect x="411.534" y="114.502" width="20.365" height="2.80896" rx="1.40448" fill="#DEDEDE"/>
<rect x="411.534" y="119.26" width="20.365" height="2.80896" rx="1.40448" fill="#DEDEDE"/>
</g>
<g filter="url(#filter2_d_601_346)">
<rect width="80.7577" height="101.123" transform="translate(445.242 26.8794)" fill="white"/>
<rect x="445.242" y="26.8794" width="80.7577" height="88.8335" fill="white"/>
<rect x="445.242" y="26.8794" width="80.7577" height="101.123" fill="white"/>
<rect x="451.368" y="34.3979" width="44.6178" height="2.38696" rx="1.19348" fill="#DEDEDE"/>
<rect x="451.368" y="38.6213" width="44.6178" height="2.38696" rx="1.19348" fill="#DEDEDE"/>
<rect x="451.368" y="52.1602" width="69.3402" height="2.50627" rx="1.25314" fill="#DEDEDE"/>
<rect x="451.368" y="56.6157" width="69.3402" height="2.2278" rx="1.1139" fill="#DEDEDE"/>
<rect x="451.368" y="60.793" width="69.3402" height="2.50627" rx="1.25314" fill="#DEDEDE"/>
<rect x="451.368" y="65.2485" width="69.3402" height="2.2278" rx="1.1139" fill="#DEDEDE"/>
<rect x="451.368" y="69.4255" width="69.3402" height="2.50627" rx="1.25314" fill="#DEDEDE"/>
<rect x="451.368" y="73.8811" width="69.3402" height="2.2278" rx="1.1139" fill="#DEDEDE"/>
<rect x="451.368" y="78.0583" width="69.3402" height="2.50627" rx="1.25314" fill="#DEDEDE"/>
<rect x="451.368" y="82.5139" width="69.3402" height="2.50627" rx="1.25314" fill="#DEDEDE"/>
<rect x="451.368" y="86.9695" width="69.3402" height="2.2278" rx="1.1139" fill="#DEDEDE"/>
<rect x="451.368" y="91.1467" width="69.3402" height="2.50627" rx="1.25314" fill="#DEDEDE"/>
<rect x="451.368" y="95.6023" width="69.3402" height="2.2278" rx="1.1139" fill="#DEDEDE"/>
<rect x="451.368" y="99.7793" width="69.3402" height="2.50627" rx="1.25314" fill="#DEDEDE"/>
<mask id="mask2_601_346" style="mask-type:alpha" maskUnits="userSpaceOnUse" x="504" y="29" width="15" height="15">
<rect x="504.23" y="29.6882" width="13.8763" height="13.8763" fill="#D9D9D9"/>
</mask>
<g mask="url(#mask2_601_346)">
<path d="M509 41.8301L505.965 38.7946V34.4583L509 31.4229H513.337L516.372 34.4583V38.7946L513.337 41.8301H509ZM509.492 40.6737H512.845L515.216 38.3032V34.9497L512.845 32.5792H509.492L507.121 34.9497V38.3032L509.492 40.6737ZM509.521 39.0837L511.168 37.4359L512.816 39.0837L513.626 38.2743L511.978 36.6265L513.626 34.9786L512.816 34.1692L511.168 35.817L509.521 34.1692L508.711 34.9786L510.359 36.6265L508.711 38.2743L509.521 39.0837Z" fill="#FF7272"/>
</g>
<rect x="500.018" y="109.744" width="20.365" height="2.80896" rx="1.40448" fill="#DEDEDE"/>
<rect x="500.018" y="114.502" width="20.365" height="2.80896" rx="1.40448" fill="#DEDEDE"/>
<rect x="500.018" y="119.26" width="20.365" height="2.80896" rx="1.40448" fill="#DEDEDE"/>
</g>
<defs>
<filter id="filter0_d_601_346" x="234.277" y="0.879395" width="148.758" height="169.123" filterUnits="userSpaceOnUse" color-interpolation-filters="sRGB">
<feFlood flood-opacity="0" result="BackgroundImageFix"/>
<feColorMatrix in="SourceAlpha" type="matrix" values="0 0 0 0 0 0 0 0 0 0 0 0 0 0 0 0 0 0 127 0" result="hardAlpha"/>
<feOffset dy="8"/>
<feGaussianBlur stdDeviation="17"/>
<feComposite in2="hardAlpha" operator="out"/>
<feColorMatrix type="matrix" values="0 0 0 0 0 0 0 0 0 0 0 0 0 0 0 0 0 0 0.08 0"/>
<feBlend mode="normal" in2="BackgroundImageFix" result="effect1_dropShadow_601_346"/>
<feBlend mode="normal" in="SourceGraphic" in2="effect1_dropShadow_601_346" result="shape"/>
</filter>
<filter id="filter1_d_601_346" x="322.76" y="0.879395" width="148.758" height="169.123" filterUnits="userSpaceOnUse" color-interpolation-filters="sRGB">
<feFlood flood-opacity="0" result="BackgroundImageFix"/>
<feColorMatrix in="SourceAlpha" type="matrix" values="0 0 0 0 0 0 0 0 0 0 0 0 0 0 0 0 0 0 127 0" result="hardAlpha"/>
<feOffset dy="8"/>
<feGaussianBlur stdDeviation="17"/>
<feComposite in2="hardAlpha" operator="out"/>
<feColorMatrix type="matrix" values="0 0 0 0 0 0 0 0 0 0 0 0 0 0 0 0 0 0 0.08 0"/>
<feBlend mode="normal" in2="BackgroundImageFix" result="effect1_dropShadow_601_346"/>
<feBlend mode="normal" in="SourceGraphic" in2="effect1_dropShadow_601_346" result="shape"/>
</filter>
<filter id="filter2_d_601_346" x="411.242" y="0.879395" width="148.758" height="169.123" filterUnits="userSpaceOnUse" color-interpolation-filters="sRGB">
<feFlood flood-opacity="0" result="BackgroundImageFix"/>
<feColorMatrix in="SourceAlpha" type="matrix" values="0 0 0 0 0 0 0 0 0 0 0 0 0 0 0 0 0 0 127 0" result="hardAlpha"/>
<feOffset dy="8"/>
<feGaussianBlur stdDeviation="17"/>
<feComposite in2="hardAlpha" operator="out"/>
<feColorMatrix type="matrix" values="0 0 0 0 0 0 0 0 0 0 0 0 0 0 0 0 0 0 0.08 0"/>
<feBlend mode="normal" in2="BackgroundImageFix" result="effect1_dropShadow_601_346"/>
<feBlend mode="normal" in="SourceGraphic" in2="effect1_dropShadow_601_346" result="shape"/>
</filter>
</defs>
</svg>
