<svg width="243" height="201" viewBox="0 0 243 201" fill="none" xmlns="http://www.w3.org/2000/svg">
<g clip-path="url(#clip0_834_3437)">
<path d="M0 71.1872V8.3749C0 3.749 3.75094 0 8.37922 0H67.035C71.6633 0 75.4143 3.749 75.4143 8.3749V12.563C75.4143 17.1889 79.1652 20.9379 83.7935 20.9379H230.432C237.373 20.9379 243.001 26.562 243.001 33.5008V71.1885H0V71.1872Z" fill="#19B87E"/>
<path d="M243 33.5007V71.1872H218.368V36.2327C218.368 29.1713 213.063 23.2345 206.043 22.4476C201.333 21.9197 195.064 21.3743 186.888 20.9365H230.432C237.373 20.9365 243 26.5619 243 33.4995V33.5007Z" fill="#0DA56D"/>
<path d="M25.1377 66.2347V46.0624C25.1377 41.4365 28.8886 37.6875 33.5169 37.6875H209.483C214.111 37.6875 217.862 41.4365 217.862 46.0624V66.2347H25.1377Z" fill="white"/>
<path d="M230.431 58.6255H12.5695C5.62754 58.6255 0 64.2501 0 71.1885V188.437C0 195.375 5.62754 201 12.5695 201H230.431C237.372 201 243 195.375 243 188.437V71.1885C243 64.2501 237.372 58.6255 230.431 58.6255Z" fill="#19B87E"/>
<path d="M88.1338 77.4131H24.5192C22.5956 77.4131 21.0361 78.9717 21.0361 80.8944V105.081C21.0361 107.004 22.5956 108.562 24.5192 108.562H88.1338C90.0574 108.562 91.6169 107.004 91.6169 105.081V80.8944C91.6169 78.9717 90.0574 77.4131 88.1338 77.4131Z" fill="white"/>
<path d="M82.4523 89.323H30.9367C30.4298 89.323 30.0205 88.9127 30.0205 88.4074C30.0205 87.902 30.431 87.4917 30.9367 87.4917H82.4523C82.9592 87.4917 83.3684 87.902 83.3684 88.4074C83.3684 88.9127 82.9579 89.323 82.4523 89.323Z" fill="#383838"/>
<path d="M67.9692 99.7669H30.9367C30.4298 99.7669 30.0205 99.3566 30.0205 98.8512C30.0205 98.3458 30.431 97.9355 30.9367 97.9355H67.9692C68.4761 97.9355 68.8853 98.3458 68.8853 98.8512C68.8853 99.3566 68.4748 99.7669 67.9692 99.7669Z" fill="#383838"/>
<path d="M243 71.1874V188.437C243 195.375 237.373 201 230.432 201H12.5684C89.1241 201 149.294 192.553 183.329 186.304C201.259 183.012 214.275 167.383 214.275 149.161V73.5667C214.275 67.1945 209.837 61.6704 203.606 60.3194C201.094 59.7753 198.098 59.1974 194.577 58.627H230.432C237.373 58.627 243 64.2511 243 71.1887V71.1874Z" fill="#0DA56D"/>
</g>
<defs>
<clipPath id="clip0_834_3437">
<rect width="243" height="201" fill="white"/>
</clipPath>
</defs>
</svg>
