<svg width="534" height="421" viewBox="0 0 534 421" fill="none" xmlns="http://www.w3.org/2000/svg">
<g clip-path="url(#clip0_834_3414)">
<rect x="277.822" y="138" width="262.742" height="289.017" rx="18.1202" transform="rotate(12.8345 277.822 138)" fill="white"/>
<rect width="183.92" height="249.679" transform="translate(329.023 163.572) rotate(14.4072)" fill="white"/>
<rect x="364.817" y="172.767" width="110.007" height="109.585" rx="54.7927" transform="rotate(14.4072 364.817 172.767)" fill="#E8E8E8"/>
<g clip-path="url(#clip1_834_3414)">
<rect x="193.869" y="246.172" width="404.623" height="113.8" rx="12.6445" transform="rotate(14.4072 193.869 246.172)" fill="white"/>
<rect x="331.187" y="288.678" width="93.0386" height="12.1355" rx="6.06774" transform="rotate(14.4072 331.187 288.678)" fill="#EBEBEB"/>
<path d="M427.571 330.794L426.589 327.161L423.387 325.494L424.66 321.913L423.056 318.543L426.086 316.364L426.697 312.612L430.305 312.694L432.917 309.985L435.764 312.248L439.349 311.638L440.331 315.27L443.533 316.937L442.26 320.519L443.864 323.888L440.834 326.068L440.223 329.819L436.615 329.737L434.003 332.446L431.156 330.183L427.571 330.794ZM431.563 324.478L438.345 320.252L437.39 318.476L432.289 321.654L430.79 319.051L429.109 320.098L431.563 324.478Z" fill="#9FE870"/>
<rect x="305.826" y="321.308" width="44.066" height="14.3222" rx="7.16112" transform="rotate(14.4072 305.826 321.308)" fill="#697082"/>
<path d="M310.395 331.941L311.616 327.191L314.594 327.956L314.435 328.573L312.174 327.992L311.802 329.439L313.908 329.98L313.75 330.595L311.644 330.054L311.27 331.508L313.56 332.096L313.401 332.713L310.395 331.941ZM315.512 331L314.969 333.116L314.275 332.938L315.19 329.375L315.856 329.546L315.707 330.126L315.751 330.137C315.882 329.97 316.049 329.851 316.253 329.781C316.459 329.712 316.695 329.712 316.963 329.781C317.206 329.843 317.405 329.949 317.561 330.098C317.718 330.245 317.821 330.432 317.87 330.657C317.919 330.882 317.906 331.142 317.831 331.435L317.249 333.702L316.555 333.523L317.116 331.341C317.182 331.083 317.167 330.863 317.07 330.684C316.973 330.502 316.807 330.381 316.572 330.321C316.411 330.279 316.259 330.278 316.116 330.315C315.974 330.353 315.85 330.43 315.743 330.545C315.637 330.66 315.561 330.812 315.512 331ZM319.696 334.407C319.345 334.317 319.062 334.164 318.847 333.949C318.634 333.733 318.493 333.47 318.426 333.161C318.361 332.851 318.375 332.511 318.47 332.141C318.564 331.776 318.715 331.472 318.922 331.229C319.132 330.986 319.379 330.818 319.665 330.725C319.953 330.632 320.262 330.628 320.593 330.713C320.794 330.765 320.98 330.848 321.152 330.963C321.323 331.078 321.466 331.226 321.579 331.407C321.693 331.588 321.763 331.803 321.792 332.052C321.82 332.3 321.793 332.586 321.71 332.909L321.647 333.155L318.815 332.427L318.948 331.908L321.101 332.461C321.148 332.278 321.152 332.107 321.114 331.948C321.076 331.786 321.001 331.647 320.887 331.531C320.775 331.415 320.63 331.334 320.45 331.287C320.255 331.237 320.073 331.242 319.903 331.3C319.735 331.358 319.592 331.453 319.474 331.585C319.357 331.717 319.276 331.872 319.231 332.05L319.126 332.456C319.065 332.694 319.055 332.907 319.096 333.096C319.138 333.284 319.223 333.442 319.352 333.569C319.481 333.695 319.647 333.784 319.85 333.836C319.981 333.87 320.106 333.882 320.224 333.872C320.342 333.862 320.45 333.828 320.549 333.773C320.647 333.717 320.731 333.639 320.802 333.539L321.428 333.826C321.325 334.005 321.188 334.15 321.014 334.261C320.843 334.37 320.645 334.439 320.42 334.467C320.197 334.494 319.956 334.474 319.696 334.407ZM322.012 334.925L322.928 331.363L323.598 331.535L323.452 332.101L323.49 332.11C323.604 331.935 323.757 331.814 323.949 331.746C324.143 331.677 324.345 331.67 324.553 331.723C324.597 331.734 324.647 331.749 324.705 331.767C324.765 331.786 324.811 331.802 324.844 331.815L324.673 332.479C324.647 332.464 324.6 332.443 324.531 332.415C324.463 332.386 324.393 332.362 324.322 332.344C324.158 332.302 324.003 332.299 323.857 332.336C323.713 332.371 323.588 332.44 323.482 332.544C323.377 332.645 323.304 332.773 323.265 332.928L322.706 335.103L322.012 334.925ZM325.523 337.33C325.24 337.258 325.006 337.158 324.821 337.031C324.637 336.905 324.497 336.764 324.4 336.609C324.303 336.454 324.242 336.296 324.216 336.134L324.875 336.041C324.899 336.12 324.936 336.206 324.987 336.3C325.038 336.396 325.117 336.486 325.224 336.571C325.332 336.657 325.482 336.724 325.674 336.773C325.936 336.841 326.17 336.832 326.375 336.748C326.579 336.665 326.717 336.485 326.788 336.207L326.968 335.506L326.924 335.495C326.863 335.56 326.781 335.629 326.678 335.701C326.577 335.774 326.45 335.827 326.296 335.86C326.143 335.893 325.957 335.882 325.739 335.826C325.457 335.753 325.221 335.623 325.029 335.433C324.839 335.243 324.711 335.001 324.646 334.709C324.583 334.416 324.6 334.08 324.697 333.701C324.795 333.322 324.942 333.014 325.14 332.777C325.339 332.539 325.571 332.378 325.833 332.292C326.096 332.205 326.371 332.198 326.657 332.271C326.878 332.328 327.047 332.411 327.164 332.52C327.282 332.628 327.366 332.74 327.416 332.857C327.469 332.974 327.506 333.075 327.529 333.16L327.58 333.173L327.728 332.596L328.408 332.77L327.472 336.412C327.394 336.718 327.258 336.951 327.065 337.111C326.873 337.271 326.643 337.367 326.376 337.399C326.11 337.431 325.826 337.408 325.523 337.33ZM326.04 335.29C326.239 335.341 326.42 335.338 326.581 335.281C326.745 335.222 326.884 335.114 327 334.958C327.118 334.8 327.209 334.599 327.272 334.353C327.334 334.113 327.352 333.893 327.328 333.692C327.304 333.491 327.236 333.322 327.124 333.185C327.013 333.046 326.857 332.951 326.654 332.898C326.445 332.845 326.257 332.854 326.091 332.927C325.924 332.998 325.781 333.116 325.663 333.282C325.546 333.448 325.459 333.645 325.4 333.872C325.34 334.105 325.323 334.319 325.349 334.514C325.375 334.709 325.445 334.873 325.558 335.008C325.674 335.143 325.834 335.237 326.04 335.29ZM329.94 337.038C329.589 336.948 329.306 336.796 329.091 336.58C328.878 336.364 328.737 336.102 328.67 335.792C328.605 335.482 328.619 335.142 328.714 334.773C328.808 334.408 328.959 334.104 329.166 333.86C329.375 333.617 329.623 333.449 329.909 333.356C330.197 333.264 330.506 333.26 330.837 333.345C331.038 333.397 331.224 333.48 331.396 333.595C331.567 333.71 331.71 333.858 331.823 334.038C331.937 334.219 332.007 334.434 332.036 334.684C332.064 334.932 332.037 335.218 331.954 335.541L331.891 335.787L329.059 335.059L329.192 334.539L331.345 335.092C331.392 334.91 331.396 334.739 331.358 334.579C331.32 334.418 331.245 334.279 331.131 334.162C331.019 334.046 330.874 333.965 330.694 333.919C330.499 333.869 330.317 333.873 330.147 333.932C329.979 333.989 329.836 334.084 329.718 334.217C329.601 334.349 329.52 334.503 329.475 334.681L329.37 335.087C329.309 335.325 329.299 335.539 329.34 335.727C329.382 335.916 329.467 336.074 329.596 336.201C329.725 336.326 329.891 336.415 330.094 336.467C330.225 336.501 330.35 336.513 330.468 336.504C330.586 336.493 330.694 336.46 330.792 336.404C330.891 336.349 330.975 336.271 331.046 336.17L331.672 336.457C331.569 336.637 331.431 336.782 331.258 336.892C331.087 337.002 330.888 337.07 330.664 337.098C330.441 337.125 330.2 337.105 329.94 337.038ZM334.835 334.421L334.692 334.978L332.746 334.478L332.889 333.921L334.835 334.421ZM333.63 333.202L334.323 333.38L333.457 336.75C333.423 336.885 333.417 336.991 333.44 337.07C333.463 337.146 333.503 337.205 333.56 337.246C333.619 337.286 333.686 337.316 333.762 337.335C333.818 337.35 333.867 337.358 333.911 337.361C333.955 337.364 333.989 337.367 334.013 337.368L333.991 337.973C333.947 337.978 333.886 337.979 333.808 337.975C333.729 337.973 333.634 337.959 333.522 337.932C333.339 337.888 333.177 337.812 333.037 337.703C332.897 337.595 332.796 337.457 332.735 337.289C332.675 337.122 332.672 336.931 332.727 336.716L333.63 333.202ZM334.687 338.181L335.602 334.618L336.295 334.797L335.38 338.359L334.687 338.181ZM336.093 334.159C335.973 334.128 335.879 334.061 335.813 333.958C335.749 333.854 335.732 333.746 335.761 333.633C335.79 333.519 335.858 333.432 335.964 333.374C336.071 333.314 336.185 333.3 336.306 333.331C336.427 333.362 336.519 333.429 336.583 333.533C336.649 333.635 336.667 333.744 336.638 333.858C336.609 333.971 336.54 334.058 336.433 334.117C336.327 334.176 336.214 334.19 336.093 334.159ZM337.795 339.056C337.45 338.968 337.174 338.813 336.965 338.593C336.758 338.372 336.624 338.106 336.562 337.795C336.5 337.484 336.515 337.15 336.606 336.793C336.699 336.431 336.849 336.129 337.057 335.887C337.264 335.644 337.512 335.476 337.799 335.383C338.087 335.291 338.398 335.287 338.734 335.374C339.005 335.443 339.233 335.555 339.419 335.71C339.605 335.864 339.74 336.047 339.824 336.259C339.91 336.473 339.934 336.702 339.897 336.948L339.222 336.775C339.228 336.598 339.18 336.433 339.078 336.278C338.977 336.124 338.817 336.018 338.595 335.961C338.402 335.911 338.22 335.919 338.048 335.984C337.878 336.047 337.729 336.162 337.601 336.329C337.473 336.494 337.376 336.703 337.311 336.956C337.244 337.216 337.226 337.451 337.257 337.66C337.287 337.868 337.361 338.043 337.478 338.184C337.597 338.325 337.754 338.42 337.951 338.471C338.082 338.505 338.207 338.511 338.326 338.491C338.447 338.469 338.556 338.422 338.652 338.349C338.75 338.277 338.83 338.181 338.892 338.06L339.567 338.233C339.483 338.457 339.355 338.644 339.183 338.792C339.012 338.941 338.807 339.04 338.57 339.09C338.335 339.14 338.077 339.129 337.795 339.056Z" fill="#697082"/>
<rect x="305.826" y="321.308" width="44.066" height="14.3222" rx="7.16112" transform="rotate(14.4072 305.826 321.308)" stroke="#D1D4DB" stroke-width="0.421483"/>
<rect x="353.813" y="333.636" width="53.066" height="14.3222" rx="7.16112" transform="rotate(14.4072 353.813 333.636)" fill="#697082"/>
<path d="M359.21 340.075L359.369 339.458L363.045 340.403L362.886 341.02L361.404 340.639L360.342 344.772L359.628 344.589L360.69 340.455L359.21 340.075ZM363.582 345.681C363.231 345.591 362.948 345.438 362.733 345.223C362.519 345.007 362.379 344.744 362.312 344.435C362.247 344.125 362.261 343.785 362.356 343.415C362.45 343.05 362.601 342.746 362.808 342.503C363.017 342.26 363.265 342.092 363.551 341.999C363.838 341.906 364.148 341.902 364.479 341.987C364.68 342.039 364.866 342.122 365.038 342.237C365.209 342.352 365.352 342.5 365.465 342.681C365.578 342.862 365.649 343.077 365.678 343.326C365.706 343.574 365.679 343.86 365.596 344.183L365.533 344.429L362.701 343.702L362.834 343.182L364.987 343.735C365.033 343.552 365.038 343.381 365 343.222C364.962 343.06 364.887 342.921 364.773 342.805C364.661 342.689 364.515 342.608 364.336 342.561C364.141 342.511 363.959 342.516 363.789 342.574C363.621 342.632 363.478 342.727 363.36 342.86C363.243 342.991 363.162 343.146 363.117 343.324L363.012 343.73C362.951 343.968 362.941 344.181 362.981 344.37C363.024 344.558 363.109 344.716 363.238 344.843C363.367 344.969 363.533 345.058 363.736 345.11C363.867 345.144 363.992 345.156 364.11 345.146C364.228 345.136 364.336 345.102 364.434 345.047C364.533 344.991 364.617 344.913 364.687 344.813L365.313 345.1C365.211 345.279 365.073 345.425 364.9 345.535C364.729 345.644 364.53 345.713 364.306 345.741C364.083 345.768 363.842 345.748 363.582 345.681ZM366.915 346.545C366.689 346.487 366.496 346.392 366.335 346.262C366.174 346.13 366.061 345.97 365.996 345.782C365.932 345.594 365.93 345.383 365.99 345.15C366.041 344.949 366.123 344.793 366.233 344.683C366.344 344.573 366.475 344.497 366.626 344.455C366.777 344.413 366.938 344.394 367.11 344.397C367.283 344.4 367.456 344.413 367.629 344.436C367.849 344.466 368.028 344.491 368.165 344.509C368.302 344.526 368.405 344.524 368.475 344.503C368.545 344.481 368.591 344.428 368.612 344.345L368.616 344.329C368.668 344.126 368.652 343.954 368.566 343.814C368.481 343.673 368.327 343.574 368.103 343.517C367.87 343.457 367.672 343.461 367.511 343.53C367.352 343.598 367.231 343.688 367.147 343.8L366.534 343.485C366.667 343.288 366.824 343.142 367.007 343.047C367.192 342.951 367.389 342.898 367.599 342.888C367.81 342.876 368.023 342.898 368.238 342.953C368.38 342.99 368.527 343.045 368.677 343.12C368.83 343.194 368.964 343.293 369.081 343.417C369.199 343.541 369.282 343.697 369.329 343.884C369.377 344.069 369.368 344.292 369.301 344.551L368.693 346.917L368.016 346.743L368.141 346.256L368.113 346.249C368.045 346.327 367.955 346.398 367.843 346.462C367.732 346.525 367.598 346.568 367.442 346.589C367.287 346.61 367.111 346.595 366.915 346.545ZM367.209 346.027C367.4 346.076 367.574 346.08 367.729 346.039C367.887 345.999 368.016 345.927 368.119 345.823C368.223 345.718 368.294 345.595 368.33 345.454L368.448 344.995C368.417 345.013 368.363 345.024 368.286 345.028C368.211 345.03 368.127 345.027 368.033 345.02C367.94 345.01 367.849 345.001 367.761 344.992C367.673 344.981 367.6 344.972 367.541 344.965C367.402 344.947 367.271 344.944 367.15 344.956C367.03 344.968 366.927 345.003 366.841 345.062C366.757 345.119 366.699 345.21 366.667 345.334C366.623 345.505 366.653 345.651 366.757 345.772C366.862 345.891 367.012 345.976 367.209 346.027ZM369.617 347.155L370.532 343.592L371.198 343.763L371.049 344.343L371.093 344.354C371.218 344.177 371.378 344.055 371.575 343.988C371.772 343.92 371.988 343.917 372.223 343.977C372.461 344.038 372.647 344.145 372.779 344.298C372.913 344.451 372.993 344.635 373.02 344.849L373.058 344.859C373.191 344.69 373.366 344.574 373.58 344.508C373.795 344.442 374.031 344.441 374.288 344.507C374.611 344.59 374.848 344.759 375.001 345.014C375.154 345.27 375.179 345.601 375.074 346.01L374.46 348.399L373.766 348.221L374.363 345.896C374.425 345.655 374.405 345.464 374.301 345.322C374.197 345.18 374.054 345.085 373.872 345.038C373.646 344.98 373.453 345.005 373.292 345.112C373.131 345.217 373.023 345.378 372.967 345.595L372.384 347.865L371.693 347.688L372.301 345.32C372.351 345.126 372.33 344.956 372.24 344.807C372.15 344.659 372.008 344.559 371.814 344.51C371.683 344.476 371.553 344.48 371.424 344.521C371.296 344.56 371.183 344.633 371.083 344.737C370.986 344.842 370.916 344.975 370.875 345.136L370.31 347.333L369.617 347.155ZM376.775 350.418L378.033 345.519L378.711 345.693L378.562 346.27L378.62 346.285C378.68 346.221 378.76 346.15 378.86 346.073C378.961 345.995 379.088 345.937 379.241 345.898C379.395 345.859 379.582 345.867 379.803 345.924C380.091 345.998 380.329 346.137 380.517 346.34C380.706 346.543 380.829 346.798 380.887 347.105C380.947 347.412 380.927 347.758 380.828 348.143C380.729 348.528 380.58 348.842 380.381 349.084C380.183 349.325 379.952 349.491 379.69 349.581C379.428 349.671 379.153 349.679 378.865 349.605C378.649 349.549 378.481 349.467 378.362 349.359C378.245 349.252 378.16 349.139 378.108 349.022C378.055 348.905 378.018 348.803 377.996 348.716L377.954 348.705L377.468 350.596L376.775 350.418ZM378.255 347.475C378.191 347.725 378.171 347.954 378.195 348.162C378.219 348.369 378.287 348.544 378.397 348.686C378.507 348.826 378.662 348.922 378.862 348.973C379.069 349.026 379.256 349.016 379.424 348.942C379.592 348.866 379.735 348.743 379.855 348.571C379.977 348.399 380.068 348.194 380.129 347.956C380.19 347.721 380.208 347.501 380.185 347.296C380.164 347.091 380.097 346.916 379.984 346.772C379.872 346.628 379.712 346.529 379.504 346.475C379.303 346.424 379.119 346.432 378.953 346.499C378.789 346.568 378.648 346.685 378.529 346.853C378.41 347.02 378.319 347.227 378.255 347.475ZM383.063 345.545L381.843 350.295L381.149 350.117L382.37 345.367L383.063 345.545ZM383.792 350.88C383.567 350.822 383.373 350.728 383.212 350.598C383.052 350.466 382.939 350.306 382.873 350.117C382.809 349.93 382.807 349.719 382.867 349.485C382.919 349.284 383 349.129 383.111 349.019C383.222 348.909 383.352 348.833 383.503 348.791C383.654 348.749 383.816 348.729 383.988 348.732C384.16 348.735 384.333 348.749 384.507 348.772C384.727 348.802 384.905 348.826 385.042 348.845C385.18 348.862 385.283 348.86 385.353 348.838C385.423 348.817 385.468 348.764 385.49 348.681L385.494 348.664C385.546 348.462 385.529 348.29 385.443 348.149C385.359 348.009 385.205 347.91 384.981 347.852C384.747 347.793 384.55 347.797 384.389 347.866C384.23 347.934 384.108 348.024 384.025 348.136L383.411 347.82C383.544 347.624 383.702 347.478 383.885 347.383C384.069 347.287 384.267 347.234 384.477 347.224C384.688 347.212 384.901 347.234 385.116 347.289C385.258 347.325 385.404 347.381 385.555 347.456C385.707 347.53 385.842 347.629 385.958 347.753C386.076 347.877 386.159 348.032 386.207 348.219C386.255 348.405 386.245 348.627 386.179 348.887L385.571 351.253L384.894 351.079L385.019 350.592L384.991 350.585C384.923 350.663 384.833 350.734 384.721 350.797C384.609 350.861 384.476 350.903 384.32 350.924C384.165 350.945 383.989 350.931 383.792 350.88ZM384.086 350.362C384.278 350.412 384.452 350.416 384.607 350.375C384.764 350.335 384.894 350.262 384.997 350.158C385.101 350.053 385.171 349.931 385.207 349.79L385.325 349.331C385.294 349.349 385.24 349.36 385.164 349.363C385.089 349.365 385.005 349.363 384.911 349.355C384.818 349.346 384.727 349.337 384.639 349.327C384.551 349.316 384.478 349.307 384.418 349.3C384.279 349.283 384.149 349.28 384.027 349.291C383.907 349.303 383.804 349.339 383.718 349.397C383.634 349.455 383.576 349.546 383.545 349.669C383.501 349.841 383.531 349.987 383.635 350.108C383.739 350.227 383.89 350.312 384.086 350.362ZM386.462 352.906C386.359 352.88 386.266 352.847 386.186 352.808C386.105 352.771 386.046 352.737 386.009 352.708L386.322 352.183C386.44 352.249 386.549 352.293 386.649 352.314C386.749 352.335 386.846 352.32 386.94 352.27C387.035 352.22 387.132 352.124 387.231 351.981L387.378 351.767L387.002 347.823L387.744 348.013L387.936 351.01L387.973 351.02L389.585 348.487L390.33 348.678L387.824 352.339C387.709 352.507 387.582 352.642 387.444 352.743C387.305 352.846 387.155 352.911 386.993 352.939C386.831 352.966 386.654 352.955 386.462 352.906ZM391.462 352.843C391.111 352.753 390.828 352.6 390.613 352.385C390.4 352.169 390.26 351.906 390.193 351.597C390.127 351.287 390.142 350.947 390.237 350.578C390.331 350.213 390.481 349.908 390.689 349.665C390.898 349.422 391.146 349.254 391.432 349.161C391.719 349.068 392.028 349.065 392.359 349.15C392.56 349.201 392.747 349.285 392.918 349.4C393.09 349.514 393.232 349.662 393.346 349.843C393.459 350.024 393.53 350.239 393.558 350.489C393.587 350.737 393.56 351.022 393.477 351.345L393.413 351.591L390.581 350.864L390.715 350.344L392.867 350.897C392.914 350.715 392.919 350.544 392.88 350.384C392.843 350.222 392.767 350.084 392.654 349.967C392.542 349.851 392.396 349.77 392.217 349.724C392.022 349.674 391.84 349.678 391.67 349.736C391.502 349.794 391.358 349.889 391.24 350.022C391.124 350.153 391.043 350.308 390.997 350.486L390.893 350.892C390.832 351.13 390.822 351.343 390.862 351.532C390.904 351.721 390.99 351.879 391.119 352.006C391.248 352.131 391.414 352.22 391.617 352.272C391.748 352.306 391.873 352.318 391.99 352.309C392.109 352.298 392.217 352.265 392.315 352.209C392.413 352.154 392.498 352.076 392.568 351.975L393.194 352.262C393.092 352.442 392.954 352.587 392.781 352.697C392.609 352.806 392.411 352.875 392.186 352.903C391.963 352.93 391.722 352.91 391.462 352.843ZM393.779 353.362L394.694 349.799L395.364 349.971L395.219 350.537L395.256 350.547C395.37 350.371 395.524 350.25 395.716 350.182C395.91 350.114 396.111 350.106 396.32 350.16C396.363 350.171 396.414 350.185 396.472 350.204C396.531 350.222 396.577 350.238 396.61 350.252L396.44 350.915C396.414 350.9 396.367 350.879 396.298 350.851C396.23 350.822 396.16 350.798 396.089 350.78C395.925 350.738 395.77 350.735 395.624 350.772C395.479 350.807 395.354 350.877 395.249 350.98C395.144 351.081 395.071 351.209 395.031 351.364L394.472 353.54L393.779 353.362Z" fill="#697082"/>
<rect x="353.813" y="333.636" width="53.066" height="14.3222" rx="7.16112" transform="rotate(14.4072 353.813 333.636)" stroke="#D1D4DB" stroke-width="0.421483"/>
<rect x="410.517" y="348.202" width="42.6941" height="14.3222" rx="7.16112" transform="rotate(14.4072 410.517 348.202)" fill="#697082"/>
<path d="M418.19 357.1C418.06 357.608 417.855 358.02 417.576 358.337C417.297 358.653 416.971 358.867 416.597 358.981C416.225 359.093 415.835 359.096 415.425 358.991C415.014 358.886 414.671 358.694 414.398 358.416C414.127 358.137 413.946 357.791 413.854 357.378C413.762 356.966 413.781 356.507 413.911 356.001C414.041 355.494 414.246 355.082 414.525 354.767C414.804 354.449 415.129 354.235 415.501 354.123C415.875 354.009 416.267 354.005 416.679 354.111C417.088 354.216 417.429 354.408 417.7 354.687C417.973 354.965 418.156 355.311 418.247 355.723C418.34 356.134 418.321 356.593 418.19 357.1ZM417.481 356.918C417.58 356.532 417.601 356.19 417.544 355.893C417.488 355.596 417.37 355.351 417.188 355.159C417.009 354.966 416.783 354.835 416.511 354.765C416.237 354.695 415.975 354.701 415.725 354.783C415.475 354.864 415.253 355.021 415.059 355.255C414.868 355.488 414.722 355.797 414.623 356.184C414.524 356.571 414.502 356.913 414.557 357.211C414.614 357.507 414.733 357.752 414.912 357.945C415.092 358.136 415.319 358.267 415.593 358.337C415.865 358.407 416.126 358.402 416.376 358.321C416.628 358.239 416.85 358.081 417.041 357.849C417.235 357.615 417.381 357.305 417.481 356.918ZM418.075 361.027L419.333 356.128L420.011 356.302L419.862 356.88L419.92 356.895C419.979 356.831 420.06 356.76 420.16 356.682C420.261 356.604 420.388 356.546 420.541 356.508C420.695 356.468 420.882 356.477 421.103 356.533C421.391 356.607 421.629 356.746 421.817 356.949C422.006 357.153 422.129 357.408 422.187 357.714C422.247 358.021 422.227 358.367 422.128 358.752C422.029 359.137 421.88 359.451 421.681 359.693C421.483 359.934 421.252 360.1 420.99 360.191C420.728 360.28 420.453 360.288 420.165 360.214C419.949 360.158 419.781 360.076 419.662 359.968C419.545 359.861 419.46 359.748 419.408 359.631C419.355 359.514 419.318 359.412 419.296 359.325L419.254 359.315L418.768 361.205L418.075 361.027ZM419.555 358.084C419.491 358.335 419.471 358.564 419.495 358.771C419.519 358.978 419.587 359.153 419.697 359.295C419.807 359.435 419.962 359.531 420.162 359.582C420.369 359.636 420.556 359.625 420.724 359.551C420.891 359.476 421.035 359.352 421.155 359.18C421.277 359.008 421.368 358.804 421.429 358.566C421.49 358.33 421.508 358.11 421.485 357.905C421.464 357.7 421.397 357.525 421.284 357.381C421.172 357.237 421.012 357.138 420.804 357.084C420.603 357.033 420.419 357.041 420.253 357.109C420.089 357.177 419.948 357.295 419.829 357.462C419.71 357.629 419.619 357.837 419.555 358.084ZM425.028 357.591L424.885 358.148L422.939 357.648L423.082 357.091L425.028 357.591ZM423.823 356.372L424.516 356.55L423.65 359.92C423.616 360.054 423.61 360.161 423.633 360.239C423.656 360.316 423.696 360.375 423.753 360.416C423.812 360.456 423.879 360.486 423.955 360.505C424.011 360.519 424.06 360.528 424.104 360.531C424.148 360.534 424.182 360.536 424.206 360.537L424.184 361.143C424.14 361.148 424.079 361.148 424.001 361.145C423.922 361.143 423.827 361.128 423.715 361.101C423.532 361.057 423.37 360.981 423.23 360.873C423.09 360.764 422.989 360.626 422.929 360.459C422.868 360.292 422.865 360.1 422.92 359.886L423.823 356.372ZM424.88 361.351L425.795 357.788L426.488 357.966L425.573 361.529L424.88 361.351ZM426.286 357.328C426.166 357.297 426.072 357.23 426.006 357.128C425.942 357.024 425.925 356.916 425.954 356.803C425.983 356.688 426.051 356.602 426.157 356.543C426.264 356.484 426.378 356.469 426.499 356.5C426.62 356.531 426.712 356.599 426.776 356.702C426.842 356.805 426.86 356.914 426.831 357.028C426.802 357.141 426.733 357.227 426.626 357.287C426.52 357.345 426.407 357.359 426.286 357.328ZM426.506 361.769L427.421 358.206L428.087 358.377L427.938 358.957L427.982 358.968C428.107 358.791 428.267 358.669 428.464 358.602C428.661 358.534 428.877 358.53 429.113 358.591C429.351 358.652 429.536 358.759 429.668 358.912C429.802 359.065 429.882 359.249 429.91 359.463L429.947 359.473C430.081 359.304 430.255 359.188 430.469 359.122C430.684 359.056 430.92 359.055 431.177 359.121C431.5 359.204 431.738 359.373 431.89 359.628C432.043 359.884 432.068 360.215 431.963 360.624L431.349 363.013L430.656 362.835L431.253 360.51C431.315 360.269 431.294 360.078 431.19 359.936C431.087 359.794 430.944 359.699 430.761 359.652C430.535 359.594 430.342 359.619 430.181 359.726C430.02 359.831 429.912 359.992 429.857 360.209L429.273 362.479L428.582 362.302L429.19 359.934C429.24 359.74 429.22 359.57 429.129 359.421C429.039 359.272 428.897 359.173 428.704 359.124C428.572 359.09 428.442 359.094 428.313 359.135C428.185 359.174 428.072 359.247 427.973 359.351C427.875 359.456 427.805 359.589 427.764 359.75L427.2 361.947L426.506 361.769ZM432.279 363.252L433.194 359.689L433.887 359.867L432.972 363.43L432.279 363.252ZM433.685 359.229C433.565 359.198 433.471 359.131 433.406 359.029C433.342 358.925 433.324 358.816 433.353 358.704C433.382 358.589 433.45 358.503 433.556 358.444C433.663 358.384 433.777 358.37 433.898 358.401C434.019 358.432 434.111 358.499 434.175 358.603C434.241 358.706 434.259 358.814 434.23 358.929C434.201 359.042 434.132 359.128 434.025 359.188C433.919 359.246 433.806 359.26 433.685 359.229ZM437.267 361.662L436.61 361.612C436.604 361.525 436.582 361.438 436.543 361.35C436.506 361.263 436.446 361.184 436.362 361.113C436.278 361.042 436.164 360.988 436.02 360.951C435.824 360.901 435.649 360.903 435.495 360.957C435.341 361.01 435.246 361.105 435.211 361.243C435.18 361.362 435.2 361.469 435.269 361.565C435.339 361.66 435.466 361.756 435.65 361.853L436.183 362.128C436.491 362.288 436.705 362.468 436.826 362.667C436.946 362.866 436.974 363.091 436.909 363.343C436.854 363.557 436.744 363.731 436.577 363.866C436.412 364 436.208 364.086 435.964 364.124C435.722 364.162 435.457 364.145 435.169 364.071C434.77 363.968 434.467 363.8 434.258 363.565C434.051 363.328 433.958 363.045 433.982 362.715L434.679 362.785C434.676 362.971 434.728 363.125 434.834 363.248C434.942 363.369 435.1 363.457 435.308 363.511C435.536 363.569 435.729 363.568 435.89 363.509C436.051 363.448 436.149 363.349 436.184 363.211C436.212 363.1 436.195 362.996 436.131 362.898C436.068 362.802 435.957 362.712 435.797 362.63L435.228 362.343C434.915 362.181 434.7 361.998 434.583 361.791C434.468 361.585 434.443 361.355 434.508 361.102C434.562 360.892 434.668 360.723 434.826 360.595C434.984 360.468 435.178 360.386 435.408 360.351C435.638 360.315 435.887 360.331 436.154 360.4C436.539 360.499 436.821 360.66 436.999 360.884C437.178 361.106 437.267 361.366 437.267 361.662ZM439.985 361.433L439.842 361.99L437.896 361.49L438.039 360.934L439.985 361.433ZM438.78 360.214L439.474 360.392L438.608 363.762C438.574 363.897 438.568 364.003 438.59 364.082C438.614 364.159 438.654 364.217 438.711 364.258C438.77 364.298 438.837 364.328 438.913 364.348C438.969 364.362 439.018 364.37 439.062 364.373C439.106 364.376 439.14 364.379 439.164 364.38L439.142 364.985C439.098 364.99 439.037 364.991 438.959 364.987C438.88 364.985 438.785 364.971 438.673 364.944C438.49 364.9 438.328 364.824 438.188 364.715C438.048 364.607 437.947 364.469 437.886 364.301C437.825 364.134 437.823 363.943 437.878 363.728L438.78 360.214ZM439.837 365.193L440.753 361.631L441.446 361.809L440.531 365.371L439.837 365.193ZM441.244 361.171C441.123 361.14 441.03 361.073 440.964 360.97C440.9 360.867 440.883 360.758 440.912 360.645C440.941 360.531 441.009 360.444 441.114 360.386C441.222 360.326 441.336 360.312 441.457 360.343C441.577 360.374 441.67 360.441 441.734 360.545C441.8 360.648 441.818 360.756 441.788 360.871C441.759 360.983 441.691 361.07 441.583 361.129C441.478 361.188 441.365 361.202 441.244 361.171ZM442.946 366.068C442.601 365.98 442.324 365.826 442.116 365.605C441.909 365.384 441.774 365.118 441.712 364.807C441.651 364.496 441.665 364.162 441.757 363.805C441.85 363.443 442 363.141 442.207 362.899C442.415 362.656 442.663 362.488 442.95 362.395C443.238 362.303 443.549 362.299 443.885 362.386C444.155 362.455 444.384 362.567 444.57 362.722C444.756 362.876 444.891 363.059 444.975 363.272C445.06 363.485 445.085 363.714 445.048 363.96L444.373 363.787C444.379 363.61 444.331 363.445 444.229 363.29C444.128 363.136 443.967 363.03 443.746 362.973C443.553 362.924 443.37 362.931 443.199 362.996C443.029 363.059 442.88 363.174 442.752 363.341C442.624 363.506 442.527 363.715 442.462 363.969C442.395 364.228 442.377 364.463 442.407 364.672C442.438 364.88 442.512 365.055 442.629 365.196C442.747 365.337 442.905 365.432 443.101 365.483C443.233 365.517 443.358 365.523 443.477 365.503C443.598 365.481 443.707 365.434 443.803 365.361C443.9 365.289 443.98 365.193 444.043 365.072L444.718 365.245C444.634 365.469 444.506 365.656 444.334 365.804C444.162 365.953 443.958 366.052 443.721 366.102C443.486 366.152 443.227 366.141 442.946 366.068Z" fill="#697082"/>
<rect x="410.517" y="348.202" width="42.6941" height="14.3222" rx="7.16112" transform="rotate(14.4072 410.517 348.202)" stroke="#697082" stroke-width="0.421483"/>
<rect x="307.512" y="357.628" width="129.445" height="6.06774" rx="3.03387" transform="rotate(14.4072 307.512 357.628)" fill="#EBEBEB"/>
<rect x="304.259" y="370.292" width="129.445" height="6.06774" rx="3.03387" transform="rotate(14.4072 304.259 370.292)" fill="#EBEBEB"/>
<rect x="301.006" y="382.955" width="129.445" height="6.06774" rx="3.03387" transform="rotate(14.4072 301.006 382.955)" fill="#EBEBEB"/>
</g>
<rect x="314.462" y="398.823" width="95.0612" height="18.2032" rx="9.10161" transform="rotate(14.4072 314.462 398.823)" fill="#17A672"/>
</g>
<g filter="url(#filter0_d_834_3414)">
<g clip-path="url(#clip2_834_3414)">
<rect x="131" y="154.512" width="262.742" height="289.017" rx="18.1202" fill="white"/>
<rect width="183.92" height="249.679" transform="translate(169.958 174.444)" fill="white"/>
<rect x="206.915" y="174.444" width="110.007" height="109.585" rx="54.7927" fill="#E8E8E8"/>
<rect x="59.6069" y="288.075" width="404.623" height="113.8" rx="12.6445" fill="white"/>
<rect x="203.182" y="295.078" width="93.0386" height="12.1355" rx="6.06774" fill="#EBEBEB"/>
<path d="M307.014 311.887L305.158 308.614L301.643 307.795L301.984 304.01L299.592 301.145L301.984 298.281L301.643 294.496L305.158 293.677L307.014 290.403L310.334 291.887L313.654 290.403L315.51 293.677L319.025 294.496L318.683 298.281L321.076 301.145L318.683 304.01L319.025 307.795L315.51 308.614L313.654 311.887L310.334 310.404L307.014 311.887ZM309.308 304.777L314.826 298.997L313.459 297.514L309.308 301.861L307.209 299.713L305.842 301.145L309.308 304.777Z" fill="#9FE870"/>
<rect x="186.737" y="332.992" width="44.066" height="14.3222" rx="7.16112" fill="#697082"/>
<path d="M193.808 342.153V337.248H196.883V337.885H194.548V339.38H196.723V340.014H194.548V341.516H196.912V342.153H193.808ZM198.53 339.969V342.153H197.814V338.474H198.502V339.073H198.547C198.632 338.878 198.764 338.722 198.945 338.604C199.127 338.486 199.356 338.427 199.632 338.427C199.883 338.427 200.102 338.479 200.29 338.585C200.479 338.688 200.625 338.843 200.729 339.049C200.832 339.255 200.884 339.51 200.884 339.813V342.153H200.168V339.899C200.168 339.633 200.099 339.424 199.96 339.274C199.821 339.123 199.63 339.047 199.388 339.047C199.222 339.047 199.074 339.083 198.945 339.155C198.817 339.226 198.715 339.332 198.64 339.471C198.567 339.608 198.53 339.774 198.53 339.969ZM203.43 342.227C203.068 342.227 202.755 342.15 202.494 341.995C202.233 341.838 202.032 341.619 201.89 341.336C201.75 341.052 201.679 340.719 201.679 340.338C201.679 339.961 201.75 339.629 201.89 339.341C202.032 339.054 202.23 338.83 202.484 338.668C202.74 338.507 203.038 338.427 203.38 338.427C203.587 338.427 203.788 338.461 203.983 338.53C204.178 338.598 204.353 338.706 204.508 338.853C204.663 339 204.785 339.19 204.874 339.425C204.963 339.658 205.008 339.942 205.008 340.275V340.529H202.084V339.993H204.307C204.307 339.804 204.268 339.638 204.192 339.492C204.115 339.345 204.007 339.23 203.868 339.145C203.731 339.06 203.57 339.018 203.385 339.018C203.183 339.018 203.008 339.068 202.858 339.167C202.709 339.264 202.594 339.392 202.513 339.55C202.433 339.706 202.393 339.876 202.393 340.06V340.479C202.393 340.725 202.436 340.934 202.522 341.106C202.61 341.279 202.732 341.41 202.889 341.501C203.045 341.591 203.228 341.636 203.437 341.636C203.573 341.636 203.697 341.616 203.808 341.578C203.92 341.538 204.017 341.479 204.098 341.401C204.18 341.323 204.242 341.226 204.285 341.111L204.963 341.233C204.908 341.433 204.811 341.608 204.671 341.758C204.532 341.906 204.357 342.022 204.146 342.105C203.937 342.186 203.698 342.227 203.43 342.227ZM205.803 342.153V338.474H206.495V339.059H206.533C206.6 338.861 206.718 338.705 206.887 338.592C207.058 338.477 207.251 338.419 207.467 338.419C207.512 338.419 207.564 338.421 207.625 338.424C207.687 338.427 207.736 338.431 207.771 338.436V339.121C207.742 339.113 207.691 339.104 207.618 339.095C207.544 339.084 207.471 339.078 207.398 339.078C207.228 339.078 207.077 339.114 206.945 339.186C206.814 339.256 206.71 339.354 206.634 339.48C206.557 339.605 206.519 339.747 206.519 339.907V342.153H205.803ZM209.801 343.609C209.509 343.609 209.258 343.571 209.047 343.494C208.838 343.417 208.667 343.316 208.535 343.19C208.402 343.064 208.303 342.926 208.238 342.775L208.853 342.522C208.896 342.592 208.954 342.666 209.025 342.744C209.099 342.824 209.198 342.892 209.322 342.948C209.449 343.004 209.611 343.032 209.809 343.032C210.08 343.032 210.304 342.965 210.481 342.833C210.659 342.702 210.747 342.493 210.747 342.206V341.482H210.702C210.659 341.561 210.596 341.648 210.515 341.743C210.435 341.839 210.325 341.922 210.185 341.992C210.044 342.063 209.861 342.098 209.636 342.098C209.346 342.098 209.084 342.03 208.851 341.894C208.619 341.757 208.436 341.555 208.3 341.288C208.166 341.02 208.099 340.69 208.099 340.299C208.099 339.908 208.165 339.573 208.297 339.293C208.432 339.014 208.615 338.8 208.848 338.652C209.081 338.502 209.346 338.427 209.641 338.427C209.869 338.427 210.054 338.465 210.194 338.541C210.335 338.617 210.444 338.704 210.522 338.805C210.602 338.906 210.663 338.994 210.707 339.071H210.759V338.474H211.461V342.234C211.461 342.55 211.387 342.81 211.241 343.013C211.094 343.215 210.895 343.365 210.644 343.463C210.395 343.56 210.114 343.609 209.801 343.609ZM209.794 341.504C210 341.504 210.174 341.456 210.316 341.36C210.46 341.263 210.568 341.124 210.642 340.943C210.717 340.761 210.754 340.544 210.754 340.29C210.754 340.042 210.718 339.824 210.644 339.636C210.571 339.448 210.463 339.301 210.321 339.195C210.179 339.088 210.003 339.035 209.794 339.035C209.579 339.035 209.399 339.091 209.255 339.202C209.112 339.313 209.003 339.463 208.93 339.653C208.858 339.843 208.822 340.055 208.822 340.29C208.822 340.531 208.859 340.742 208.932 340.924C209.005 341.106 209.114 341.248 209.258 341.351C209.403 341.453 209.582 341.504 209.794 341.504ZM214.007 342.227C213.644 342.227 213.332 342.15 213.07 341.995C212.81 341.838 212.609 341.619 212.467 341.336C212.326 341.052 212.256 340.719 212.256 340.338C212.256 339.961 212.326 339.629 212.467 339.341C212.609 339.054 212.807 338.83 213.061 338.668C213.316 338.507 213.615 338.427 213.956 338.427C214.164 338.427 214.365 338.461 214.56 338.53C214.755 338.598 214.929 338.706 215.084 338.853C215.239 339 215.361 339.19 215.451 339.425C215.54 339.658 215.585 339.942 215.585 340.275V340.529H212.661V339.993H214.883C214.883 339.804 214.845 339.638 214.768 339.492C214.692 339.345 214.584 339.23 214.445 339.145C214.308 339.06 214.146 339.018 213.961 339.018C213.76 339.018 213.584 339.068 213.434 339.167C213.286 339.264 213.171 339.392 213.089 339.55C213.01 339.706 212.97 339.876 212.97 340.06V340.479C212.97 340.725 213.013 340.934 213.099 341.106C213.187 341.279 213.309 341.41 213.465 341.501C213.622 341.591 213.805 341.636 214.014 341.636C214.149 341.636 214.273 341.616 214.385 341.578C214.497 341.538 214.593 341.479 214.675 341.401C214.756 341.323 214.818 341.226 214.862 341.111L215.539 341.233C215.485 341.433 215.388 341.608 215.247 341.758C215.108 341.906 214.933 342.022 214.723 342.105C214.513 342.186 214.275 342.227 214.007 342.227ZM218.096 338.474V339.049H216.087V338.474H218.096ZM216.626 337.593H217.342V341.073C217.342 341.212 217.363 341.316 217.404 341.387C217.446 341.455 217.499 341.502 217.565 341.528C217.632 341.552 217.704 341.564 217.783 341.564C217.84 341.564 217.89 341.56 217.933 341.552C217.977 341.544 218.01 341.537 218.034 341.533L218.163 342.124C218.122 342.14 218.063 342.156 217.986 342.172C217.909 342.19 217.814 342.199 217.699 342.201C217.51 342.204 217.335 342.17 217.172 342.1C217.009 342.03 216.877 341.921 216.777 341.774C216.676 341.628 216.626 341.443 216.626 341.221V337.593ZM218.888 342.153V338.474H219.604V342.153H218.888ZM219.25 337.907C219.125 337.907 219.018 337.865 218.929 337.782C218.841 337.698 218.797 337.597 218.797 337.481C218.797 337.362 218.841 337.262 218.929 337.179C219.018 337.094 219.125 337.052 219.25 337.052C219.375 337.052 219.481 337.094 219.568 337.179C219.658 337.262 219.703 337.362 219.703 337.481C219.703 337.597 219.658 337.698 219.568 337.782C219.481 337.865 219.375 337.907 219.25 337.907ZM222.117 342.227C221.761 342.227 221.455 342.146 221.198 341.985C220.942 341.822 220.746 341.598 220.608 341.312C220.471 341.026 220.402 340.699 220.402 340.33C220.402 339.957 220.473 339.627 220.613 339.341C220.754 339.054 220.952 338.83 221.207 338.668C221.463 338.507 221.764 338.427 222.11 338.427C222.389 338.427 222.638 338.478 222.857 338.582C223.076 338.684 223.252 338.828 223.386 339.013C223.522 339.198 223.603 339.415 223.628 339.662H222.931C222.893 339.49 222.805 339.341 222.668 339.217C222.532 339.092 222.35 339.03 222.122 339.03C221.922 339.03 221.748 339.083 221.597 339.188C221.449 339.292 221.333 339.44 221.25 339.634C221.167 339.825 221.126 340.052 221.126 340.314C221.126 340.582 221.166 340.813 221.248 341.008C221.329 341.203 221.444 341.354 221.593 341.461C221.743 341.568 221.919 341.621 222.122 341.621C222.258 341.621 222.381 341.596 222.491 341.547C222.602 341.496 222.696 341.423 222.771 341.329C222.848 341.235 222.901 341.121 222.931 340.989H223.628C223.603 341.227 223.525 341.439 223.396 341.626C223.267 341.813 223.093 341.96 222.876 342.067C222.661 342.174 222.408 342.227 222.117 342.227Z" fill="#697082"/>
<rect x="186.737" y="332.992" width="44.066" height="14.3222" rx="7.16112" stroke="#D1D4DB" stroke-width="0.421483"/>
<rect x="236.282" y="332.992" width="53.066" height="14.3222" rx="7.16112" fill="#697082"/>
<path d="M243.112 337.885V337.248H246.908V337.885H245.377V342.153H244.64V337.885H243.112ZM248.741 342.227C248.378 342.227 248.066 342.15 247.804 341.995C247.544 341.838 247.343 341.619 247.201 341.336C247.061 341.052 246.99 340.719 246.99 340.338C246.99 339.961 247.061 339.629 247.201 339.341C247.343 339.054 247.541 338.83 247.795 338.668C248.05 338.507 248.349 338.427 248.691 338.427C248.898 338.427 249.099 338.461 249.294 338.53C249.489 338.598 249.664 338.706 249.818 338.853C249.973 339 250.095 339.19 250.185 339.425C250.274 339.658 250.319 339.942 250.319 340.275V340.529H247.395V339.993H249.617C249.617 339.804 249.579 339.638 249.502 339.492C249.426 339.345 249.318 339.23 249.179 339.145C249.042 339.06 248.881 339.018 248.695 339.018C248.494 339.018 248.319 339.068 248.168 339.167C248.02 339.264 247.905 339.392 247.824 339.55C247.744 339.706 247.704 339.876 247.704 340.06V340.479C247.704 340.725 247.747 340.934 247.833 341.106C247.921 341.279 248.043 341.41 248.2 341.501C248.356 341.591 248.539 341.636 248.748 341.636C248.884 341.636 249.007 341.616 249.119 341.578C249.231 341.538 249.328 341.479 249.409 341.401C249.49 341.323 249.553 341.226 249.596 341.111L250.274 341.233C250.219 341.433 250.122 341.608 249.981 341.758C249.842 341.906 249.668 342.022 249.457 342.105C249.248 342.186 249.009 342.227 248.741 342.227ZM252.184 342.234C251.951 342.234 251.74 342.191 251.552 342.105C251.363 342.017 251.214 341.89 251.104 341.724C250.995 341.558 250.941 341.355 250.941 341.113C250.941 340.906 250.981 340.735 251.061 340.601C251.141 340.467 251.248 340.361 251.384 340.283C251.52 340.204 251.671 340.145 251.839 340.105C252.007 340.065 252.178 340.035 252.352 340.014C252.572 339.989 252.751 339.968 252.888 339.952C253.025 339.934 253.125 339.907 253.187 339.868C253.25 339.83 253.281 339.768 253.281 339.681V339.665C253.281 339.456 253.222 339.293 253.104 339.179C252.987 339.064 252.813 339.006 252.581 339.006C252.34 339.006 252.15 339.06 252.012 339.167C251.874 339.272 251.779 339.389 251.727 339.519L251.054 339.365C251.133 339.142 251.25 338.961 251.403 338.824C251.558 338.685 251.736 338.585 251.937 338.522C252.138 338.458 252.35 338.427 252.572 338.427C252.719 338.427 252.874 338.444 253.039 338.479C253.205 338.513 253.36 338.575 253.503 338.666C253.649 338.757 253.768 338.887 253.86 339.056C253.953 339.224 253.999 339.442 253.999 339.71V342.153H253.3V341.65H253.271C253.225 341.743 253.155 341.834 253.063 341.923C252.97 342.012 252.851 342.087 252.706 342.146C252.561 342.205 252.387 342.234 252.184 342.234ZM252.34 341.66C252.538 341.66 252.707 341.62 252.847 341.542C252.989 341.464 253.097 341.362 253.171 341.236C253.246 341.108 253.283 340.971 253.283 340.826V340.352C253.258 340.377 253.208 340.401 253.135 340.424C253.063 340.445 252.981 340.463 252.888 340.479C252.795 340.493 252.705 340.507 252.617 340.52C252.53 340.531 252.456 340.54 252.397 340.548C252.258 340.566 252.131 340.595 252.016 340.637C251.903 340.678 251.812 340.738 251.743 340.817C251.676 340.893 251.643 340.995 251.643 341.123C251.643 341.3 251.708 341.434 251.839 341.525C251.97 341.615 252.137 341.66 252.34 341.66ZM254.953 342.153V338.474H255.64V339.073H255.686C255.762 338.87 255.888 338.712 256.062 338.599C256.236 338.484 256.444 338.427 256.687 338.427C256.933 338.427 257.139 338.484 257.305 338.599C257.472 338.714 257.596 338.872 257.676 339.073H257.714C257.802 338.877 257.942 338.72 258.133 338.604C258.325 338.486 258.553 338.427 258.818 338.427C259.152 338.427 259.424 338.531 259.635 338.74C259.847 338.949 259.953 339.265 259.953 339.686V342.153H259.237V339.753C259.237 339.504 259.169 339.324 259.034 339.212C258.898 339.1 258.736 339.044 258.547 339.044C258.314 339.044 258.133 339.116 258.004 339.26C257.875 339.402 257.81 339.585 257.81 339.808V342.153H257.096V339.708C257.096 339.508 257.034 339.348 256.909 339.226C256.785 339.105 256.623 339.044 256.423 339.044C256.288 339.044 256.162 339.08 256.047 339.152C255.934 339.222 255.842 339.321 255.772 339.447C255.703 339.573 255.669 339.719 255.669 339.885V342.153H254.953ZM262.698 343.532V338.474H263.397V339.071H263.457C263.498 338.994 263.558 338.906 263.636 338.805C263.715 338.704 263.823 338.617 263.962 338.541C264.101 338.465 264.285 338.427 264.513 338.427C264.81 338.427 265.075 338.502 265.308 338.652C265.541 338.802 265.724 339.018 265.856 339.301C265.99 339.583 266.058 339.923 266.058 340.321C266.058 340.718 265.991 341.059 265.859 341.343C265.726 341.626 265.544 341.844 265.313 341.997C265.081 342.149 264.817 342.225 264.52 342.225C264.297 342.225 264.114 342.187 263.972 342.112C263.831 342.037 263.721 341.949 263.641 341.849C263.561 341.748 263.5 341.659 263.457 341.58H263.414V343.532H262.698ZM263.399 340.314C263.399 340.572 263.437 340.799 263.512 340.994C263.587 341.189 263.695 341.341 263.838 341.451C263.98 341.56 264.154 341.614 264.36 341.614C264.574 341.614 264.752 341.557 264.896 341.444C265.04 341.329 265.148 341.173 265.222 340.977C265.297 340.781 265.334 340.56 265.334 340.314C265.334 340.071 265.298 339.853 265.224 339.66C265.152 339.467 265.044 339.314 264.898 339.202C264.755 339.091 264.575 339.035 264.36 339.035C264.152 339.035 263.976 339.088 263.833 339.195C263.691 339.302 263.583 339.452 263.509 339.643C263.436 339.835 263.399 340.058 263.399 340.314ZM267.576 337.248V342.153H266.86V337.248H267.576ZM269.61 342.234C269.377 342.234 269.166 342.191 268.977 342.105C268.789 342.017 268.64 341.89 268.53 341.724C268.421 341.558 268.367 341.355 268.367 341.113C268.367 340.906 268.407 340.735 268.486 340.601C268.566 340.467 268.674 340.361 268.81 340.283C268.945 340.204 269.097 340.145 269.265 340.105C269.432 340.065 269.603 340.035 269.777 340.014C269.998 339.989 270.176 339.968 270.314 339.952C270.451 339.934 270.551 339.907 270.613 339.868C270.675 339.83 270.706 339.768 270.706 339.681V339.665C270.706 339.456 270.647 339.293 270.529 339.179C270.413 339.064 270.239 339.006 270.007 339.006C269.766 339.006 269.576 339.06 269.437 339.167C269.3 339.272 269.205 339.389 269.152 339.519L268.479 339.365C268.559 339.142 268.676 338.961 268.829 338.824C268.984 338.685 269.162 338.585 269.363 338.522C269.564 338.458 269.776 338.427 269.998 338.427C270.144 338.427 270.3 338.444 270.465 338.479C270.631 338.513 270.785 338.575 270.929 338.666C271.074 338.757 271.193 338.887 271.286 339.056C271.379 339.224 271.425 339.442 271.425 339.71V342.153H270.726V341.65H270.697C270.651 341.743 270.581 341.834 270.489 341.923C270.396 342.012 270.277 342.087 270.132 342.146C269.986 342.205 269.812 342.234 269.61 342.234ZM269.765 341.66C269.963 341.66 270.132 341.62 270.273 341.542C270.415 341.464 270.523 341.362 270.596 341.236C270.671 341.108 270.709 340.971 270.709 340.826V340.352C270.683 340.377 270.634 340.401 270.56 340.424C270.489 340.445 270.406 340.463 270.314 340.479C270.221 340.493 270.131 340.507 270.043 340.52C269.955 340.531 269.882 340.54 269.823 340.548C269.684 340.566 269.557 340.595 269.442 340.637C269.329 340.678 269.238 340.738 269.169 340.817C269.102 340.893 269.068 340.995 269.068 341.123C269.068 341.3 269.134 341.434 269.265 341.525C269.396 341.615 269.563 341.66 269.765 341.66ZM272.699 343.532C272.593 343.532 272.495 343.523 272.407 343.506C272.32 343.49 272.254 343.472 272.211 343.453L272.383 342.866C272.514 342.902 272.631 342.917 272.733 342.912C272.835 342.907 272.925 342.869 273.004 342.797C273.083 342.725 273.154 342.608 273.214 342.445L273.303 342.201L271.957 338.474H272.723L273.655 341.329H273.693L274.625 338.474H275.394L273.878 342.644C273.807 342.835 273.718 342.997 273.61 343.13C273.501 343.264 273.372 343.365 273.222 343.432C273.071 343.499 272.897 343.532 272.699 343.532ZM277.527 342.227C277.164 342.227 276.852 342.15 276.59 341.995C276.33 341.838 276.129 341.619 275.987 341.336C275.846 341.052 275.776 340.719 275.776 340.338C275.776 339.961 275.846 339.629 275.987 339.341C276.129 339.054 276.327 338.83 276.581 338.668C276.836 338.507 277.135 338.427 277.476 338.427C277.684 338.427 277.885 338.461 278.08 338.53C278.275 338.598 278.45 338.706 278.604 338.853C278.759 339 278.881 339.19 278.971 339.425C279.06 339.658 279.105 339.942 279.105 340.275V340.529H276.181V339.993H278.403C278.403 339.804 278.365 339.638 278.288 339.492C278.212 339.345 278.104 339.23 277.965 339.145C277.828 339.06 277.666 339.018 277.481 339.018C277.28 339.018 277.105 339.068 276.954 339.167C276.806 339.264 276.691 339.392 276.61 339.55C276.53 339.706 276.49 339.876 276.49 340.06V340.479C276.49 340.725 276.533 340.934 276.619 341.106C276.707 341.279 276.829 341.41 276.986 341.501C277.142 341.591 277.325 341.636 277.534 341.636C277.67 341.636 277.793 341.616 277.905 341.578C278.017 341.538 278.114 341.479 278.195 341.401C278.276 341.323 278.339 341.226 278.382 341.111L279.059 341.233C279.005 341.433 278.908 341.608 278.767 341.758C278.628 341.906 278.454 342.022 278.243 342.105C278.034 342.186 277.795 342.227 277.527 342.227ZM279.899 342.153V338.474H280.592V339.059H280.63C280.697 338.861 280.815 338.705 280.984 338.592C281.155 338.477 281.348 338.419 281.564 338.419C281.609 338.419 281.661 338.421 281.722 338.424C281.784 338.427 281.833 338.431 281.868 338.436V339.121C281.839 339.113 281.788 339.104 281.715 339.095C281.641 339.084 281.568 339.078 281.494 339.078C281.325 339.078 281.174 339.114 281.042 339.186C280.911 339.256 280.807 339.354 280.73 339.48C280.654 339.605 280.615 339.747 280.615 339.907V342.153H279.899Z" fill="#697082"/>
<rect x="236.282" y="332.992" width="53.066" height="14.3222" rx="7.16112" stroke="#D1D4DB" stroke-width="0.421483"/>
<rect x="294.827" y="332.992" width="42.6941" height="14.3222" rx="7.16112" fill="#697082"/>
<path d="M304.473 339.701C304.473 340.224 304.377 340.674 304.186 341.051C303.994 341.426 303.731 341.715 303.398 341.918C303.066 342.119 302.688 342.22 302.265 342.22C301.84 342.22 301.461 342.119 301.127 341.918C300.795 341.715 300.534 341.426 300.342 341.049C300.15 340.672 300.055 340.223 300.055 339.701C300.055 339.177 300.15 338.727 300.342 338.352C300.534 337.976 300.795 337.687 301.127 337.485C301.461 337.283 301.84 337.181 302.265 337.181C302.688 337.181 303.066 337.283 303.398 337.485C303.731 337.687 303.994 337.976 304.186 338.352C304.377 338.727 304.473 339.177 304.473 339.701ZM303.74 339.701C303.74 339.301 303.676 338.965 303.546 338.692C303.418 338.418 303.243 338.21 303.019 338.07C302.797 337.928 302.546 337.857 302.265 337.857C301.982 337.857 301.73 337.928 301.508 338.07C301.286 338.21 301.111 338.418 300.981 338.692C300.854 338.965 300.79 339.301 300.79 339.701C300.79 340.1 300.854 340.437 300.981 340.711C301.111 340.984 301.286 341.192 301.508 341.334C301.73 341.474 301.982 341.545 302.265 341.545C302.546 341.545 302.797 341.474 303.019 341.334C303.243 341.192 303.418 340.984 303.546 340.711C303.676 340.437 303.74 340.1 303.74 339.701ZM305.338 343.532V338.474H306.037V339.071H306.097C306.139 338.994 306.199 338.906 306.277 338.805C306.355 338.704 306.464 338.617 306.603 338.541C306.741 338.465 306.925 338.427 307.153 338.427C307.45 338.427 307.715 338.502 307.948 338.652C308.182 338.802 308.364 339.018 308.497 339.301C308.631 339.583 308.698 339.923 308.698 340.321C308.698 340.718 308.632 341.059 308.499 341.343C308.367 341.626 308.185 341.844 307.953 341.997C307.722 342.149 307.457 342.225 307.161 342.225C306.937 342.225 306.754 342.187 306.612 342.112C306.472 342.037 306.361 341.949 306.282 341.849C306.202 341.748 306.14 341.659 306.097 341.58H306.054V343.532H305.338ZM306.04 340.314C306.04 340.572 306.077 340.799 306.152 340.994C306.227 341.189 306.336 341.341 306.478 341.451C306.62 341.56 306.794 341.614 307 341.614C307.214 341.614 307.393 341.557 307.537 341.444C307.68 341.329 307.789 341.173 307.862 340.977C307.937 340.781 307.975 340.56 307.975 340.314C307.975 340.071 307.938 339.853 307.865 339.66C307.793 339.467 307.684 339.314 307.539 339.202C307.395 339.091 307.216 339.035 307 339.035C306.793 339.035 306.617 339.088 306.473 339.195C306.331 339.302 306.223 339.452 306.15 339.643C306.076 339.835 306.04 340.058 306.04 340.314ZM311.217 338.474V339.049H309.208V338.474H311.217ZM309.747 337.593H310.463V341.073C310.463 341.212 310.484 341.316 310.525 341.387C310.567 341.455 310.62 341.502 310.686 341.528C310.753 341.552 310.825 341.564 310.904 341.564C310.961 341.564 311.011 341.56 311.054 341.552C311.098 341.544 311.131 341.537 311.155 341.533L311.284 342.124C311.243 342.14 311.184 342.156 311.107 342.172C311.031 342.19 310.935 342.199 310.82 342.201C310.631 342.204 310.456 342.17 310.293 342.1C310.13 342.03 309.998 341.921 309.898 341.774C309.797 341.628 309.747 341.443 309.747 341.221V337.593ZM312.009 342.153V338.474H312.725V342.153H312.009ZM312.371 337.907C312.246 337.907 312.139 337.865 312.05 337.782C311.962 337.698 311.918 337.597 311.918 337.481C311.918 337.362 311.962 337.262 312.05 337.179C312.139 337.094 312.246 337.052 312.371 337.052C312.496 337.052 312.602 337.094 312.689 337.179C312.779 337.262 312.824 337.362 312.824 337.481C312.824 337.597 312.779 337.698 312.689 337.782C312.602 337.865 312.496 337.907 312.371 337.907ZM313.689 342.153V338.474H314.376V339.073H314.422C314.498 338.87 314.623 338.712 314.798 338.599C314.972 338.484 315.18 338.427 315.423 338.427C315.668 338.427 315.874 338.484 316.04 338.599C316.208 338.714 316.332 338.872 316.412 339.073H316.45C316.538 338.877 316.677 338.72 316.869 338.604C317.061 338.486 317.289 338.427 317.554 338.427C317.888 338.427 318.16 338.531 318.371 338.74C318.583 338.949 318.689 339.265 318.689 339.686V342.153H317.973V339.753C317.973 339.504 317.905 339.324 317.769 339.212C317.634 339.1 317.472 339.044 317.283 339.044C317.05 339.044 316.869 339.116 316.74 339.26C316.61 339.402 316.546 339.585 316.546 339.808V342.153H315.832V339.708C315.832 339.508 315.77 339.348 315.645 339.226C315.521 339.105 315.359 339.044 315.159 339.044C315.023 339.044 314.898 339.08 314.783 339.152C314.67 339.222 314.578 339.321 314.508 339.447C314.439 339.573 314.405 339.719 314.405 339.885V342.153H313.689ZM319.649 342.153V338.474H320.365V342.153H319.649ZM320.01 337.907C319.886 337.907 319.779 337.865 319.689 337.782C319.602 337.698 319.558 337.597 319.558 337.481C319.558 337.362 319.602 337.262 319.689 337.179C319.779 337.094 319.886 337.052 320.01 337.052C320.135 337.052 320.241 337.094 320.329 337.179C320.418 337.262 320.463 337.362 320.463 337.481C320.463 337.597 320.418 337.698 320.329 337.782C320.241 337.865 320.135 337.907 320.01 337.907ZM324.084 339.372L323.436 339.487C323.408 339.404 323.365 339.325 323.306 339.25C323.249 339.175 323.17 339.114 323.072 339.066C322.973 339.018 322.849 338.994 322.7 338.994C322.498 338.994 322.328 339.04 322.193 339.131C322.057 339.22 321.989 339.336 321.989 339.478C321.989 339.601 322.035 339.7 322.126 339.775C322.217 339.85 322.363 339.911 322.566 339.959L323.151 340.093C323.489 340.172 323.741 340.292 323.907 340.455C324.073 340.618 324.156 340.829 324.156 341.09C324.156 341.31 324.092 341.506 323.965 341.679C323.839 341.849 323.662 341.984 323.436 342.081C323.21 342.178 322.949 342.227 322.652 342.227C322.241 342.227 321.904 342.139 321.644 341.964C321.384 341.786 321.224 341.535 321.165 341.209L321.857 341.104C321.9 341.284 321.989 341.421 322.123 341.513C322.257 341.604 322.432 341.65 322.648 341.65C322.882 341.65 323.07 341.601 323.21 341.504C323.351 341.405 323.421 341.284 323.421 341.142C323.421 341.027 323.378 340.931 323.292 340.852C323.207 340.774 323.077 340.715 322.901 340.675L322.279 340.539C321.936 340.461 321.682 340.336 321.517 340.165C321.354 339.994 321.273 339.778 321.273 339.516C321.273 339.299 321.334 339.109 321.455 338.946C321.576 338.783 321.744 338.656 321.958 338.565C322.172 338.473 322.417 338.427 322.693 338.427C323.091 338.427 323.404 338.513 323.632 338.685C323.86 338.856 324.011 339.085 324.084 339.372ZM326.661 338.474V339.049H324.651V338.474H326.661ZM325.19 337.593H325.906V341.073C325.906 341.212 325.927 341.316 325.969 341.387C326.01 341.455 326.064 341.502 326.129 341.528C326.196 341.552 326.269 341.564 326.347 341.564C326.404 341.564 326.455 341.56 326.498 341.552C326.541 341.544 326.574 341.537 326.598 341.533L326.728 342.124C326.686 342.14 326.627 342.156 326.551 342.172C326.474 342.19 326.378 342.199 326.263 342.201C326.075 342.204 325.899 342.17 325.736 342.1C325.573 342.03 325.442 341.921 325.341 341.774C325.241 341.628 325.19 341.443 325.19 341.221V337.593ZM327.453 342.153V338.474H328.169V342.153H327.453ZM327.814 337.907C327.69 337.907 327.583 337.865 327.493 337.782C327.406 337.698 327.362 337.597 327.362 337.481C327.362 337.362 327.406 337.262 327.493 337.179C327.583 337.094 327.69 337.052 327.814 337.052C327.939 337.052 328.045 337.094 328.133 337.179C328.222 337.262 328.267 337.362 328.267 337.481C328.267 337.597 328.222 337.698 328.133 337.782C328.045 337.865 327.939 337.907 327.814 337.907ZM330.682 342.227C330.326 342.227 330.019 342.146 329.762 341.985C329.506 341.822 329.31 341.598 329.173 341.312C329.036 341.026 328.967 340.699 328.967 340.33C328.967 339.957 329.037 339.627 329.178 339.341C329.318 339.054 329.516 338.83 329.772 338.668C330.027 338.507 330.328 338.427 330.674 338.427C330.954 338.427 331.203 338.478 331.422 338.582C331.64 338.684 331.817 338.828 331.951 339.013C332.086 339.198 332.167 339.415 332.193 339.662H331.496C331.457 339.49 331.37 339.341 331.232 339.217C331.097 339.092 330.915 339.03 330.686 339.03C330.487 339.03 330.312 339.083 330.162 339.188C330.013 339.292 329.898 339.44 329.815 339.634C329.732 339.825 329.69 340.052 329.69 340.314C329.69 340.582 329.731 340.813 329.812 341.008C329.894 341.203 330.009 341.354 330.157 341.461C330.307 341.568 330.484 341.621 330.686 341.621C330.822 341.621 330.945 341.596 331.055 341.547C331.167 341.496 331.26 341.423 331.335 341.329C331.412 341.235 331.465 341.121 331.496 340.989H332.193C332.167 341.227 332.09 341.439 331.96 341.626C331.831 341.813 331.658 341.96 331.441 342.067C331.225 342.174 330.972 342.227 330.682 342.227Z" fill="#697082"/>
<rect x="294.827" y="332.992" width="42.6941" height="14.3222" rx="7.16112" stroke="#697082" stroke-width="0.421483"/>
<rect x="197.406" y="367.75" width="129.445" height="6.06774" rx="3.03387" fill="#EBEBEB"/>
<rect x="197.406" y="380.824" width="129.445" height="6.06774" rx="3.03387" fill="#EBEBEB"/>
<rect x="197.406" y="393.898" width="129.445" height="6.06774" rx="3.03387" fill="#EBEBEB"/>
<rect x="214.388" y="405.92" width="95.0612" height="18.2032" rx="9.10161" fill="#17A672"/>
</g>
</g>
<defs>
<filter id="filter0_d_834_3414" x="0.53479" y="0.490292" width="523.673" height="549.947" filterUnits="userSpaceOnUse" color-interpolation-filters="sRGB">
<feFlood flood-opacity="0" result="BackgroundImageFix"/>
<feColorMatrix in="SourceAlpha" type="matrix" values="0 0 0 0 0 0 0 0 0 0 0 0 0 0 0 0 0 0 127 0" result="hardAlpha"/>
<feOffset dy="-23.5562"/>
<feGaussianBlur stdDeviation="65.2326"/>
<feComposite in2="hardAlpha" operator="out"/>
<feColorMatrix type="matrix" values="0 0 0 0 0 0 0 0 0 0 0 0 0 0 0 0 0 0 0.05 0"/>
<feBlend mode="normal" in2="BackgroundImageFix" result="effect1_dropShadow_834_3414"/>
<feBlend mode="normal" in="SourceGraphic" in2="effect1_dropShadow_834_3414" result="shape"/>
</filter>
<clipPath id="clip0_834_3414">
<rect x="277.822" y="138" width="262.742" height="289.017" rx="9.06008" transform="rotate(12.8345 277.822 138)" fill="white"/>
</clipPath>
<clipPath id="clip1_834_3414">
<rect x="193.869" y="246.172" width="404.623" height="113.8" rx="12.6445" transform="rotate(14.4072 193.869 246.172)" fill="white"/>
</clipPath>
<clipPath id="clip2_834_3414">
<rect x="131" y="154.512" width="262.742" height="289.017" rx="9.06008" fill="white"/>
</clipPath>
</defs>
</svg>
