<svg width="259" height="94" viewBox="0 0 259 94" fill="none" xmlns="http://www.w3.org/2000/svg">
<g filter="url(#filter0_d_102_1564)">
<rect x="24.3711" y="20.5" width="210.333" height="44.8358" rx="22.4179" fill="#17A672" shape-rendering="crispEdges"/>
<path d="M64.5573 49L63.6963 46.4171H57.9769L57.1159 49H54.0615L59.0839 34.6503H62.5893L67.6322 49H64.5573ZM58.8789 43.7726H62.8148L60.8469 37.9097L58.8789 43.7726ZM74.4579 38.4632C75.8382 38.4632 77.0135 38.9894 77.9839 40.0417C78.9678 41.0803 79.4598 42.3581 79.4598 43.8751C79.4598 45.3921 78.9678 46.6767 77.9839 47.729C77.0135 48.7677 75.8382 49.287 74.4579 49.287C73.023 49.287 71.916 48.7882 71.137 47.7905V53.0999H68.4926V38.7502H71.137V39.9597C71.916 38.962 73.023 38.4632 74.4579 38.4632ZM71.9365 45.9661C72.4695 46.4991 73.146 46.7655 73.9659 46.7655C74.7859 46.7655 75.4624 46.4991 75.9954 45.9661C76.5421 45.4194 76.8154 44.7224 76.8154 43.8751C76.8154 43.0278 76.5421 42.3376 75.9954 41.8046C75.4624 41.258 74.7859 40.9847 73.9659 40.9847C73.146 40.9847 72.4695 41.258 71.9365 41.8046C71.4035 42.3376 71.137 43.0278 71.137 43.8751C71.137 44.7224 71.4035 45.4194 71.9365 45.9661ZM86.8802 38.4632C88.2605 38.4632 89.4358 38.9894 90.4061 40.0417C91.3901 41.0803 91.8821 42.3581 91.8821 43.8751C91.8821 45.3921 91.3901 46.6767 90.4061 47.729C89.4358 48.7677 88.2605 49.287 86.8802 49.287C85.4452 49.287 84.3382 48.7882 83.5593 47.7905V53.0999H80.9148V38.7502H83.5593V39.9597C84.3382 38.962 85.4452 38.4632 86.8802 38.4632ZM84.3587 45.9661C84.8917 46.4991 85.5682 46.7655 86.3882 46.7655C87.2082 46.7655 87.8847 46.4991 88.4177 45.9661C88.9643 45.4194 89.2376 44.7224 89.2376 43.8751C89.2376 43.0278 88.9643 42.3376 88.4177 41.8046C87.8847 41.258 87.2082 40.9847 86.3882 40.9847C85.5682 40.9847 84.8917 41.258 84.3587 41.8046C83.8258 42.3376 83.5593 43.0278 83.5593 43.8751C83.5593 44.7224 83.8258 45.4194 84.3587 45.9661ZM95.9815 40.5132C96.2275 39.8572 96.6307 39.3652 97.191 39.0372C97.765 38.7092 98.4005 38.5452 99.0975 38.5452V41.4972C98.2911 41.4015 97.5668 41.5655 96.9245 41.9891C96.2959 42.4128 95.9815 43.1166 95.9815 44.1006V49H93.3371V38.7502H95.9815V40.5132ZM108.587 47.729C107.534 48.7677 106.25 49.287 104.733 49.287C103.216 49.287 101.931 48.7677 100.879 47.729C99.84 46.6767 99.3207 45.3921 99.3207 43.8751C99.3207 42.3581 99.84 41.0803 100.879 40.0417C101.931 38.9894 103.216 38.4632 104.733 38.4632C106.25 38.4632 107.534 38.9894 108.587 40.0417C109.639 41.0803 110.165 42.3581 110.165 43.8751C110.165 45.3921 109.639 46.6767 108.587 47.729ZM102.744 45.9046C103.277 46.4376 103.94 46.704 104.733 46.704C105.525 46.704 106.188 46.4376 106.721 45.9046C107.254 45.3716 107.521 44.6951 107.521 43.8751C107.521 43.0551 107.254 42.3786 106.721 41.8456C106.188 41.3127 105.525 41.0462 104.733 41.0462C103.94 41.0462 103.277 41.3127 102.744 41.8456C102.225 42.3786 101.965 43.0551 101.965 43.8751C101.965 44.6951 102.225 45.3716 102.744 45.9046ZM117.959 38.7502H120.87L116.975 49H113.962L110.067 38.7502H112.978L115.458 45.9251L117.959 38.7502ZM123.569 44.9616C123.925 46.2462 124.888 46.8885 126.46 46.8885C127.471 46.8885 128.237 46.5469 128.756 45.8636L130.888 47.0935C129.876 48.5558 128.387 49.287 126.419 49.287C124.724 49.287 123.364 48.7745 122.339 47.7495C121.315 46.7245 120.802 45.4331 120.802 43.8751C120.802 42.3308 121.308 41.0462 122.319 40.0212C123.33 38.9825 124.629 38.4632 126.214 38.4632C127.717 38.4632 128.954 38.9825 129.924 40.0212C130.908 41.0598 131.4 42.3445 131.4 43.8751C131.4 44.2168 131.366 44.5789 131.298 44.9616H123.569ZM123.528 42.9116H128.756C128.606 42.2146 128.291 41.6953 127.813 41.3537C127.348 41.012 126.815 40.8412 126.214 40.8412C125.503 40.8412 124.916 41.0257 124.451 41.3947C123.986 41.75 123.679 42.2556 123.528 42.9116ZM140.196 40.5132C140.442 39.8572 140.845 39.3652 141.405 39.0372C141.979 38.7092 142.615 38.5452 143.312 38.5452V41.4972C142.505 41.4015 141.781 41.5655 141.139 41.9891C140.51 42.4128 140.196 43.1166 140.196 44.1006V49H137.551V38.7502H140.196V40.5132ZM146.302 44.9616C146.658 46.2462 147.621 46.8885 149.193 46.8885C150.204 46.8885 150.969 46.5469 151.489 45.8636L153.621 47.0935C152.609 48.5558 151.12 49.287 149.152 49.287C147.457 49.287 146.097 48.7745 145.072 47.7495C144.047 46.7245 143.535 45.4331 143.535 43.8751C143.535 42.3308 144.041 41.0462 145.052 40.0212C146.063 38.9825 147.362 38.4632 148.947 38.4632C150.45 38.4632 151.687 38.9825 152.657 40.0212C153.641 41.0598 154.133 42.3445 154.133 43.8751C154.133 44.2168 154.099 44.5789 154.031 44.9616H146.302ZM146.261 42.9116H151.489C151.338 42.2146 151.024 41.6953 150.546 41.3537C150.081 41.012 149.548 40.8412 148.947 40.8412C148.236 40.8412 147.649 41.0257 147.184 41.3947C146.719 41.75 146.412 42.2556 146.261 42.9116ZM163.259 38.7502H165.903V53.0999H163.259V47.7905C162.48 48.7882 161.373 49.287 159.938 49.287C158.557 49.287 157.375 48.7677 156.391 47.729C155.421 46.6767 154.936 45.3921 154.936 43.8751C154.936 42.3581 155.421 41.0803 156.391 40.0417C157.375 38.9894 158.557 38.4632 159.938 38.4632C161.373 38.4632 162.48 38.962 163.259 39.9597V38.7502ZM158.38 45.9661C158.926 46.4991 159.61 46.7655 160.43 46.7655C161.25 46.7655 161.926 46.4991 162.459 45.9661C162.992 45.4194 163.259 44.7224 163.259 43.8751C163.259 43.0278 162.992 42.3376 162.459 41.8046C161.926 41.258 161.25 40.9847 160.43 40.9847C159.61 40.9847 158.926 41.258 158.38 41.8046C157.847 42.3376 157.58 43.0278 157.58 43.8751C157.58 44.7224 157.847 45.4194 158.38 45.9661ZM174.676 38.7502H177.321V49H174.676V47.852C174.034 48.8087 173.016 49.287 171.622 49.287C170.501 49.287 169.572 48.9112 168.834 48.1595C168.11 47.4079 167.747 46.3692 167.747 45.0436V38.7502H170.392V44.7156C170.392 45.3989 170.576 45.9251 170.945 46.2941C171.314 46.6494 171.806 46.827 172.421 46.827C173.105 46.827 173.651 46.6152 174.061 46.1916C174.471 45.7679 174.676 45.1324 174.676 44.2851V38.7502ZM181.567 44.9616C181.923 46.2462 182.886 46.8885 184.458 46.8885C185.469 46.8885 186.234 46.5469 186.754 45.8636L188.886 47.0935C187.874 48.5558 186.385 49.287 184.417 49.287C182.722 49.287 181.362 48.7745 180.337 47.7495C179.312 46.7245 178.8 45.4331 178.8 43.8751C178.8 42.3308 179.305 41.0462 180.317 40.0212C181.328 38.9825 182.626 38.4632 184.212 38.4632C185.715 38.4632 186.952 38.9825 187.922 40.0212C188.906 41.0598 189.398 42.3445 189.398 43.8751C189.398 44.2168 189.364 44.5789 189.296 44.9616H181.567ZM181.526 42.9116H186.754C186.603 42.2146 186.289 41.6953 185.811 41.3537C185.346 41.012 184.813 40.8412 184.212 40.8412C183.501 40.8412 182.913 41.0257 182.449 41.3947C181.984 41.75 181.677 42.2556 181.526 42.9116ZM192.873 41.6612C192.873 41.9345 193.051 42.16 193.406 42.3376C193.775 42.5016 194.219 42.652 194.739 42.7886C195.258 42.9116 195.777 43.0756 196.297 43.2806C196.816 43.4719 197.253 43.7999 197.609 44.2646C197.978 44.7293 198.162 45.3101 198.162 46.0071C198.162 47.0594 197.766 47.8725 196.973 48.4465C196.194 49.0068 195.217 49.287 194.042 49.287C191.937 49.287 190.502 48.4738 189.737 46.8475L192.033 45.5561C192.333 46.4444 193.003 46.8885 194.042 46.8885C194.985 46.8885 195.456 46.5947 195.456 46.0071C195.456 45.7337 195.272 45.5151 194.903 45.3511C194.547 45.1734 194.11 45.0162 193.591 44.8796C193.071 44.7429 192.552 44.5721 192.033 44.3671C191.513 44.1621 191.069 43.8409 190.7 43.4036C190.345 42.9526 190.167 42.3923 190.167 41.7227C190.167 40.7113 190.536 39.9187 191.274 39.3447C192.026 38.757 192.955 38.4632 194.062 38.4632C194.896 38.4632 195.654 38.6545 196.338 39.0372C197.021 39.4062 197.561 39.9392 197.957 40.6362L195.702 41.8661C195.374 41.1692 194.828 40.8207 194.062 40.8207C193.721 40.8207 193.434 40.8958 193.201 41.0462C192.983 41.1965 192.873 41.4015 192.873 41.6612ZM205.015 41.2922H202.699V45.5561C202.699 45.9114 202.788 46.1711 202.965 46.3351C203.143 46.4991 203.403 46.5947 203.744 46.622C204.086 46.6357 204.51 46.6289 205.015 46.6015V49C203.198 49.205 201.913 49.0342 201.161 48.4875C200.423 47.9409 200.054 46.9637 200.054 45.5561V41.2922H198.271V38.7502H200.054V36.6798L202.699 35.8803V38.7502H205.015V41.2922Z" fill="white"/>
</g>
<defs>
<filter id="filter0_d_102_1564" x="0.371094" y="0.5" width="258.333" height="92.8358" filterUnits="userSpaceOnUse" color-interpolation-filters="sRGB">
<feFlood flood-opacity="0" result="BackgroundImageFix"/>
<feColorMatrix in="SourceAlpha" type="matrix" values="0 0 0 0 0 0 0 0 0 0 0 0 0 0 0 0 0 0 127 0" result="hardAlpha"/>
<feOffset dy="4"/>
<feGaussianBlur stdDeviation="12"/>
<feComposite in2="hardAlpha" operator="out"/>
<feColorMatrix type="matrix" values="0 0 0 0 0 0 0 0 0 0 0 0 0 0 0 0 0 0 0.1 0"/>
<feBlend mode="normal" in2="BackgroundImageFix" result="effect1_dropShadow_102_1564"/>
<feBlend mode="normal" in="SourceGraphic" in2="effect1_dropShadow_102_1564" result="shape"/>
</filter>
</defs>
</svg>
