<svg width="453" height="148" viewBox="0 0 453 148" fill="none" xmlns="http://www.w3.org/2000/svg">
<g filter="url(#filter0_d_102_1549)">
<rect x="24" y="20" width="404.181" height="99.5618" rx="49.7809" fill="#17A672" shape-rendering="crispEdges"/>
<ellipse cx="74.1107" cy="69.7809" rx="35.6049" ry="35.2752" fill="#8CF078"/>
<mask id="mask0_102_1549" style="mask-type:alpha" maskUnits="userSpaceOnUse" x="55" y="51" width="37" height="37">
<rect x="55" y="51" width="37" height="37" fill="#D9D9D9"/>
</mask>
<g mask="url(#mask0_102_1549)">
<path d="M68.875 83.375V75.6667C67.2819 75.5382 65.721 75.3584 64.1922 75.1271C62.6634 74.8959 61.141 74.5618 59.625 74.125L60.3958 71.0417C62.5285 71.6327 64.6868 72.0374 66.8708 72.2558C69.0549 72.4742 71.2646 72.5834 73.5 72.5834C75.7097 72.5834 77.9066 72.4742 80.0906 72.2558C82.2747 72.0374 84.4458 71.6327 86.6042 71.0417L87.375 74.125C85.8333 74.5618 84.2981 74.8959 82.7693 75.1271C81.2404 75.3584 79.6924 75.5382 78.125 75.6667V83.375H68.875ZM73.5 71.0417C72.6264 71.0417 71.8941 70.7462 71.3031 70.1552C70.7122 69.5643 70.4167 68.832 70.4167 67.9584C70.4167 67.1105 70.7122 66.3846 71.3031 65.7808C71.8941 65.177 72.6264 64.875 73.5 64.875C74.3479 64.875 75.0738 65.177 75.6776 65.7808C76.2814 66.3846 76.5833 67.1105 76.5833 67.9584C76.5833 68.832 76.2814 69.5643 75.6776 70.1552C75.0738 70.7462 74.3479 71.0417 73.5 71.0417ZM61.9375 66.4167C61.2694 66.4167 60.717 66.1983 60.2802 65.7615C59.8434 65.3247 59.625 64.7723 59.625 64.1042C59.625 63.4618 59.8434 62.9158 60.2802 62.4662C60.717 62.0165 61.2694 61.7917 61.9375 61.7917C62.5799 61.7917 63.1259 62.0165 63.5755 62.4662C64.0252 62.9158 64.25 63.4618 64.25 64.1042C64.25 64.7723 64.0252 65.3247 63.5755 65.7615C63.1259 66.1983 62.5799 66.4167 61.9375 66.4167ZM85.0625 66.4167C84.3944 66.4167 83.842 66.1983 83.4052 65.7615C82.9684 65.3247 82.75 64.7723 82.75 64.1042C82.75 63.4618 82.9684 62.9158 83.4052 62.4662C83.842 62.0165 84.3944 61.7917 85.0625 61.7917C85.7049 61.7917 86.2509 62.0165 86.7005 62.4662C87.1502 62.9158 87.375 63.4618 87.375 64.1042C87.375 64.7723 87.1502 65.3247 86.7005 65.7615C86.2509 66.1983 85.7049 66.4167 85.0625 66.4167ZM66.1771 60.6355C65.509 60.6355 64.9566 60.4171 64.5198 59.9802C64.083 59.5434 63.8646 58.991 63.8646 58.323C63.8646 57.6806 64.083 57.1346 64.5198 56.6849C64.9566 56.2353 65.509 56.0105 66.1771 56.0105C66.8194 56.0105 67.3655 56.2353 67.8151 56.6849C68.2648 57.1346 68.4896 57.6806 68.4896 58.323C68.4896 58.991 68.2648 59.5434 67.8151 59.9802C67.3655 60.4171 66.8194 60.6355 66.1771 60.6355ZM80.8229 60.6355C80.1549 60.6355 79.6024 60.4171 79.1656 59.9802C78.7288 59.5434 78.5104 58.991 78.5104 58.323C78.5104 57.6806 78.7288 57.1346 79.1656 56.6849C79.6024 56.2353 80.1549 56.0105 80.8229 56.0105C81.4653 56.0105 82.0113 56.2353 82.4609 56.6849C82.9106 57.1346 83.1354 57.6806 83.1354 58.323C83.1354 58.991 82.9106 59.5434 82.4609 59.9802C82.0113 60.4171 81.4653 60.6355 80.8229 60.6355ZM73.5 58.7084C72.8319 58.7084 72.2795 58.49 71.8427 58.0532C71.4059 57.6164 71.1875 57.0639 71.1875 56.3959C71.1875 55.7535 71.4059 55.2075 71.8427 54.7579C72.2795 54.3082 72.8319 54.0834 73.5 54.0834C74.1424 54.0834 74.6884 54.3082 75.138 54.7579C75.5877 55.2075 75.8125 55.7535 75.8125 56.3959C75.8125 57.0639 75.5877 57.6164 75.138 58.0532C74.6884 58.49 74.1424 58.7084 73.5 58.7084Z" fill="#17A672"/>
</g>
<path d="M132.054 61.5123C129.276 61.5123 126.982 60.5892 125.171 58.743C123.36 56.8969 122.454 54.6199 122.454 51.9122C122.454 49.1869 123.36 46.9099 125.171 45.0813C126.982 43.2351 129.276 42.312 132.054 42.312C133.725 42.312 135.263 42.7076 136.67 43.4989C138.094 44.2725 139.202 45.3275 139.993 46.6637L136.855 48.4836C136.397 47.6572 135.747 47.0154 134.903 46.5583C134.059 46.0835 133.109 45.8462 132.054 45.8462C130.261 45.8462 128.81 46.4088 127.703 47.5341C126.613 48.6594 126.068 50.1187 126.068 51.9122C126.068 53.688 126.613 55.1386 127.703 56.2639C128.81 57.3892 130.261 57.9518 132.054 57.9518C133.109 57.9518 134.059 57.7232 134.903 57.2661C135.764 56.7914 136.415 56.1496 136.855 55.3408L139.993 57.1606C139.202 58.4969 138.103 59.5606 136.696 60.3518C135.29 61.1255 133.742 61.5123 132.054 61.5123ZM152.856 59.5079C151.502 60.8442 149.849 61.5123 147.897 61.5123C145.946 61.5123 144.293 60.8442 142.939 59.5079C141.603 58.154 140.935 56.5012 140.935 54.5496C140.935 52.5979 141.603 50.9539 142.939 49.6176C144.293 48.2638 145.946 47.5868 147.897 47.5868C149.849 47.5868 151.502 48.2638 152.856 49.6176C154.21 50.9539 154.887 52.5979 154.887 54.5496C154.887 56.5012 154.21 58.154 152.856 59.5079ZM145.339 57.1606C146.025 57.8463 146.878 58.1892 147.897 58.1892C148.917 58.1892 149.77 57.8463 150.456 57.1606C151.141 56.4749 151.484 55.6045 151.484 54.5496C151.484 53.4946 151.141 52.6243 150.456 51.9385C149.77 51.2528 148.917 50.91 147.897 50.91C146.878 50.91 146.025 51.2528 145.339 51.9385C144.671 52.6243 144.337 53.4946 144.337 54.5496C144.337 55.6045 144.671 56.4749 145.339 57.1606ZM164.084 47.5868C165.526 47.5868 166.713 48.0704 167.645 49.0374C168.594 50.0045 169.069 51.3407 169.069 53.0463V61.1431H165.667V53.4682C165.667 52.5891 165.429 51.921 164.955 51.4638C164.48 50.9891 163.847 50.7517 163.056 50.7517C162.177 50.7517 161.473 51.0242 160.946 51.5693C160.418 52.1144 160.155 52.932 160.155 54.0221V61.1431H156.752V47.9561H160.155V49.433C160.981 48.2022 162.291 47.5868 164.084 47.5868ZM181.548 47.9561H184.871V60.5101C184.871 62.5497 184.194 64.1057 182.84 65.1783C181.504 66.2508 179.886 66.7871 177.987 66.7871C176.563 66.7871 175.306 66.5146 174.216 65.9695C173.143 65.4244 172.317 64.6244 171.737 63.5695L174.638 61.9079C175.306 63.1387 176.458 63.7541 178.093 63.7541C179.165 63.7541 180.009 63.4728 180.625 62.9101C181.24 62.3475 181.548 61.5475 181.548 60.5101V59.0859C180.546 60.4222 179.139 61.0903 177.328 61.0903C175.464 61.0903 173.899 60.4398 172.634 59.1386C171.385 57.8199 170.761 56.2199 170.761 54.3386C170.761 52.4748 171.394 50.8836 172.66 49.5649C173.926 48.2462 175.482 47.5868 177.328 47.5868C179.139 47.5868 180.546 48.255 181.548 49.5913V47.9561ZM175.192 56.9496C175.895 57.6177 176.783 57.9518 177.856 57.9518C178.928 57.9518 179.807 57.6177 180.493 56.9496C181.196 56.2639 181.548 55.3935 181.548 54.3386C181.548 53.3012 181.196 52.4484 180.493 51.7803C179.807 51.0946 178.928 50.7517 177.856 50.7517C176.783 50.7517 175.895 51.0946 175.192 51.7803C174.506 52.4484 174.163 53.3012 174.163 54.3386C174.163 55.3935 174.506 56.2639 175.192 56.9496ZM190.831 50.2242C191.147 49.3803 191.666 48.7473 192.387 48.3253C193.125 47.9033 193.943 47.6923 194.84 47.6923V51.4902C193.802 51.3671 192.871 51.5781 192.044 52.1232C191.235 52.6682 190.831 53.5737 190.831 54.8397V61.1431H187.429V47.9561H190.831V50.2242ZM205.835 47.9561H209.237V61.1431H205.835V59.587C204.815 60.8705 203.382 61.5123 201.536 61.5123C199.778 61.5123 198.266 60.8442 197 59.5079C195.751 58.154 195.127 56.5012 195.127 54.5496C195.127 52.5979 195.751 50.9539 197 49.6176C198.266 48.2638 199.778 47.5868 201.536 47.5868C203.382 47.5868 204.815 48.2286 205.835 49.5121V47.9561ZM199.558 57.2397C200.244 57.9254 201.114 58.2683 202.169 58.2683C203.224 58.2683 204.094 57.9254 204.78 57.2397C205.483 56.5364 205.835 55.6397 205.835 54.5496C205.835 53.4594 205.483 52.5715 204.78 51.8858C204.094 51.1825 203.224 50.8308 202.169 50.8308C201.114 50.8308 200.244 51.1825 199.558 51.8858C198.872 52.5715 198.529 53.4594 198.529 54.5496C198.529 55.6397 198.872 56.5364 199.558 57.2397ZM219.338 51.2264H216.357V56.7122C216.357 57.1694 216.472 57.5035 216.7 57.7144C216.929 57.9254 217.263 58.0485 217.703 58.0837C218.142 58.1013 218.687 58.0925 219.338 58.0573V61.1431C216.999 61.4068 215.346 61.187 214.379 60.4837C213.43 59.7804 212.955 58.5233 212.955 56.7122V51.2264H210.661V47.9561H212.955V45.2923L216.357 44.2637V47.9561H219.338V51.2264ZM230.118 47.9561H233.521V61.1431H230.118V59.6661C229.292 60.8969 227.982 61.5123 226.189 61.5123C224.747 61.5123 223.551 61.0288 222.602 60.0617C221.67 59.0947 221.204 57.7584 221.204 56.0529V47.9561H224.606V55.6309C224.606 56.51 224.844 57.187 225.318 57.6617C225.793 58.1188 226.426 58.3474 227.217 58.3474C228.096 58.3474 228.8 58.0749 229.327 57.5298C229.855 56.9848 230.118 56.1672 230.118 55.077V47.9561ZM236.109 61.1431V41.8901H239.512V61.1431H236.109ZM252.12 47.9561H255.522V61.1431H252.12V59.587C251.1 60.8705 249.667 61.5123 247.821 61.5123C246.063 61.5123 244.551 60.8442 243.285 59.5079C242.037 58.154 241.412 56.5012 241.412 54.5496C241.412 52.5979 242.037 50.9539 243.285 49.6176C244.551 48.2638 246.063 47.5868 247.821 47.5868C249.667 47.5868 251.1 48.2286 252.12 49.5121V47.9561ZM245.843 57.2397C246.529 57.9254 247.399 58.2683 248.454 58.2683C249.509 58.2683 250.379 57.9254 251.065 57.2397C251.769 56.5364 252.12 55.6397 252.12 54.5496C252.12 53.4594 251.769 52.5715 251.065 51.8858C250.379 51.1825 249.509 50.8308 248.454 50.8308C247.399 50.8308 246.529 51.1825 245.843 51.8858C245.157 52.5715 244.815 53.4594 244.815 54.5496C244.815 55.6397 245.157 56.5364 245.843 57.2397ZM265.623 51.2264H262.643V56.7122C262.643 57.1694 262.757 57.5035 262.986 57.7144C263.214 57.9254 263.548 58.0485 263.988 58.0837C264.427 58.1013 264.972 58.0925 265.623 58.0573V61.1431C263.285 61.4068 261.632 61.187 260.665 60.4837C259.715 59.7804 259.241 58.5233 259.241 56.7122V51.2264H256.946V47.9561H259.241V45.2923L262.643 44.2637V47.9561H265.623V51.2264ZM269.182 46.3736C268.62 46.3736 268.127 46.1714 267.705 45.767C267.301 45.345 267.099 44.8527 267.099 44.2901C267.099 43.7274 267.301 43.2351 267.705 42.8131C268.127 42.3912 268.62 42.1802 269.182 42.1802C269.763 42.1802 270.255 42.3912 270.659 42.8131C271.081 43.2351 271.292 43.7274 271.292 44.2901C271.292 44.8527 271.081 45.345 270.659 45.767C270.255 46.1714 269.763 46.3736 269.182 46.3736ZM267.494 61.1431V47.9561H270.897V61.1431H267.494ZM284.718 59.5079C283.365 60.8442 281.712 61.5123 279.76 61.5123C277.808 61.5123 276.156 60.8442 274.802 59.5079C273.466 58.154 272.797 56.5012 272.797 54.5496C272.797 52.5979 273.466 50.9539 274.802 49.6176C276.156 48.2638 277.808 47.5868 279.76 47.5868C281.712 47.5868 283.365 48.2638 284.718 49.6176C286.072 50.9539 286.749 52.5979 286.749 54.5496C286.749 56.5012 286.072 58.154 284.718 59.5079ZM277.202 57.1606C277.888 57.8463 278.74 58.1892 279.76 58.1892C280.78 58.1892 281.633 57.8463 282.318 57.1606C283.004 56.4749 283.347 55.6045 283.347 54.5496C283.347 53.4946 283.004 52.6243 282.318 51.9385C281.633 51.2528 280.78 50.91 279.76 50.91C278.74 50.91 277.888 51.2528 277.202 51.9385C276.534 52.6243 276.2 53.4946 276.2 54.5496C276.2 55.6045 276.534 56.4749 277.202 57.1606ZM295.947 47.5868C297.389 47.5868 298.576 48.0704 299.508 49.0374C300.457 50.0045 300.932 51.3407 300.932 53.0463V61.1431H297.53V53.4682C297.53 52.5891 297.292 51.921 296.817 51.4638C296.343 50.9891 295.71 50.7517 294.919 50.7517C294.039 50.7517 293.336 51.0242 292.809 51.5693C292.281 52.1144 292.017 52.932 292.017 54.0221V61.1431H288.615V47.9561H292.017V49.433C292.844 48.2022 294.154 47.5868 295.947 47.5868ZM306.448 51.7012C306.448 52.0528 306.676 52.3429 307.134 52.5715C307.608 52.7825 308.18 52.9759 308.848 53.1517C309.516 53.31 310.184 53.521 310.852 53.7847C311.52 54.0309 312.083 54.4529 312.54 55.0507C313.015 55.6485 313.252 56.3957 313.252 57.2925C313.252 58.6463 312.742 59.6925 311.723 60.431C310.72 61.1519 309.463 61.5123 307.951 61.5123C305.243 61.5123 303.397 60.4661 302.413 58.3738L305.367 56.7122C305.753 57.8551 306.615 58.4265 307.951 58.4265C309.164 58.4265 309.771 58.0485 309.771 57.2925C309.771 56.9408 309.534 56.6595 309.059 56.4485C308.602 56.2199 308.039 56.0177 307.371 55.8419C306.703 55.6661 306.035 55.4463 305.367 55.1825C304.698 54.9188 304.127 54.5056 303.652 53.943C303.195 53.3627 302.967 52.6419 302.967 51.7803C302.967 50.4792 303.441 49.4594 304.391 48.7209C305.358 47.9649 306.553 47.5868 307.978 47.5868C309.05 47.5868 310.026 47.833 310.905 48.3253C311.784 48.8 312.479 49.4858 312.989 50.3825L310.088 51.9649C309.666 51.0682 308.962 50.6198 307.978 50.6198C307.538 50.6198 307.169 50.7166 306.87 50.91C306.589 51.1034 306.448 51.3671 306.448 51.7012ZM315.675 54.9452L314.963 47.9561V42.6813H319.051V47.9561L318.365 54.9452H315.675ZM318.602 60.8266C318.163 61.2661 317.635 61.4859 317.02 61.4859C316.404 61.4859 315.877 61.2661 315.437 60.8266C314.998 60.387 314.778 59.8595 314.778 59.2441C314.778 58.6287 314.998 58.1013 315.437 57.6617C315.877 57.2221 316.404 57.0024 317.02 57.0024C317.635 57.0024 318.163 57.2221 318.602 57.6617C319.042 58.1013 319.262 58.6287 319.262 59.2441C319.262 59.8595 319.042 60.387 318.602 60.8266ZM342.407 42.6813L336.077 53.943V61.1431H332.464V53.943L326.16 42.6813H330.275L334.284 50.3825L338.292 42.6813H342.407ZM352.099 59.5079C350.745 60.8442 349.092 61.5123 347.14 61.5123C345.189 61.5123 343.536 60.8442 342.182 59.5079C340.846 58.154 340.178 56.5012 340.178 54.5496C340.178 52.5979 340.846 50.9539 342.182 49.6176C343.536 48.2638 345.189 47.5868 347.14 47.5868C349.092 47.5868 350.745 48.2638 352.099 49.6176C353.453 50.9539 354.13 52.5979 354.13 54.5496C354.13 56.5012 353.453 58.154 352.099 59.5079ZM344.582 57.1606C345.268 57.8463 346.121 58.1892 347.14 58.1892C348.16 58.1892 349.013 57.8463 349.699 57.1606C350.384 56.4749 350.727 55.6045 350.727 54.5496C350.727 53.4946 350.384 52.6243 349.699 51.9385C349.013 51.2528 348.16 50.91 347.14 50.91C346.121 50.91 345.268 51.2528 344.582 51.9385C343.914 52.6243 343.58 53.4946 343.58 54.5496C343.58 55.6045 343.914 56.4749 344.582 57.1606ZM364.699 47.9561H368.101V61.1431H364.699V59.6661C363.873 60.8969 362.563 61.5123 360.769 61.5123C359.327 61.5123 358.132 61.0288 357.182 60.0617C356.25 59.0947 355.785 57.7584 355.785 56.0529V47.9561H359.187V55.6309C359.187 56.51 359.424 57.187 359.899 57.6617C360.374 58.1188 361.007 58.3474 361.798 58.3474C362.677 58.3474 363.38 58.0749 363.908 57.5298C364.435 56.9848 364.699 56.1672 364.699 55.077V47.9561ZM133.162 80.9561H136.564V94.1431H133.162V92.587C132.142 93.8705 130.709 94.5123 128.863 94.5123C127.105 94.5123 125.593 93.8442 124.327 92.5079C123.079 91.154 122.454 89.5012 122.454 87.5496C122.454 85.5979 123.079 83.9539 124.327 82.6176C125.593 81.2638 127.105 80.5868 128.863 80.5868C130.709 80.5868 132.142 81.2286 133.162 82.5121V80.9561ZM126.885 90.2397C127.571 90.9254 128.441 91.2683 129.496 91.2683C130.551 91.2683 131.421 90.9254 132.107 90.2397C132.811 89.5364 133.162 88.6397 133.162 87.5496C133.162 86.4594 132.811 85.5715 132.107 84.8858C131.421 84.1825 130.551 83.8308 129.496 83.8308C128.441 83.8308 127.571 84.1825 126.885 84.8858C126.199 85.5715 125.857 86.4594 125.857 87.5496C125.857 88.6397 126.199 89.5364 126.885 90.2397ZM142.524 83.2242C142.841 82.3803 143.359 81.7473 144.08 81.3253C144.819 80.9033 145.636 80.6923 146.533 80.6923V84.4902C145.496 84.3671 144.564 84.5781 143.738 85.1232C142.929 85.6682 142.524 86.5737 142.524 87.8397V94.1431H139.122V80.9561H142.524V83.2242ZM150.381 88.9474C150.838 90.6002 152.078 91.4265 154.1 91.4265C155.401 91.4265 156.385 90.987 157.053 90.1078L159.796 91.6903C158.495 93.5716 156.579 94.5123 154.047 94.5123C151.867 94.5123 150.117 93.853 148.798 92.5343C147.48 91.2156 146.82 89.554 146.82 87.5496C146.82 85.5627 147.471 83.91 148.772 82.5913C150.073 81.255 151.744 80.5868 153.783 80.5868C155.717 80.5868 157.308 81.255 158.557 82.5913C159.823 83.9275 160.456 85.5803 160.456 87.5496C160.456 87.9891 160.412 88.4551 160.324 88.9474H150.381ZM150.328 86.31H157.053C156.86 85.4133 156.456 84.7451 155.84 84.3056C155.242 83.866 154.557 83.6462 153.783 83.6462C152.869 83.6462 152.113 83.8836 151.515 84.3583C150.917 84.8155 150.522 85.466 150.328 86.31ZM177.046 80.9561H180.792L175.78 94.1431H171.903L166.892 80.9561H170.638L173.829 90.187L177.046 80.9561ZM184.264 88.9474C184.721 90.6002 185.961 91.4265 187.983 91.4265C189.284 91.4265 190.269 90.987 190.937 90.1078L193.68 91.6903C192.379 93.5716 190.462 94.5123 187.93 94.5123C185.75 94.5123 184 93.853 182.682 92.5343C181.363 91.2156 180.704 89.554 180.704 87.5496C180.704 85.5627 181.354 83.91 182.655 82.5913C183.957 81.255 185.627 80.5868 187.666 80.5868C189.601 80.5868 191.192 81.255 192.44 82.5913C193.706 83.9275 194.339 85.5803 194.339 87.5496C194.339 87.9891 194.295 88.4551 194.207 88.9474H184.264ZM184.211 86.31H190.937C190.743 85.4133 190.339 84.7451 189.724 84.3056C189.126 83.866 188.44 83.6462 187.666 83.6462C186.752 83.6462 185.996 83.8836 185.398 84.3583C184.801 84.8155 184.405 85.466 184.211 86.31ZM199.589 83.2242C199.905 82.3803 200.424 81.7473 201.145 81.3253C201.883 80.9033 202.701 80.6923 203.598 80.6923V84.4902C202.56 84.3671 201.629 84.5781 200.802 85.1232C199.993 85.6682 199.589 86.5737 199.589 87.8397V94.1431H196.187V80.9561H199.589V83.2242ZM206.748 79.3736C206.185 79.3736 205.693 79.1714 205.271 78.767C204.867 78.345 204.665 77.8527 204.665 77.2901C204.665 76.7274 204.867 76.2351 205.271 75.8131C205.693 75.3912 206.185 75.1802 206.748 75.1802C207.328 75.1802 207.821 75.3912 208.225 75.8131C208.647 76.2351 208.858 76.7274 208.858 77.2901C208.858 77.8527 208.647 78.345 208.225 78.767C207.821 79.1714 207.328 79.3736 206.748 79.3736ZM205.06 94.1431V80.9561H208.462V94.1431H205.06ZM222.627 80.9561V94.1431H219.225V84.2264H215.348V94.1431H211.946V84.2264H210.047V80.9561H211.946V80.8242C211.946 77.1494 214.012 75.312 218.143 75.312C219.075 75.312 220.104 75.4351 221.229 75.6813V78.7934C220.051 78.6527 219.023 78.5824 218.143 78.5824C217.194 78.5824 216.491 78.7494 216.034 79.0835C215.576 79.4 215.348 79.9802 215.348 80.8242V80.9561H222.627ZM228.077 88.9474C228.534 90.6002 229.774 91.4265 231.796 91.4265C233.097 91.4265 234.081 90.987 234.75 90.1078L237.492 91.6903C236.191 93.5716 234.275 94.5123 231.743 94.5123C229.563 94.5123 227.813 93.853 226.495 92.5343C225.176 91.2156 224.516 89.554 224.516 87.5496C224.516 85.5627 225.167 83.91 226.468 82.5913C227.769 81.255 229.44 80.5868 231.479 80.5868C233.413 80.5868 235.005 81.255 236.253 82.5913C237.519 83.9275 238.152 85.5803 238.152 87.5496C238.152 87.9891 238.108 88.4551 238.02 88.9474H228.077ZM228.024 86.31H234.75C234.556 85.4133 234.152 84.7451 233.536 84.3056C232.939 83.866 232.253 83.6462 231.479 83.6462C230.565 83.6462 229.809 83.8836 229.211 84.3583C228.613 84.8155 228.218 85.466 228.024 86.31ZM249.892 75.6813H253.294V94.1431H249.892V92.587C248.89 93.8705 247.466 94.5123 245.62 94.5123C243.844 94.5123 242.323 93.8442 241.057 92.5079C239.809 91.154 239.184 89.5012 239.184 87.5496C239.184 85.5979 239.809 83.9539 241.057 82.6176C242.323 81.2638 243.844 80.5868 245.62 80.5868C247.466 80.5868 248.89 81.2286 249.892 82.5121V75.6813ZM243.615 90.2397C244.318 90.9254 245.198 91.2683 246.253 91.2683C247.308 91.2683 248.178 90.9254 248.864 90.2397C249.549 89.5364 249.892 88.6397 249.892 87.5496C249.892 86.4594 249.549 85.5715 248.864 84.8858C248.178 84.1825 247.308 83.8308 246.253 83.8308C245.198 83.8308 244.318 84.1825 243.615 84.8858C242.929 85.5715 242.587 86.4594 242.587 87.5496C242.587 88.6397 242.929 89.5364 243.615 90.2397ZM269.276 80.5868C270.718 80.5868 271.905 81.0704 272.837 82.0374C273.786 83.0045 274.261 84.3407 274.261 86.0463V94.1431H270.859V86.4682C270.859 85.5891 270.622 84.921 270.147 84.4638C269.672 83.9891 269.039 83.7517 268.248 83.7517C267.369 83.7517 266.665 84.0242 266.138 84.5693C265.61 85.1144 265.347 85.932 265.347 87.0221V94.1431H261.944V80.9561H265.347V82.433C266.173 81.2022 267.483 80.5868 269.276 80.5868ZM287.874 92.5079C286.52 93.8442 284.867 94.5123 282.916 94.5123C280.964 94.5123 279.311 93.8442 277.957 92.5079C276.621 91.154 275.953 89.5012 275.953 87.5496C275.953 85.5979 276.621 83.9539 277.957 82.6176C279.311 81.2638 280.964 80.5868 282.916 80.5868C284.867 80.5868 286.52 81.2638 287.874 82.6176C289.228 83.9539 289.905 85.5979 289.905 87.5496C289.905 89.5012 289.228 91.154 287.874 92.5079ZM280.357 90.1606C281.043 90.8463 281.896 91.1892 282.916 91.1892C283.936 91.1892 284.788 90.8463 285.474 90.1606C286.16 89.4749 286.503 88.6045 286.503 87.5496C286.503 86.4946 286.16 85.6243 285.474 84.9385C284.788 84.2528 283.936 83.91 282.916 83.91C281.896 83.91 281.043 84.2528 280.357 84.9385C279.689 85.6243 279.355 86.4946 279.355 87.5496C279.355 88.6045 279.689 89.4749 280.357 90.1606ZM306.104 80.9561H309.717L305.524 94.1431H302.28L299.854 86.1517L297.427 94.1431H294.183L289.99 80.9561H293.603L295.845 89.0529L298.245 80.9561H301.462L303.862 89.0793L306.104 80.9561ZM312.189 93.8266C311.749 94.2661 311.222 94.4859 310.607 94.4859C309.991 94.4859 309.464 94.2661 309.024 93.8266C308.585 93.387 308.365 92.8595 308.365 92.2441C308.365 91.6287 308.585 91.1013 309.024 90.6617C309.464 90.2221 309.991 90.0024 310.607 90.0024C311.222 90.0024 311.749 90.2221 312.189 90.6617C312.629 91.1013 312.848 91.6287 312.848 92.2441C312.848 92.8595 312.629 93.387 312.189 93.8266Z" fill="white"/>
</g>
<defs>
<filter id="filter0_d_102_1549" x="0" y="0" width="452.181" height="147.562" filterUnits="userSpaceOnUse" color-interpolation-filters="sRGB">
<feFlood flood-opacity="0" result="BackgroundImageFix"/>
<feColorMatrix in="SourceAlpha" type="matrix" values="0 0 0 0 0 0 0 0 0 0 0 0 0 0 0 0 0 0 127 0" result="hardAlpha"/>
<feOffset dy="4"/>
<feGaussianBlur stdDeviation="12"/>
<feComposite in2="hardAlpha" operator="out"/>
<feColorMatrix type="matrix" values="0 0 0 0 0 0 0 0 0 0 0 0 0 0 0 0 0 0 0.1 0"/>
<feBlend mode="normal" in2="BackgroundImageFix" result="effect1_dropShadow_102_1549"/>
<feBlend mode="normal" in="SourceGraphic" in2="effect1_dropShadow_102_1549" result="shape"/>
</filter>
</defs>
</svg>
