<svg width="313" height="205" viewBox="0 0 313 205" fill="none" xmlns="http://www.w3.org/2000/svg">
<g filter="url(#filter0_d_102_1525)">
<g clip-path="url(#clip0_102_1525)">
<rect x="24.6006" y="20.0254" width="264.399" height="156.925" rx="22" fill="#8CF078"/>
<rect width="264.399" height="46.1545" transform="translate(24.6006 20.0254)" fill="white"/>
<circle cx="47.019" cy="43.1025" r="13.187" fill="#8CF078"/>
<rect x="70.7549" y="31.2344" width="160.222" height="8.57154" rx="4.28577" fill="#CEFFC5"/>
<rect x="70.7549" y="46.3994" width="160.222" height="8.57154" rx="4.28577" fill="#CEFFC5"/>
<mask id="mask0_102_1525" style="mask-type:alpha" maskUnits="userSpaceOnUse" x="257" y="35" width="17" height="17">
<rect x="257.351" y="35.8496" width="15.8244" height="15.8244" fill="#D9D9D9"/>
</mask>
<g mask="url(#mask0_102_1525)">
<path d="M262.642 50.3553L261.472 49.185L266.895 43.7618L261.472 38.3387L262.642 37.1683L269.236 43.7618L262.642 50.3553Z" fill="#1C1B1F"/>
</g>
<path d="M54.5865 110.598L53.5392 107.456H46.5819L45.5345 110.598H41.819L47.9284 93.1421H52.1926L58.3271 110.598H54.5865ZM47.6791 104.239H52.4669L50.073 97.107L47.6791 104.239ZM59.3736 110.598V92.394H62.5905V110.598H59.3736ZM65.036 110.598V92.394H68.2528V110.598H65.036ZM84.5632 98.1294H88.0045L83.466 110.598C82.8176 112.393 81.9532 113.69 80.8726 114.488C79.8086 115.303 78.4786 115.668 76.8827 115.585V112.593C77.7472 112.609 78.4288 112.426 78.9275 112.044C79.4429 111.662 79.8502 111.047 80.1494 110.199L75.0374 98.1294H78.5535L81.7952 106.508L84.5632 98.1294ZM99.1726 109.052C97.8925 110.315 96.3298 110.947 94.4845 110.947C92.6392 110.947 91.0765 110.315 89.7964 109.052C88.5329 107.772 87.9012 106.209 87.9012 104.364C87.9012 102.518 88.5329 100.964 89.7964 99.7004C91.0765 98.4204 92.6392 97.7803 94.4845 97.7803C96.3298 97.7803 97.8925 98.4204 99.1726 99.7004C100.453 100.964 101.093 102.518 101.093 104.364C101.093 106.209 100.453 107.772 99.1726 109.052ZM92.0656 106.832C92.714 107.481 93.5203 107.805 94.4845 107.805C95.4487 107.805 96.255 107.481 96.9034 106.832C97.5517 106.184 97.8759 105.361 97.8759 104.364C97.8759 103.366 97.5517 102.543 96.9034 101.895C96.255 101.247 95.4487 100.922 94.4845 100.922C93.5203 100.922 92.714 101.247 92.0656 101.895C91.4339 102.543 91.118 103.366 91.118 104.364C91.118 105.361 91.4339 106.184 92.0656 106.832ZM111.086 98.1294H114.303V110.598H111.086V109.201C110.305 110.365 109.066 110.947 107.371 110.947C106.007 110.947 104.877 110.49 103.979 109.575C103.098 108.661 102.658 107.398 102.658 105.785V98.1294H105.874V105.386C105.874 106.217 106.099 106.857 106.548 107.306C106.996 107.738 107.595 107.954 108.343 107.954C109.174 107.954 109.839 107.697 110.338 107.181C110.837 106.666 111.086 105.893 111.086 104.862V98.1294ZM119.967 100.274C120.267 99.476 120.757 98.8775 121.439 98.4785C122.137 98.0795 122.91 97.8801 123.758 97.8801V101.471C122.777 101.355 121.896 101.554 121.114 102.069C120.35 102.585 119.967 103.441 119.967 104.638V110.598H116.75V98.1294H119.967V100.274ZM140.327 93.1421H143.544V110.598H140.327V109.127C139.379 110.34 138.033 110.947 136.287 110.947C134.608 110.947 133.17 110.315 131.973 109.052C130.793 107.772 130.202 106.209 130.202 104.364C130.202 102.518 130.793 100.964 131.973 99.7004C133.17 98.4204 134.608 97.7803 136.287 97.7803C138.033 97.7803 139.379 98.3871 140.327 99.6007V93.1421ZM134.392 106.907C135.057 107.555 135.888 107.88 136.885 107.88C137.883 107.88 138.706 107.555 139.354 106.907C140.003 106.242 140.327 105.394 140.327 104.364C140.327 103.333 140.003 102.493 139.354 101.845C138.706 101.18 137.883 100.848 136.885 100.848C135.888 100.848 135.057 101.18 134.392 101.845C133.743 102.493 133.419 103.333 133.419 104.364C133.419 105.394 133.743 106.242 134.392 106.907ZM156.61 109.052C155.33 110.315 153.767 110.947 151.922 110.947C150.076 110.947 148.514 110.315 147.234 109.052C145.97 107.772 145.338 106.209 145.338 104.364C145.338 102.518 145.97 100.964 147.234 99.7004C148.514 98.4204 150.076 97.7803 151.922 97.7803C153.767 97.7803 155.33 98.4204 156.61 99.7004C157.89 100.964 158.53 102.518 158.53 104.364C158.53 106.209 157.89 107.772 156.61 109.052ZM149.503 106.832C150.151 107.481 150.958 107.805 151.922 107.805C152.886 107.805 153.692 107.481 154.341 106.832C154.989 106.184 155.313 105.361 155.313 104.364C155.313 103.366 154.989 102.543 154.341 101.895C153.692 101.247 152.886 100.922 151.922 100.922C150.958 100.922 150.151 101.247 149.503 101.895C148.871 102.543 148.555 103.366 148.555 104.364C148.555 105.361 148.871 106.184 149.503 106.832ZM166.229 110.947C164.351 110.947 162.78 110.315 161.516 109.052C160.269 107.788 159.646 106.226 159.646 104.364C159.646 102.502 160.269 100.939 161.516 99.6755C162.78 98.412 164.351 97.7803 166.229 97.7803C167.443 97.7803 168.548 98.0712 169.546 98.6531C170.543 99.2349 171.3 100.016 171.815 100.997L169.047 102.618C168.798 102.103 168.415 101.695 167.9 101.396C167.401 101.097 166.836 100.947 166.204 100.947C165.24 100.947 164.442 101.271 163.81 101.92C163.179 102.552 162.863 103.366 162.863 104.364C162.863 105.344 163.179 106.159 163.81 106.807C164.442 107.439 165.24 107.755 166.204 107.755C166.853 107.755 167.426 107.614 167.925 107.331C168.44 107.032 168.823 106.625 169.072 106.109L171.865 107.705C171.316 108.686 170.543 109.476 169.546 110.074C168.548 110.656 167.443 110.947 166.229 110.947ZM181.394 98.1294H184.611V110.598H181.394V109.201C180.613 110.365 179.374 110.947 177.678 110.947C176.315 110.947 175.185 110.49 174.287 109.575C173.406 108.661 172.965 107.398 172.965 105.785V98.1294H176.182V105.386C176.182 106.217 176.407 106.857 176.856 107.306C177.304 107.738 177.903 107.954 178.651 107.954C179.482 107.954 180.147 107.697 180.646 107.181C181.145 106.666 181.394 105.893 181.394 104.862V98.1294ZM200.848 97.7803C202.278 97.7803 203.417 98.2458 204.265 99.1768C205.129 100.108 205.561 101.355 205.561 102.917V110.598H202.345V103.142C202.345 102.394 202.162 101.812 201.796 101.396C201.43 100.981 200.915 100.773 200.25 100.773C199.518 100.773 198.945 101.014 198.529 101.496C198.13 101.978 197.931 102.676 197.931 103.591V110.598H194.714V103.142C194.714 102.394 194.531 101.812 194.165 101.396C193.8 100.981 193.284 100.773 192.619 100.773C191.904 100.773 191.331 101.014 190.899 101.496C190.483 101.978 190.275 102.676 190.275 103.591V110.598H187.058V98.1294H190.275V99.4511C191.023 98.3372 192.179 97.7803 193.741 97.7803C195.271 97.7803 196.401 98.3788 197.133 99.5758C197.964 98.3788 199.203 97.7803 200.848 97.7803ZM210.513 105.685C210.945 107.248 212.117 108.029 214.029 108.029C215.259 108.029 216.19 107.614 216.822 106.782L219.415 108.279C218.185 110.057 216.373 110.947 213.979 110.947C211.918 110.947 210.264 110.323 209.017 109.077C207.77 107.83 207.146 106.259 207.146 104.364C207.146 102.485 207.762 100.922 208.992 99.6755C210.222 98.412 211.801 97.7803 213.73 97.7803C215.558 97.7803 217.063 98.412 218.243 99.6755C219.44 100.939 220.039 102.502 220.039 104.364C220.039 104.779 219.997 105.22 219.914 105.685H210.513ZM210.463 103.192H216.822C216.639 102.344 216.257 101.712 215.675 101.296C215.11 100.881 214.461 100.673 213.73 100.673C212.865 100.673 212.15 100.897 211.585 101.346C211.02 101.778 210.646 102.394 210.463 103.192ZM228.718 97.7803C230.081 97.7803 231.203 98.2375 232.084 99.1518C232.982 100.066 233.431 101.33 233.431 102.942V110.598H230.214V103.341C230.214 102.51 229.99 101.878 229.541 101.446C229.092 100.997 228.494 100.773 227.746 100.773C226.914 100.773 226.249 101.03 225.751 101.546C225.252 102.061 225.002 102.834 225.002 103.865V110.598H221.786V98.1294H225.002V99.5259C225.784 98.3622 227.022 97.7803 228.718 97.7803ZM242.811 101.222H239.993V106.408C239.993 106.841 240.101 107.157 240.317 107.356C240.533 107.555 240.849 107.672 241.265 107.705C241.681 107.722 242.196 107.713 242.811 107.68V110.598C240.6 110.847 239.037 110.639 238.123 109.974C237.225 109.309 236.776 108.121 236.776 106.408V101.222H234.607V98.1294H236.776V95.6108L239.993 94.6383V98.1294H242.811V101.222ZM51.4445 129.129H54.6614V141.598H51.4445V140.201C50.6632 141.365 49.4246 141.947 47.729 141.947C46.3657 141.947 45.2353 141.49 44.3376 140.575C43.4565 139.661 43.0159 138.398 43.0159 136.785V129.129H46.2327V136.386C46.2327 137.217 46.4572 137.857 46.906 138.306C47.3549 138.738 47.9534 138.954 48.7015 138.954C49.5327 138.954 50.1977 138.697 50.6964 138.181C51.1952 137.666 51.4445 136.893 51.4445 135.862V129.129ZM64.3654 128.78C66.0445 128.78 67.4742 129.42 68.6546 130.7C69.8515 131.964 70.45 133.518 70.45 135.364C70.45 137.209 69.8515 138.772 68.6546 140.052C67.4742 141.315 66.0445 141.947 64.3654 141.947C62.6199 141.947 61.2733 141.34 60.3257 140.127V146.585H57.1089V129.129H60.3257V130.601C61.2733 129.387 62.6199 128.78 64.3654 128.78ZM61.2982 137.907C61.9466 138.555 62.7695 138.88 63.767 138.88C64.7644 138.88 65.5873 138.555 66.2357 137.907C66.9007 137.242 67.2332 136.394 67.2332 135.364C67.2332 134.333 66.9007 133.493 66.2357 132.845C65.5873 132.18 64.7644 131.848 63.767 131.848C62.7695 131.848 61.9466 132.18 61.2982 132.845C60.6499 133.493 60.3257 134.333 60.3257 135.364C60.3257 136.394 60.6499 137.242 61.2982 137.907ZM81.6709 124.142H84.8878V141.598H81.6709V140.127C80.7233 141.34 79.3768 141.947 77.6312 141.947C75.9521 141.947 74.5141 141.315 73.3171 140.052C72.1368 138.772 71.5466 137.209 71.5466 135.364C71.5466 133.518 72.1368 131.964 73.3171 130.7C74.5141 129.42 75.9521 128.78 77.6312 128.78C79.3768 128.78 80.7233 129.387 81.6709 130.601V124.142ZM75.736 137.907C76.401 138.555 77.2322 138.88 78.2297 138.88C79.2271 138.88 80.05 138.555 80.6984 137.907C81.3468 137.242 81.6709 136.394 81.6709 135.364C81.6709 134.333 81.3468 133.493 80.6984 132.845C80.05 132.18 79.2271 131.848 78.2297 131.848C77.2322 131.848 76.401 132.18 75.736 132.845C75.0876 133.493 74.7635 134.333 74.7635 135.364C74.7635 136.394 75.0876 137.242 75.736 137.907ZM96.8069 129.129H100.024V141.598H96.8069V140.127C95.8427 141.34 94.4878 141.947 92.7422 141.947C91.0798 141.947 89.6501 141.315 88.4531 140.052C87.2728 138.772 86.6826 137.209 86.6826 135.364C86.6826 133.518 87.2728 131.964 88.4531 130.7C89.6501 129.42 91.0798 128.78 92.7422 128.78C94.4878 128.78 95.8427 129.387 96.8069 130.601V129.129ZM90.872 137.907C91.5203 138.555 92.3433 138.88 93.3407 138.88C94.3382 138.88 95.1611 138.555 95.8095 137.907C96.4744 137.242 96.8069 136.394 96.8069 135.364C96.8069 134.333 96.4744 133.493 95.8095 132.845C95.1611 132.18 94.3382 131.848 93.3407 131.848C92.3433 131.848 91.5203 132.18 90.872 132.845C90.2236 133.493 89.8995 134.333 89.8995 135.364C89.8995 136.394 90.2236 137.242 90.872 137.907ZM109.574 132.222H106.756V137.408C106.756 137.841 106.864 138.157 107.08 138.356C107.296 138.555 107.612 138.672 108.028 138.705C108.443 138.722 108.959 138.713 109.574 138.68V141.598C107.363 141.847 105.8 141.639 104.886 140.974C103.988 140.309 103.539 139.121 103.539 137.408V132.222H101.37V129.129H103.539V126.611L106.756 125.638V129.129H109.574V132.222ZM113.672 136.685C114.104 138.248 115.276 139.029 117.188 139.029C118.418 139.029 119.349 138.614 119.981 137.782L122.574 139.279C121.344 141.057 119.532 141.947 117.138 141.947C115.077 141.947 113.422 141.323 112.176 140.077C110.929 138.83 110.305 137.259 110.305 135.364C110.305 133.485 110.92 131.922 112.151 130.675C113.381 129.412 114.96 128.78 116.889 128.78C118.717 128.78 120.222 129.412 121.402 130.675C122.599 131.939 123.198 133.502 123.198 135.364C123.198 135.779 123.156 136.22 123.073 136.685H113.672ZM113.622 134.192H119.981C119.798 133.344 119.415 132.712 118.834 132.296C118.268 131.881 117.62 131.673 116.889 131.673C116.024 131.673 115.309 131.897 114.744 132.346C114.179 132.778 113.805 133.394 113.622 134.192ZM134.298 124.142H137.515V141.598H134.298V140.127C133.351 141.34 132.004 141.947 130.258 141.947C128.579 141.947 127.141 141.315 125.944 140.052C124.764 138.772 124.174 137.209 124.174 135.364C124.174 133.518 124.764 131.964 125.944 130.7C127.141 129.42 128.579 128.78 130.258 128.78C132.004 128.78 133.351 129.387 134.298 130.601V124.142ZM128.363 137.907C129.028 138.555 129.859 138.88 130.857 138.88C131.854 138.88 132.677 138.555 133.326 137.907C133.974 137.242 134.298 136.394 134.298 135.364C134.298 134.333 133.974 133.493 133.326 132.845C132.677 132.18 131.854 131.848 130.857 131.848C129.859 131.848 129.028 132.18 128.363 132.845C127.715 133.493 127.391 134.333 127.391 135.364C127.391 136.394 127.715 137.242 128.363 137.907ZM140.557 135.738L139.883 129.129V124.142H143.749V129.129L143.1 135.738H140.557ZM143.325 141.299C142.909 141.714 142.41 141.922 141.828 141.922C141.247 141.922 140.748 141.714 140.332 141.299C139.917 140.883 139.709 140.384 139.709 139.802C139.709 139.22 139.917 138.722 140.332 138.306C140.748 137.891 141.247 137.683 141.828 137.683C142.41 137.683 142.909 137.891 143.325 138.306C143.74 138.722 143.948 139.22 143.948 139.802C143.948 140.384 143.74 140.883 143.325 141.299Z" fill="#191819"/>
</g>
</g>
<defs>
<filter id="filter0_d_102_1525" x="0.600586" y="0.0253906" width="312.399" height="204.925" filterUnits="userSpaceOnUse" color-interpolation-filters="sRGB">
<feFlood flood-opacity="0" result="BackgroundImageFix"/>
<feColorMatrix in="SourceAlpha" type="matrix" values="0 0 0 0 0 0 0 0 0 0 0 0 0 0 0 0 0 0 127 0" result="hardAlpha"/>
<feOffset dy="4"/>
<feGaussianBlur stdDeviation="12"/>
<feComposite in2="hardAlpha" operator="out"/>
<feColorMatrix type="matrix" values="0 0 0 0 0 0 0 0 0 0 0 0 0 0 0 0 0 0 0.1 0"/>
<feBlend mode="normal" in2="BackgroundImageFix" result="effect1_dropShadow_102_1525"/>
<feBlend mode="normal" in="SourceGraphic" in2="effect1_dropShadow_102_1525" result="shape"/>
</filter>
<clipPath id="clip0_102_1525">
<rect x="24.6006" y="20.0254" width="264.399" height="156.925" rx="22" fill="white"/>
</clipPath>
</defs>
</svg>
