<svg width="267" height="43" viewBox="0 0 267 43" fill="none" xmlns="http://www.w3.org/2000/svg">
<rect width="112.835" height="42.1984" rx="21.0992" fill="#17A672"/>
<path d="M19.5544 31.5338L17.6661 28.3536L14.0884 27.5586L14.4363 23.8815L12.0015 21.0989L14.4363 18.3162L14.0884 14.6391L17.6661 13.8441L19.5544 10.6639L22.9333 12.105L26.3122 10.6639L28.2004 13.8441L31.7781 14.6391L31.4303 18.3162L33.8651 21.0989L31.4303 23.8815L31.7781 27.5586L28.2004 28.3536L26.3122 31.5338L22.9333 30.0928L19.5544 31.5338ZM21.8898 24.6269L27.5048 19.0119L26.1135 17.5709L21.8898 21.7945L19.7531 19.7075L18.3618 21.0989L21.8898 24.6269Z" fill="#8CF078"/>
<path d="M48.4716 25.843L44.9941 15.4846H47.2138L49.7442 23.4458L52.2598 15.4846H54.4942L51.002 25.843H48.4716ZM55.8392 22.9279C56.0957 23.8552 56.7912 24.3189 57.9256 24.3189C58.6557 24.3189 59.2081 24.0722 59.583 23.579L61.1219 24.4668C60.3919 25.5224 59.3166 26.0502 57.8961 26.0502C56.6728 26.0502 55.6912 25.6802 54.9513 24.9404C54.2114 24.2005 53.8415 23.2682 53.8415 22.1436C53.8415 21.0288 54.2065 20.1015 54.9365 19.3616C55.6665 18.6119 56.6037 18.237 57.7481 18.237C58.8332 18.237 59.726 18.6119 60.4265 19.3616C61.1367 20.1114 61.4919 21.0387 61.4919 22.1436C61.4919 22.3902 61.4672 22.6517 61.4179 22.9279H55.8392ZM55.8096 21.4481H59.583C59.4745 20.945 59.2476 20.5701 58.9023 20.3235C58.5669 20.0769 58.1821 19.9535 57.7481 19.9535C57.2351 19.9535 56.8109 20.0867 56.4755 20.3531C56.1401 20.6096 55.9181 20.9746 55.8096 21.4481ZM64.4374 19.7168C64.615 19.2433 64.906 18.8881 65.3105 18.6513C65.7248 18.4146 66.1836 18.2962 66.6867 18.2962V20.4271C66.1046 20.358 65.5818 20.4764 65.1181 20.7822C64.6643 21.088 64.4374 21.5961 64.4374 22.3064V25.843H62.5285V18.4442H64.4374V19.7168ZM68.4542 17.5563C68.1385 17.5563 67.8623 17.4429 67.6255 17.216C67.3986 16.9792 67.2852 16.703 67.2852 16.3873C67.2852 16.0716 67.3986 15.7954 67.6255 15.5586C67.8623 15.3219 68.1385 15.2035 68.4542 15.2035C68.7797 15.2035 69.056 15.3219 69.2829 15.5586C69.5196 15.7954 69.638 16.0716 69.638 16.3873C69.638 16.703 69.5196 16.9792 69.2829 17.216C69.056 17.4429 68.7797 17.5563 68.4542 17.5563ZM67.5071 25.843V18.4442H69.416V25.843H67.5071ZM77.3634 18.4442V25.843H75.4545V20.2791H73.2793V25.843H71.3704V20.2791H70.3049V18.4442H71.3704V18.3702C71.3704 16.3084 72.5295 15.2775 74.8478 15.2775C75.3707 15.2775 75.9478 15.3465 76.5792 15.4846V17.2308C75.9182 17.1518 75.3411 17.1124 74.8478 17.1124C74.3151 17.1124 73.9205 17.2061 73.664 17.3935C73.4075 17.5711 73.2793 17.8967 73.2793 18.3702V18.4442H77.3634ZM80.4212 22.9279C80.6777 23.8552 81.3732 24.3189 82.5077 24.3189C83.2377 24.3189 83.7902 24.0722 84.165 23.579L85.704 24.4668C84.974 25.5224 83.8987 26.0502 82.4781 26.0502C81.2548 26.0502 80.2733 25.6802 79.5334 24.9404C78.7935 24.2005 78.4235 23.2682 78.4235 22.1436C78.4235 21.0288 78.7886 20.1015 79.5186 19.3616C80.2486 18.6119 81.1858 18.237 82.3301 18.237C83.4153 18.237 84.3081 18.6119 85.0085 19.3616C85.7188 20.1114 86.0739 21.0387 86.0739 22.1436C86.0739 22.3902 86.0493 22.6517 86 22.9279H80.4212ZM80.3916 21.4481H84.165C84.0565 20.945 83.8296 20.5701 83.4844 20.3235C83.1489 20.0769 82.7642 19.9535 82.3301 19.9535C81.8172 19.9535 81.3929 20.0867 81.0575 20.3531C80.7221 20.6096 80.5002 20.9746 80.3916 21.4481ZM92.6611 15.4846H94.57V25.843H92.6611V24.97C92.0988 25.6901 91.2997 26.0502 90.2639 26.0502C89.2675 26.0502 88.4142 25.6753 87.7039 24.9256C87.0035 24.1659 86.6533 23.2386 86.6533 22.1436C86.6533 21.0486 87.0035 20.1262 87.7039 19.3764C88.4142 18.6168 89.2675 18.237 90.2639 18.237C91.2997 18.237 92.0988 18.5971 92.6611 19.3172V15.4846ZM89.1393 23.653C89.5339 24.0377 90.0271 24.2301 90.619 24.2301C91.2109 24.2301 91.6993 24.0377 92.084 23.653C92.4687 23.2584 92.6611 22.7552 92.6611 22.1436C92.6611 21.532 92.4687 21.0338 92.084 20.649C91.6993 20.2544 91.2109 20.0571 90.619 20.0571C90.0271 20.0571 89.5339 20.2544 89.1393 20.649C88.7545 21.0338 88.5622 21.532 88.5622 22.1436C88.5622 22.7552 88.7545 23.2584 89.1393 23.653Z" fill="white"/>
<rect x="118.797" y="0.458678" width="147.694" height="41.281" rx="20.6405" fill="white"/>
<mask id="mask0_308_153" style="mask-type:alpha" maskUnits="userSpaceOnUse" x="131" y="9" width="23" height="23">
<rect x="131.181" y="9.17358" width="22.0165" height="22.0165" fill="#D9D9D9"/>
</mask>
<g mask="url(#mask0_308_153)">
<path d="M136.685 30.2725C136.181 30.2725 135.749 30.0929 135.39 29.7336C135.03 29.3743 134.851 28.9424 134.851 28.4378V18.3469C134.851 17.8424 135.03 17.4104 135.39 17.0511C135.749 16.6918 136.181 16.5122 136.685 16.5122H139.437V18.3469H136.685V28.4378H147.694V18.3469H144.942V16.5122H147.694C148.198 16.5122 148.63 16.6918 148.989 17.0511C149.349 17.4104 149.528 17.8424 149.528 18.3469V28.4378C149.528 28.9424 149.349 29.3743 148.989 29.7336C148.63 30.0929 148.198 30.2725 147.694 30.2725H136.685ZM141.272 23.851V13.5996L139.804 15.0674L138.52 13.7601L142.189 10.0907L145.859 13.7601L144.575 15.0674L143.107 13.5996V23.851H141.272Z" fill="#1C1B1F"/>
</g>
<path d="M174.417 20.2791V21.0782C174.417 22.5579 173.944 23.7565 172.997 24.674C172.05 25.5915 170.827 26.0502 169.327 26.0502C167.729 26.0502 166.402 25.5323 165.346 24.4964C164.301 23.4507 163.778 22.1781 163.778 20.6786C163.778 19.1693 164.296 17.8917 165.332 16.846C166.377 15.8003 167.67 15.2775 169.209 15.2775C170.175 15.2775 171.058 15.4994 171.857 15.9434C172.656 16.3774 173.278 16.9595 173.722 17.6895L171.976 18.6957C171.729 18.2715 171.354 17.9263 170.851 17.6599C170.358 17.3935 169.805 17.2604 169.194 17.2604C168.207 17.2604 167.393 17.5859 166.752 18.237C166.121 18.8782 165.805 19.6921 165.805 20.6786C165.805 21.6553 166.126 22.4642 166.767 23.1054C167.418 23.7368 168.276 24.0525 169.342 24.0525C170.131 24.0525 170.782 23.8799 171.295 23.5346C171.818 23.1794 172.173 22.696 172.361 22.0844H169.223V20.2791H174.417ZM181.256 25.843L179.17 22.2472H177.616V25.843H175.574V15.4846H179.717C180.674 15.4846 181.488 15.8201 182.159 16.4909C182.83 17.1617 183.165 17.9707 183.165 18.9177C183.165 19.5589 182.983 20.1558 182.618 20.7082C182.253 21.2508 181.769 21.6602 181.167 21.9364L183.461 25.843H181.256ZM177.616 17.3935V20.4567H179.717C180.102 20.4567 180.433 20.3087 180.709 20.0127C180.985 19.7069 181.123 19.3419 181.123 18.9177C181.123 18.4935 180.985 18.1334 180.709 17.8375C180.433 17.5415 180.102 17.3935 179.717 17.3935H177.616ZM190.361 15.4846H192.403V25.843H190.849L186.41 19.5096V25.843H184.368V15.4846H185.921L190.361 21.8033V15.4846ZM197.728 26.0502C196.435 26.0502 195.419 25.5619 194.679 24.5852C193.949 23.5987 193.584 22.2916 193.584 20.6638C193.584 19.0361 193.949 17.7339 194.679 16.7572C195.419 15.7707 196.435 15.2775 197.728 15.2775C199.03 15.2775 200.046 15.7707 200.776 16.7572C201.506 17.7339 201.871 19.0361 201.871 20.6638C201.871 22.2916 201.506 23.5987 200.776 24.5852C200.046 25.5619 199.03 26.0502 197.728 26.0502ZM196.159 23.1942C196.514 23.7664 197.037 24.0525 197.728 24.0525C198.418 24.0525 198.941 23.7615 199.296 23.1794C199.661 22.5974 199.844 21.7589 199.844 20.6638C199.844 19.5589 199.661 18.7155 199.296 18.1334C198.941 17.5514 198.418 17.2604 197.728 17.2604C197.037 17.2604 196.514 17.5514 196.159 18.1334C195.804 18.7155 195.626 19.5589 195.626 20.6638C195.626 21.7687 195.804 22.6122 196.159 23.1942ZM201.995 15.4846H208.683V17.216L205.176 25.843H203.016L206.419 17.4379H201.995V15.4846ZM214.664 20.4567C215.621 21.0288 216.099 21.8624 216.099 22.9575C216.099 23.9144 215.764 24.6691 215.093 25.2215C214.432 25.774 213.529 26.0502 212.385 26.0502C211.231 26.0502 210.323 25.774 209.662 25.2215C209.001 24.6691 208.671 23.9144 208.671 22.9575C208.671 21.8624 209.144 21.0288 210.091 20.4567C209.371 19.9338 209.011 19.2186 209.011 18.311C209.011 17.3541 209.332 16.6093 209.973 16.0766C210.624 15.5438 211.428 15.2775 212.385 15.2775C213.342 15.2775 214.141 15.5438 214.782 16.0766C215.424 16.6093 215.744 17.3541 215.744 18.311C215.744 19.2285 215.384 19.9437 214.664 20.4567ZM213.347 17.5267C213.1 17.3097 212.78 17.2012 212.385 17.2012C211.991 17.2012 211.67 17.3097 211.423 17.5267C211.177 17.7438 211.053 18.0397 211.053 18.4146C211.053 18.7895 211.177 19.0903 211.423 19.3172C211.67 19.5343 211.991 19.6428 212.385 19.6428C212.78 19.6428 213.1 19.5343 213.347 19.3172C213.594 19.0903 213.717 18.7895 213.717 18.4146C213.717 18.0397 213.594 17.7438 213.347 17.5267ZM211.157 23.7565C211.473 24.0032 211.882 24.1265 212.385 24.1265C212.888 24.1265 213.293 24.0032 213.599 23.7565C213.914 23.5001 214.072 23.1449 214.072 22.6911C214.072 22.2472 213.914 21.9019 213.599 21.6553C213.293 21.3988 212.888 21.2705 212.385 21.2705C211.882 21.2705 211.473 21.3988 211.157 21.6553C210.851 21.9019 210.698 22.2472 210.698 22.6911C210.698 23.1449 210.851 23.5001 211.157 23.7565ZM220.803 18.8437C221.879 18.8733 222.752 19.2235 223.423 19.8944C224.093 20.5553 224.429 21.4037 224.429 22.4396C224.429 23.4951 224.079 24.3633 223.378 25.0439C222.678 25.7148 221.775 26.0502 220.67 26.0502C219.565 26.0502 218.663 25.7148 217.962 25.0439C217.272 24.3731 216.926 23.505 216.926 22.4396C216.926 21.6503 217.129 20.9549 217.533 20.3531L220.759 15.4846H223.097L220.803 18.8437ZM219.442 23.6678C219.768 23.9736 220.177 24.1265 220.67 24.1265C221.163 24.1265 221.573 23.9736 221.898 23.6678C222.234 23.3619 222.402 22.9525 222.402 22.4396C222.402 21.9364 222.234 21.532 221.898 21.2261C221.573 20.9203 221.163 20.7674 220.67 20.7674C220.177 20.7674 219.768 20.9203 219.442 21.2261C219.116 21.5221 218.954 21.9266 218.954 22.4396C218.954 22.9525 219.116 23.3619 219.442 23.6678ZM229.131 26.0502C227.838 26.0502 226.822 25.5619 226.082 24.5852C225.352 23.5987 224.987 22.2916 224.987 20.6638C224.987 19.0361 225.352 17.7339 226.082 16.7572C226.822 15.7707 227.838 15.2775 229.131 15.2775C230.433 15.2775 231.449 15.7707 232.179 16.7572C232.909 17.7339 233.274 19.0361 233.274 20.6638C233.274 22.2916 232.909 23.5987 232.179 24.5852C231.449 25.5619 230.433 26.0502 229.131 26.0502ZM227.562 23.1942C227.917 23.7664 228.44 24.0525 229.131 24.0525C229.821 24.0525 230.344 23.7615 230.699 23.1794C231.064 22.5974 231.247 21.7589 231.247 20.6638C231.247 19.5589 231.064 18.7155 230.699 18.1334C230.344 17.5514 229.821 17.2604 229.131 17.2604C228.44 17.2604 227.917 17.5514 227.562 18.1334C227.207 18.7155 227.029 19.5589 227.029 20.6638C227.029 21.7687 227.207 22.6122 227.562 23.1942ZM241.337 18.8733C241.337 19.6724 241.13 20.3728 240.715 20.9746H240.73L237.504 25.843H235.166L237.475 22.4691C236.399 22.4494 235.521 22.1091 234.841 21.4481C234.17 20.7773 233.834 19.919 233.834 18.8733C233.834 17.8177 234.18 16.9545 234.87 16.2837C235.571 15.6129 236.473 15.2775 237.578 15.2775C238.693 15.2775 239.596 15.6129 240.286 16.2837C240.987 16.9447 241.337 17.8079 241.337 18.8733ZM235.862 18.8733C235.862 19.3863 236.025 19.7957 236.35 20.1015C236.685 20.4073 237.095 20.5602 237.578 20.5602C238.081 20.5602 238.496 20.4073 238.821 20.1015C239.147 19.7957 239.31 19.3863 239.31 18.8733C239.31 18.3603 239.147 17.9559 238.821 17.6599C238.496 17.3541 238.081 17.2012 237.578 17.2012C237.095 17.2012 236.685 17.3541 236.35 17.6599C236.025 17.9657 235.862 18.3702 235.862 18.8733ZM246.039 26.0502C244.746 26.0502 243.73 25.5619 242.99 24.5852C242.26 23.5987 241.895 22.2916 241.895 20.6638C241.895 19.0361 242.26 17.7339 242.99 16.7572C243.73 15.7707 244.746 15.2775 246.039 15.2775C247.341 15.2775 248.357 15.7707 249.087 16.7572C249.817 17.7339 250.182 19.0361 250.182 20.6638C250.182 22.2916 249.817 23.5987 249.087 24.5852C248.357 25.5619 247.341 26.0502 246.039 26.0502ZM244.47 23.1942C244.825 23.7664 245.348 24.0525 246.039 24.0525C246.729 24.0525 247.252 23.7615 247.607 23.1794C247.972 22.5974 248.155 21.7589 248.155 20.6638C248.155 19.5589 247.972 18.7155 247.607 18.1334C247.252 17.5514 246.729 17.2604 246.039 17.2604C245.348 17.2604 244.825 17.5514 244.47 18.1334C244.115 18.7155 243.937 19.5589 243.937 20.6638C243.937 21.7687 244.115 22.6122 244.47 23.1942Z" fill="#191819"/>
<rect x="118.797" y="0.458678" width="147.694" height="41.281" rx="20.6405" stroke="#191819" stroke-width="0.917356"/>
</svg>
