<svg width="391" height="263" viewBox="0 0 391 263" fill="none" xmlns="http://www.w3.org/2000/svg">
<g filter="url(#filter0_d_834_3514)">
<rect width="120.372" height="150.727" transform="matrix(1 0 0.221378 0.975188 51 53.0132)" fill="white"/>
<rect width="120.372" height="132.409" transform="matrix(1 0 0.221378 0.975188 51 53.0132)" fill="white"/>
<rect width="120.372" height="150.727" transform="matrix(1 0 0.221378 0.975188 51 53.0132)" fill="white"/>
<rect width="66.5043" height="3.55784" rx="1.77892" transform="matrix(1 0 0.221378 0.975188 62.6123 63.9419)" fill="#DEDEDE"/>
<rect width="66.5043" height="3.55784" rx="1.77892" transform="matrix(1 0 0.221378 0.975188 64.0049 70.0806)" fill="#DEDEDE"/>
<rect width="103.354" height="3.73568" rx="1.86784" transform="matrix(1 0 0.221378 0.975188 68.4736 89.7598)" fill="#DEDEDE"/>
<rect width="103.354" height="3.32061" rx="1.6603" transform="matrix(1 0 0.221378 0.975188 69.9434 96.2358)" fill="#DEDEDE"/>
<rect width="103.354" height="3.73568" rx="1.86784" transform="matrix(1 0 0.221378 0.975188 71.3223 102.308)" fill="#DEDEDE"/>
<rect width="103.354" height="3.32061" rx="1.6603" transform="matrix(1 0 0.221378 0.975188 72.792 108.784)" fill="#DEDEDE"/>
<rect width="103.354" height="3.73568" rx="1.86784" transform="matrix(1 0 0.221378 0.975188 74.1709 114.856)" fill="#DEDEDE"/>
<rect width="103.354" height="3.32061" rx="1.6603" transform="matrix(1 0 0.221378 0.975188 75.6406 121.333)" fill="#DEDEDE"/>
<rect width="103.354" height="3.73568" rx="1.86784" transform="matrix(1 0 0.221378 0.975188 77.0195 127.404)" fill="#DEDEDE"/>
<rect width="103.354" height="3.73568" rx="1.86784" transform="matrix(1 0 0.221378 0.975188 78.4893 133.88)" fill="#DEDEDE"/>
<rect width="103.354" height="3.32061" rx="1.6603" transform="matrix(1 0 0.221378 0.975188 79.96 140.357)" fill="#DEDEDE"/>
<rect width="103.354" height="3.73568" rx="1.86784" transform="matrix(1 0 0.221378 0.975188 81.3379 146.429)" fill="#DEDEDE"/>
<rect width="103.354" height="3.32061" rx="1.6603" transform="matrix(1 0 0.221378 0.975188 82.8086 152.905)" fill="#DEDEDE"/>
<rect width="103.354" height="3.73568" rx="1.86784" transform="matrix(1 0 0.221378 0.975188 84.1865 158.977)" fill="#DEDEDE"/>
<mask id="mask0_834_3514" style="mask-type:alpha" maskUnits="userSpaceOnUse" x="140" y="57" width="26" height="21">
<rect width="20.6831" height="20.6831" transform="matrix(1 0 0.221378 0.975188 140.006 57.4663)" fill="#D9D9D9"/>
</mask>
<g mask="url(#mask0_834_3514)">
<path d="M152.307 71.4175L157.038 65.4926L155.564 64.316L151.773 69.0643L148.773 66.6691L147.834 67.8457L152.307 71.4175ZM154.544 75.9557C153.352 75.9557 152.181 75.7351 151.033 75.2939C149.884 74.8527 148.836 74.2539 147.889 73.4975C146.941 72.7411 146.125 71.8517 145.441 70.8292C144.756 69.8067 144.282 68.7141 144.018 67.5516C143.754 66.389 143.732 65.2965 143.953 64.274C144.173 63.2515 144.585 62.362 145.189 61.6057C145.793 60.8493 146.569 60.2505 147.518 59.8093C148.466 59.3681 149.536 59.1475 150.728 59.1475C151.92 59.1475 153.091 59.3681 154.24 59.8093C155.388 60.2505 156.436 60.8493 157.384 61.6057C158.331 62.362 159.147 63.2515 159.831 64.274C160.516 65.2965 160.99 66.389 161.254 67.5516C161.518 68.7141 161.54 69.8067 161.319 70.8292C161.099 71.8517 160.687 72.7411 160.083 73.4975C159.479 74.2539 158.703 74.8527 157.755 75.2939C156.806 75.7351 155.736 75.9557 154.544 75.9557ZM154.162 74.2749C156.087 74.2749 157.569 73.6236 158.609 72.3209C159.65 71.0183 159.957 69.4285 159.53 67.5516C159.104 65.6747 158.076 64.0849 156.444 62.7822C154.813 61.4796 153.035 60.8283 151.11 60.8283C149.185 60.8283 147.703 61.4796 146.663 62.7822C145.623 64.0849 145.316 65.6747 145.742 67.5516C146.168 69.4285 147.197 71.0183 148.828 72.3209C150.46 73.6236 152.238 74.2749 154.162 74.2749Z" fill="#17A672"/>
</g>
<rect width="30.3547" height="4.18685" rx="2.09343" transform="matrix(1 0 0.221378 0.975188 159.986 173.46)" fill="#DEDEDE"/>
<rect width="30.3547" height="4.18685" rx="2.09343" transform="matrix(1 0 0.221378 0.975188 161.557 180.377)" fill="#DEDEDE"/>
<rect width="30.3547" height="4.18685" rx="2.09343" transform="matrix(1 0 0.221378 0.975188 163.127 187.293)" fill="#DEDEDE"/>
</g>
<g filter="url(#filter1_d_834_3514)">
<rect width="120.372" height="150.727" transform="matrix(1 0 0.221378 0.975188 71.3193 39)" fill="white"/>
<rect width="120.372" height="132.409" transform="matrix(1 0 0.221378 0.975188 71.3193 39)" fill="white"/>
<rect width="120.372" height="150.727" transform="matrix(1 0 0.221378 0.975188 71.3193 39)" fill="white"/>
<rect width="66.5043" height="3.55784" rx="1.77892" transform="matrix(1 0 0.221378 0.975188 82.9307 49.9287)" fill="#DEDEDE"/>
<rect width="66.5043" height="3.55784" rx="1.77892" transform="matrix(1 0 0.221378 0.975188 84.3242 56.0674)" fill="#DEDEDE"/>
<rect width="103.354" height="3.73568" rx="1.86784" transform="matrix(1 0 0.221378 0.975188 88.792 75.7471)" fill="#DEDEDE"/>
<rect width="103.354" height="3.32061" rx="1.6603" transform="matrix(1 0 0.221378 0.975188 90.2627 82.2236)" fill="#DEDEDE"/>
<rect width="103.354" height="3.73568" rx="1.86784" transform="matrix(1 0 0.221378 0.975188 91.6406 88.2954)" fill="#DEDEDE"/>
<rect width="103.354" height="3.32061" rx="1.6603" transform="matrix(1 0 0.221378 0.975188 93.1104 94.7715)" fill="#DEDEDE"/>
<rect width="103.354" height="3.73568" rx="1.86784" transform="matrix(1 0 0.221378 0.975188 94.4893 100.843)" fill="#DEDEDE"/>
<rect width="103.354" height="3.32061" rx="1.6603" transform="matrix(1 0 0.221378 0.975188 95.96 107.32)" fill="#DEDEDE"/>
<rect width="103.354" height="3.73568" rx="1.86784" transform="matrix(1 0 0.221378 0.975188 97.3379 113.392)" fill="#DEDEDE"/>
<rect width="103.354" height="3.73568" rx="1.86784" transform="matrix(1 0 0.221378 0.975188 98.8076 119.868)" fill="#DEDEDE"/>
<rect width="103.354" height="3.32061" rx="1.6603" transform="matrix(1 0 0.221378 0.975188 100.278 126.344)" fill="#DEDEDE"/>
<rect width="103.354" height="3.73568" rx="1.86784" transform="matrix(1 0 0.221378 0.975188 101.656 132.416)" fill="#DEDEDE"/>
<rect width="103.354" height="3.32061" rx="1.6603" transform="matrix(1 0 0.221378 0.975188 103.127 138.893)" fill="#DEDEDE"/>
<rect width="103.354" height="3.73568" rx="1.86784" transform="matrix(1 0 0.221378 0.975188 104.505 144.964)" fill="#DEDEDE"/>
<mask id="mask1_834_3514" style="mask-type:alpha" maskUnits="userSpaceOnUse" x="160" y="43" width="26" height="21">
<rect width="20.6831" height="20.6831" transform="matrix(1 0 0.221378 0.975188 160.325 43.4531)" fill="#D9D9D9"/>
</mask>
<g mask="url(#mask1_834_3514)">
<path d="M172.627 57.4043L177.357 51.4794L175.884 50.3028L172.092 55.0511L169.093 52.656L168.153 53.8325L172.627 57.4043ZM174.863 61.9425C173.671 61.9425 172.501 61.7219 171.352 61.2807C170.203 60.8395 169.155 60.2407 168.208 59.4843C167.261 58.7279 166.445 57.8385 165.76 56.816C165.076 55.7935 164.601 54.701 164.338 53.5384C164.074 52.3758 164.052 51.2833 164.272 50.2608C164.492 49.2383 164.905 48.3489 165.508 47.5925C166.112 46.8361 166.889 46.2373 167.837 45.7961C168.785 45.3549 169.855 45.1343 171.048 45.1343C172.24 45.1343 173.41 45.3549 174.559 45.7961C175.708 46.2373 176.756 46.8361 177.703 47.5925C178.65 48.3489 179.466 49.2383 180.151 50.2608C180.835 51.2833 181.309 52.3758 181.573 53.5384C181.837 54.701 181.859 55.7935 181.639 56.816C181.418 57.8385 181.006 58.7279 180.402 59.4843C179.799 60.2407 179.022 60.8395 178.074 61.2807C177.126 61.7219 176.055 61.9425 174.863 61.9425ZM174.482 60.2617C176.406 60.2617 177.889 59.6104 178.929 58.3077C179.969 57.0051 180.276 55.4153 179.85 53.5384C179.424 51.6615 178.395 50.0717 176.763 48.7691C175.132 47.4664 173.354 46.8151 171.429 46.8151C169.505 46.8151 168.022 47.4664 166.982 48.7691C165.942 50.0717 165.635 51.6615 166.061 53.5384C166.487 55.4153 167.516 57.0051 169.147 58.3077C170.779 59.6104 172.557 60.2617 174.482 60.2617Z" fill="#17A672"/>
</g>
<rect width="30.3547" height="4.18685" rx="2.09343" transform="matrix(1 0 0.221378 0.975188 180.305 159.447)" fill="#DEDEDE"/>
<rect width="30.3547" height="4.18685" rx="2.09343" transform="matrix(1 0 0.221378 0.975188 181.875 166.364)" fill="#DEDEDE"/>
<rect width="30.3547" height="4.18685" rx="2.09343" transform="matrix(1 0 0.221378 0.975188 183.445 173.28)" fill="#DEDEDE"/>
</g>
<g filter="url(#filter2_d_834_3514)">
<rect width="120.372" height="150.727" transform="matrix(1 0 0.221378 0.975188 99.3447 46.0063)" fill="white"/>
<rect width="120.372" height="132.409" transform="matrix(1 0 0.221378 0.975188 99.3447 46.0063)" fill="white"/>
<rect width="120.372" height="150.727" transform="matrix(1 0 0.221378 0.975188 99.3447 46.0063)" fill="white"/>
<rect width="66.5043" height="3.55784" rx="1.77892" transform="matrix(1 0 0.221378 0.975188 110.957 56.9351)" fill="#DEDEDE"/>
<rect width="66.5043" height="3.55784" rx="1.77892" transform="matrix(1 0 0.221378 0.975188 112.351 63.0737)" fill="#DEDEDE"/>
<rect width="103.354" height="3.73568" rx="1.86784" transform="matrix(1 0 0.221378 0.975188 116.818 82.7534)" fill="#DEDEDE"/>
<rect width="103.354" height="3.32061" rx="1.6603" transform="matrix(1 0 0.221378 0.975188 118.289 89.23)" fill="#DEDEDE"/>
<rect width="103.354" height="3.73568" rx="1.86784" transform="matrix(1 0 0.221378 0.975188 119.667 95.3018)" fill="#DEDEDE"/>
<rect width="103.354" height="3.32061" rx="1.6603" transform="matrix(1 0 0.221378 0.975188 121.138 101.778)" fill="#DEDEDE"/>
<rect width="103.354" height="3.73568" rx="1.86784" transform="matrix(1 0 0.221378 0.975188 122.516 107.85)" fill="#DEDEDE"/>
<rect width="103.354" height="3.32061" rx="1.6603" transform="matrix(1 0 0.221378 0.975188 123.985 114.326)" fill="#DEDEDE"/>
<rect width="103.354" height="3.73568" rx="1.86784" transform="matrix(1 0 0.221378 0.975188 125.364 120.398)" fill="#DEDEDE"/>
<rect width="103.354" height="3.73568" rx="1.86784" transform="matrix(1 0 0.221378 0.975188 126.834 126.874)" fill="#DEDEDE"/>
<rect width="103.354" height="3.32061" rx="1.6603" transform="matrix(1 0 0.221378 0.975188 128.305 133.351)" fill="#DEDEDE"/>
<rect width="103.354" height="3.73568" rx="1.86784" transform="matrix(1 0 0.221378 0.975188 129.683 139.422)" fill="#DEDEDE"/>
<rect width="103.354" height="3.32061" rx="1.6603" transform="matrix(1 0 0.221378 0.975188 131.153 145.899)" fill="#DEDEDE"/>
<rect width="103.354" height="3.73568" rx="1.86784" transform="matrix(1 0 0.221378 0.975188 132.531 151.97)" fill="#DEDEDE"/>
<mask id="mask2_834_3514" style="mask-type:alpha" maskUnits="userSpaceOnUse" x="188" y="50" width="26" height="21">
<rect width="20.6831" height="20.6831" transform="matrix(1 0 0.221378 0.975188 188.352 50.4595)" fill="#D9D9D9"/>
</mask>
<g mask="url(#mask2_834_3514)">
<path d="M200.653 64.4106L205.384 58.4857L203.91 57.3092L200.119 62.0575L197.119 59.6623L196.179 60.8389L200.653 64.4106ZM202.89 68.9489C201.698 68.9489 200.527 68.7283 199.378 68.287C198.23 67.8458 197.182 67.247 196.234 66.4907C195.287 65.7343 194.471 64.8448 193.787 63.8223C193.102 62.7998 192.628 61.7073 192.364 60.5447C192.1 59.3822 192.078 58.2896 192.298 57.2671C192.519 56.2446 192.931 55.3552 193.535 54.5988C194.139 53.8425 194.915 53.2437 195.863 52.8024C196.812 52.3612 197.882 52.1406 199.074 52.1406C200.266 52.1406 201.437 52.3612 202.585 52.8024C203.734 53.2437 204.782 53.8425 205.729 54.5988C206.677 55.3552 207.492 56.2446 208.177 57.2671C208.862 58.2896 209.336 59.3822 209.6 60.5447C209.864 61.7073 209.885 62.7998 209.665 63.8223C209.445 64.8448 209.033 65.7343 208.429 66.4907C207.825 67.247 207.049 67.8458 206.1 68.287C205.152 68.7283 204.082 68.9489 202.89 68.9489ZM202.508 67.268C204.433 67.268 205.915 66.6167 206.955 65.3141C207.995 64.0114 208.302 62.4217 207.876 60.5447C207.45 58.6678 206.421 57.078 204.79 55.7754C203.158 54.4728 201.38 53.8214 199.456 53.8214C197.531 53.8214 196.049 54.4728 195.008 55.7754C193.968 57.078 193.661 58.6678 194.087 60.5447C194.514 62.4217 195.542 64.0114 197.174 65.3141C198.805 66.6167 200.583 67.268 202.508 67.268Z" fill="#17A672"/>
</g>
<rect width="30.3547" height="4.18685" rx="2.09343" transform="matrix(1 0 0.221378 0.975188 208.331 166.454)" fill="#DEDEDE"/>
<rect width="30.3547" height="4.18685" rx="2.09343" transform="matrix(1 0 0.221378 0.975188 209.901 173.37)" fill="#DEDEDE"/>
<rect width="30.3547" height="4.18685" rx="2.09343" transform="matrix(1 0 0.221378 0.975188 211.471 180.286)" fill="#DEDEDE"/>
</g>
<rect width="136.628" height="60.2563" rx="30.1281" transform="matrix(1 0 0.22937 0.973339 233.871 60.7202)" fill="#A0E2E1"/>
<rect width="67.9635" height="4.20393" rx="2.10196" transform="matrix(1 0 0.22937 0.973339 233.871 60.7202)" fill="#CFFCFB"/>
<rect width="136.628" height="4.20393" rx="2.10196" transform="matrix(1 0 0.22937 0.973339 237.085 74.3599)" fill="#CFFCFB"/>
<rect width="110.003" height="4.20393" rx="2.10196" transform="matrix(1 0 0.22937 0.973339 240.3 87.999)" fill="#CFFCFB"/>
<rect width="83.3779" height="4.20393" rx="2.10196" transform="matrix(1 0 0.22937 0.973339 243.514 101.639)" fill="#CFFCFB"/>
<rect width="65.1609" height="4.20393" rx="2.10196" transform="matrix(1 0 0.22937 0.973339 246.728 115.278)" fill="#CFFCFB"/>
<defs>
<filter id="filter0_d_834_3514" x="0.32185" y="14.2593" width="255.096" height="248.343" filterUnits="userSpaceOnUse" color-interpolation-filters="sRGB">
<feFlood flood-opacity="0" result="BackgroundImageFix"/>
<feColorMatrix in="SourceAlpha" type="matrix" values="0 0 0 0 0 0 0 0 0 0 0 0 0 0 0 0 0 0 127 0" result="hardAlpha"/>
<feOffset dy="11.9243"/>
<feGaussianBlur stdDeviation="25.3391"/>
<feComposite in2="hardAlpha" operator="out"/>
<feColorMatrix type="matrix" values="0 0 0 0 0 0 0 0 0 0 0 0 0 0 0 0 0 0 0.08 0"/>
<feBlend mode="normal" in2="BackgroundImageFix" result="effect1_dropShadow_834_3514"/>
<feBlend mode="normal" in="SourceGraphic" in2="effect1_dropShadow_834_3514" result="shape"/>
</filter>
<filter id="filter1_d_834_3514" x="20.6412" y="0.246119" width="255.096" height="248.343" filterUnits="userSpaceOnUse" color-interpolation-filters="sRGB">
<feFlood flood-opacity="0" result="BackgroundImageFix"/>
<feColorMatrix in="SourceAlpha" type="matrix" values="0 0 0 0 0 0 0 0 0 0 0 0 0 0 0 0 0 0 127 0" result="hardAlpha"/>
<feOffset dy="11.9243"/>
<feGaussianBlur stdDeviation="25.3391"/>
<feComposite in2="hardAlpha" operator="out"/>
<feColorMatrix type="matrix" values="0 0 0 0 0 0 0 0 0 0 0 0 0 0 0 0 0 0 0.08 0"/>
<feBlend mode="normal" in2="BackgroundImageFix" result="effect1_dropShadow_834_3514"/>
<feBlend mode="normal" in="SourceGraphic" in2="effect1_dropShadow_834_3514" result="shape"/>
</filter>
<filter id="filter2_d_834_3514" x="48.6666" y="7.25247" width="255.096" height="248.343" filterUnits="userSpaceOnUse" color-interpolation-filters="sRGB">
<feFlood flood-opacity="0" result="BackgroundImageFix"/>
<feColorMatrix in="SourceAlpha" type="matrix" values="0 0 0 0 0 0 0 0 0 0 0 0 0 0 0 0 0 0 127 0" result="hardAlpha"/>
<feOffset dy="11.9243"/>
<feGaussianBlur stdDeviation="25.3391"/>
<feComposite in2="hardAlpha" operator="out"/>
<feColorMatrix type="matrix" values="0 0 0 0 0 0 0 0 0 0 0 0 0 0 0 0 0 0 0.08 0"/>
<feBlend mode="normal" in2="BackgroundImageFix" result="effect1_dropShadow_834_3514"/>
<feBlend mode="normal" in="SourceGraphic" in2="effect1_dropShadow_834_3514" result="shape"/>
</filter>
</defs>
</svg>
