<svg width="312" height="205" viewBox="0 0 312 205" fill="none" xmlns="http://www.w3.org/2000/svg">
<g filter="url(#filter0_d_201_2166)">
<rect x="24" y="20" width="264" height="157" rx="22" fill="#8CF078"/>
<rect width="264" height="46" transform="translate(24 20)" fill="white"/>
<circle cx="46" cy="43" r="13" fill="#8CF078"/>
<rect x="70" y="31" width="160" height="9" rx="4.5" fill="#CEFFC5"/>
<rect x="70" y="46" width="160" height="9" rx="4.5" fill="#CEFFC5"/>
<mask id="mask0_201_2166" style="mask-type:alpha" maskUnits="userSpaceOnUse" x="257" y="36" width="16" height="16">
<rect x="257" y="36" width="16" height="16" fill="#D9D9D9"/>
</mask>
<g mask="url(#mask0_201_2166)">
<path d="M262.206 50L261 48.8462L266.588 43.5L261 38.1537L262.206 37L269 43.5L262.206 50Z" fill="#1C1B1F"/>
</g>
<path d="M53.8424 111L52.7951 107.858H45.8377L44.7904 111H41.0748L47.1843 93.5443H51.4485L57.5829 111H53.8424ZM46.9349 104.641H51.7228L49.3289 97.5092L46.9349 104.641ZM58.6295 111V92.7962H61.8463V111H58.6295ZM64.2919 111V92.7962H67.5087V111H64.2919ZM83.8191 98.5316H87.2603L82.7218 111C82.0735 112.795 81.209 114.092 80.1284 114.89C79.0645 115.705 77.7345 116.07 76.1386 115.987V112.995C77.003 113.012 77.6846 112.829 78.1834 112.446C78.6987 112.064 79.106 111.449 79.4053 110.601L74.2932 98.5316H77.8093L81.0511 106.91L83.8191 98.5316ZM98.4285 109.454C97.1484 110.717 95.5857 111.349 93.7404 111.349C91.895 111.349 90.3323 110.717 89.0523 109.454C87.7888 108.174 87.1571 106.611 87.1571 104.766C87.1571 102.921 87.7888 101.366 89.0523 100.103C90.3323 98.8226 91.895 98.1825 93.7404 98.1825C95.5857 98.1825 97.1484 98.8226 98.4285 100.103C99.7085 101.366 100.349 102.921 100.349 104.766C100.349 106.611 99.7085 108.174 98.4285 109.454ZM91.3215 107.235C91.9699 107.883 92.7761 108.207 93.7404 108.207C94.7046 108.207 95.5109 107.883 96.1592 107.235C96.8076 106.586 97.1318 105.763 97.1318 104.766C97.1318 103.768 96.8076 102.945 96.1592 102.297C95.5109 101.649 94.7046 101.325 93.7404 101.325C92.7761 101.325 91.9699 101.649 91.3215 102.297C90.6898 102.945 90.3739 103.768 90.3739 104.766C90.3739 105.763 90.6898 106.586 91.3215 107.235ZM110.342 98.5316H113.559V111H110.342V109.604C109.561 110.767 108.322 111.349 106.626 111.349C105.263 111.349 104.133 110.892 103.235 109.978C102.354 109.063 101.913 107.8 101.913 106.187V98.5316H105.13V105.788C105.13 106.619 105.355 107.259 105.803 107.708C106.252 108.141 106.851 108.357 107.599 108.357C108.43 108.357 109.095 108.099 109.594 107.584C110.093 107.068 110.342 106.295 110.342 105.265V98.5316ZM119.223 100.676C119.522 99.8782 120.013 99.2797 120.694 98.8808C121.393 98.4818 122.166 98.2823 123.014 98.2823V101.873C122.033 101.757 121.152 101.956 120.37 102.472C119.606 102.987 119.223 103.843 119.223 105.04V111H116.006V98.5316H119.223V100.676ZM139.583 93.5443H142.799V111H139.583V109.529C138.635 110.742 137.288 111.349 135.543 111.349C133.864 111.349 132.426 110.717 131.229 109.454C130.048 108.174 129.458 106.611 129.458 104.766C129.458 102.921 130.048 101.366 131.229 100.103C132.426 98.8226 133.864 98.1825 135.543 98.1825C137.288 98.1825 138.635 98.7893 139.583 100.003V93.5443ZM133.648 107.309C134.313 107.958 135.144 108.282 136.141 108.282C137.139 108.282 137.962 107.958 138.61 107.309C139.258 106.644 139.583 105.797 139.583 104.766C139.583 103.735 139.258 102.896 138.61 102.247C137.962 101.582 137.139 101.25 136.141 101.25C135.144 101.25 134.313 101.582 133.648 102.247C132.999 102.896 132.675 103.735 132.675 104.766C132.675 105.797 132.999 106.644 133.648 107.309ZM155.866 109.454C154.586 110.717 153.023 111.349 151.178 111.349C149.332 111.349 147.77 110.717 146.489 109.454C145.226 108.174 144.594 106.611 144.594 104.766C144.594 102.921 145.226 101.366 146.489 100.103C147.77 98.8226 149.332 98.1825 151.178 98.1825C153.023 98.1825 154.586 98.8226 155.866 100.103C157.146 101.366 157.786 102.921 157.786 104.766C157.786 106.611 157.146 108.174 155.866 109.454ZM148.759 107.235C149.407 107.883 150.213 108.207 151.178 108.207C152.142 108.207 152.948 107.883 153.596 107.235C154.245 106.586 154.569 105.763 154.569 104.766C154.569 103.768 154.245 102.945 153.596 102.297C152.948 101.649 152.142 101.325 151.178 101.325C150.213 101.325 149.407 101.649 148.759 102.297C148.127 102.945 147.811 103.768 147.811 104.766C147.811 105.763 148.127 106.586 148.759 107.235ZM165.485 111.349C163.606 111.349 162.035 110.717 160.772 109.454C159.525 108.19 158.902 106.628 158.902 104.766C158.902 102.904 159.525 101.341 160.772 100.078C162.035 98.8143 163.606 98.1825 165.485 98.1825C166.699 98.1825 167.804 98.4735 168.802 99.0553C169.799 99.6372 170.555 100.419 171.071 101.399L168.303 103.02C168.054 102.505 167.671 102.098 167.156 101.798C166.657 101.499 166.092 101.349 165.46 101.349C164.496 101.349 163.698 101.674 163.066 102.322C162.434 102.954 162.119 103.768 162.119 104.766C162.119 105.747 162.434 106.561 163.066 107.21C163.698 107.841 164.496 108.157 165.46 108.157C166.108 108.157 166.682 108.016 167.181 107.733C167.696 107.434 168.078 107.027 168.328 106.511L171.121 108.107C170.572 109.088 169.799 109.878 168.802 110.476C167.804 111.058 166.699 111.349 165.485 111.349ZM180.65 98.5316H183.867V111H180.65V109.604C179.869 110.767 178.63 111.349 176.934 111.349C175.571 111.349 174.441 110.892 173.543 109.978C172.662 109.063 172.221 107.8 172.221 106.187V98.5316H175.438V105.788C175.438 106.619 175.663 107.259 176.111 107.708C176.56 108.141 177.159 108.357 177.907 108.357C178.738 108.357 179.403 108.099 179.902 107.584C180.4 107.068 180.65 106.295 180.65 105.265V98.5316ZM200.104 98.1825C201.534 98.1825 202.673 98.648 203.521 99.579C204.385 100.51 204.817 101.757 204.817 103.319V111H201.6V103.544C201.6 102.796 201.418 102.214 201.052 101.798C200.686 101.383 200.171 101.175 199.506 101.175C198.774 101.175 198.201 101.416 197.785 101.898C197.386 102.38 197.187 103.078 197.187 103.993V111H193.97V103.544C193.97 102.796 193.787 102.214 193.421 101.798C193.055 101.383 192.54 101.175 191.875 101.175C191.16 101.175 190.587 101.416 190.154 101.898C189.739 102.38 189.531 103.078 189.531 103.993V111H186.314V98.5316H189.531V99.8533C190.279 98.7395 191.435 98.1825 192.997 98.1825C194.527 98.1825 195.657 98.781 196.389 99.978C197.22 98.781 198.458 98.1825 200.104 98.1825ZM209.769 106.087C210.201 107.65 211.373 108.432 213.285 108.432C214.515 108.432 215.446 108.016 216.078 107.185L218.671 108.681C217.441 110.46 215.629 111.349 213.235 111.349C211.173 111.349 209.519 110.726 208.273 109.479C207.026 108.232 206.402 106.661 206.402 104.766C206.402 102.887 207.017 101.325 208.248 100.078C209.478 98.8143 211.057 98.1825 212.986 98.1825C214.814 98.1825 216.319 98.8143 217.499 100.078C218.696 101.341 219.295 102.904 219.295 104.766C219.295 105.181 219.253 105.622 219.17 106.087H209.769ZM209.719 103.594H216.078C215.895 102.746 215.512 102.114 214.931 101.699C214.365 101.283 213.717 101.075 212.986 101.075C212.121 101.075 211.406 101.3 210.841 101.748C210.276 102.181 209.902 102.796 209.719 103.594ZM227.974 98.1825C229.337 98.1825 230.459 98.6397 231.34 99.554C232.238 100.468 232.687 101.732 232.687 103.344V111H229.47V103.743C229.47 102.912 229.246 102.28 228.797 101.848C228.348 101.399 227.749 101.175 227.001 101.175C226.17 101.175 225.505 101.433 225.006 101.948C224.508 102.463 224.258 103.236 224.258 104.267V111H221.041V98.5316H224.258V99.9281C225.04 98.7644 226.278 98.1825 227.974 98.1825ZM242.067 101.624H239.249V106.811C239.249 107.243 239.357 107.559 239.573 107.758C239.789 107.958 240.105 108.074 240.521 108.107C240.936 108.124 241.452 108.116 242.067 108.082V111C239.856 111.249 238.293 111.042 237.379 110.377C236.481 109.712 236.032 108.523 236.032 106.811V101.624H233.863V98.5316H236.032V96.013L239.249 95.0405V98.5316H242.067V101.624ZM246.536 102.073C246.536 102.405 246.752 102.679 247.184 102.896C247.633 103.095 248.173 103.278 248.805 103.444C249.437 103.594 250.068 103.793 250.7 104.043C251.332 104.275 251.864 104.674 252.296 105.24C252.745 105.805 252.969 106.511 252.969 107.359C252.969 108.639 252.487 109.628 251.523 110.327C250.576 111.008 249.387 111.349 247.957 111.349C245.397 111.349 243.651 110.36 242.72 108.382L245.513 106.811C245.879 107.891 246.694 108.432 247.957 108.432C249.104 108.432 249.678 108.074 249.678 107.359C249.678 107.027 249.453 106.761 249.004 106.561C248.572 106.345 248.04 106.154 247.409 105.988C246.777 105.821 246.145 105.614 245.513 105.364C244.882 105.115 244.341 104.724 243.892 104.192C243.46 103.644 243.244 102.962 243.244 102.147C243.244 100.917 243.693 99.953 244.591 99.2548C245.505 98.54 246.636 98.1825 247.982 98.1825C248.996 98.1825 249.919 98.4153 250.75 98.8808C251.581 99.3296 252.238 99.978 252.72 100.826L249.977 102.322C249.578 101.474 248.913 101.05 247.982 101.05C247.566 101.05 247.217 101.142 246.935 101.325C246.669 101.507 246.536 101.757 246.536 102.073ZM50.7004 129.532H53.9172V142H50.7004V140.604C49.919 141.767 48.6805 142.349 46.9848 142.349C45.6216 142.349 44.4911 141.892 43.5934 140.978C42.7123 140.063 42.2718 138.8 42.2718 137.187V129.532H45.4886V136.788C45.4886 137.619 45.713 138.259 46.1619 138.708C46.6108 139.141 47.2092 139.357 47.9573 139.357C48.7886 139.357 49.4535 139.099 49.9523 138.584C50.451 138.068 50.7004 137.295 50.7004 136.265V129.532ZM63.6213 129.183C65.3004 129.183 66.7301 129.823 67.9104 131.103C69.1074 132.366 69.7059 133.921 69.7059 135.766C69.7059 137.611 69.1074 139.174 67.9104 140.454C66.7301 141.717 65.3004 142.349 63.6213 142.349C61.8757 142.349 60.5291 141.742 59.5816 140.529V146.987H56.3647V129.532H59.5816V131.003C60.5291 129.789 61.8757 129.183 63.6213 129.183ZM60.5541 138.309C61.2024 138.958 62.0253 139.282 63.0228 139.282C64.0203 139.282 64.8432 138.958 65.4916 138.309C66.1565 137.644 66.489 136.797 66.489 135.766C66.489 134.735 66.1565 133.896 65.4916 133.247C64.8432 132.582 64.0203 132.25 63.0228 132.25C62.0253 132.25 61.2024 132.582 60.5541 133.247C59.9057 133.896 59.5816 134.735 59.5816 135.766C59.5816 136.797 59.9057 137.644 60.5541 138.309ZM80.9268 124.544H84.1436V142H80.9268V140.529C79.9792 141.742 78.6326 142.349 76.887 142.349C75.208 142.349 73.77 141.717 72.573 140.454C71.3927 139.174 70.8025 137.611 70.8025 135.766C70.8025 133.921 71.3927 132.366 72.573 131.103C73.77 129.823 75.208 129.183 76.887 129.183C78.6326 129.183 79.9792 129.789 80.9268 131.003V124.544ZM74.9919 138.309C75.6568 138.958 76.4881 139.282 77.4855 139.282C78.483 139.282 79.3059 138.958 79.9543 138.309C80.6026 137.644 80.9268 136.797 80.9268 135.766C80.9268 134.735 80.6026 133.896 79.9543 133.247C79.3059 132.582 78.483 132.25 77.4855 132.25C76.4881 132.25 75.6568 132.582 74.9919 133.247C74.3435 133.896 74.0193 134.735 74.0193 135.766C74.0193 136.797 74.3435 137.644 74.9919 138.309ZM96.0628 129.532H99.2796V142H96.0628V140.529C95.0986 141.742 93.7437 142.349 91.9981 142.349C90.3357 142.349 88.906 141.717 87.709 140.454C86.5287 139.174 85.9385 137.611 85.9385 135.766C85.9385 133.921 86.5287 132.366 87.709 131.103C88.906 129.823 90.3357 129.183 91.9981 129.183C93.7437 129.183 95.0986 129.789 96.0628 131.003V129.532ZM90.1279 138.309C90.7762 138.958 91.5991 139.282 92.5966 139.282C93.5941 139.282 94.417 138.958 95.0653 138.309C95.7303 137.644 96.0628 136.797 96.0628 135.766C96.0628 134.735 95.7303 133.896 95.0653 133.247C94.417 132.582 93.5941 132.25 92.5966 132.25C91.5991 132.25 90.7762 132.582 90.1279 133.247C89.4795 133.896 89.1553 134.735 89.1553 135.766C89.1553 136.797 89.4795 137.644 90.1279 138.309ZM108.83 132.624H106.012V137.811C106.012 138.243 106.12 138.559 106.336 138.758C106.552 138.958 106.868 139.074 107.284 139.107C107.699 139.124 108.215 139.116 108.83 139.082V142C106.619 142.249 105.056 142.042 104.142 141.377C103.244 140.712 102.795 139.523 102.795 137.811V132.624H100.626V129.532H102.795V127.013L106.012 126.041V129.532H108.83V132.624ZM112.928 137.087C113.36 138.65 114.532 139.432 116.444 139.432C117.674 139.432 118.605 139.016 119.237 138.185L121.83 139.681C120.6 141.46 118.788 142.349 116.394 142.349C114.332 142.349 112.678 141.726 111.431 140.479C110.185 139.232 109.561 137.661 109.561 135.766C109.561 133.887 110.176 132.325 111.406 131.078C112.637 129.814 114.216 129.183 116.144 129.183C117.973 129.183 119.478 129.814 120.658 131.078C121.855 132.341 122.453 133.904 122.453 135.766C122.453 136.181 122.412 136.622 122.329 137.087H112.928ZM112.878 134.594H119.237C119.054 133.746 118.671 133.114 118.09 132.699C117.524 132.283 116.876 132.075 116.144 132.075C115.28 132.075 114.565 132.3 114 132.748C113.435 133.181 113.061 133.796 112.878 134.594ZM133.554 124.544H136.771V142H133.554V140.529C132.606 141.742 131.26 142.349 129.514 142.349C127.835 142.349 126.397 141.717 125.2 140.454C124.02 139.174 123.43 137.611 123.43 135.766C123.43 133.921 124.02 132.366 125.2 131.103C126.397 129.823 127.835 129.183 129.514 129.183C131.26 129.183 132.606 129.789 133.554 131.003V124.544ZM127.619 138.309C128.284 138.958 129.115 139.282 130.113 139.282C131.11 139.282 131.933 138.958 132.581 138.309C133.23 137.644 133.554 136.797 133.554 135.766C133.554 134.735 133.23 133.896 132.581 133.247C131.933 132.582 131.11 132.25 130.113 132.25C129.115 132.25 128.284 132.582 127.619 133.247C126.971 133.896 126.646 134.735 126.646 135.766C126.646 136.797 126.971 137.644 127.619 138.309ZM139.812 136.14L139.139 129.532V124.544H143.004V129.532L142.356 136.14H139.812ZM142.58 141.701C142.165 142.116 141.666 142.324 141.084 142.324C140.502 142.324 140.004 142.116 139.588 141.701C139.172 141.285 138.965 140.786 138.965 140.205C138.965 139.623 139.172 139.124 139.588 138.708C140.004 138.293 140.502 138.085 141.084 138.085C141.666 138.085 142.165 138.293 142.58 138.708C142.996 139.124 143.204 139.623 143.204 140.205C143.204 140.786 142.996 141.285 142.58 141.701Z" fill="#191819"/>
</g>
<defs>
<filter id="filter0_d_201_2166" x="0" y="0" width="312" height="205" filterUnits="userSpaceOnUse" color-interpolation-filters="sRGB">
<feFlood flood-opacity="0" result="BackgroundImageFix"/>
<feColorMatrix in="SourceAlpha" type="matrix" values="0 0 0 0 0 0 0 0 0 0 0 0 0 0 0 0 0 0 127 0" result="hardAlpha"/>
<feOffset dy="4"/>
<feGaussianBlur stdDeviation="12"/>
<feComposite in2="hardAlpha" operator="out"/>
<feColorMatrix type="matrix" values="0 0 0 0 0 0 0 0 0 0 0 0 0 0 0 0 0 0 0.1 0"/>
<feBlend mode="normal" in2="BackgroundImageFix" result="effect1_dropShadow_201_2166"/>
<feBlend mode="normal" in="SourceGraphic" in2="effect1_dropShadow_201_2166" result="shape"/>
</filter>
</defs>
</svg>
